<svg xmlns="http://www.w3.org/2000/svg" viewBox="0 0 362 413"><g transform="translate(0,413) scale(1,-1)" fill="currentColor"><path d="M169.8 406.8 c-0.2 0 -0.8 -0.2 -1.2 -0.5 -0.2 0 -1 -0.2 -1.2 -0.2 -0.5 0 -0.8 -0.2 -1 -0.5 -0.2 0 -0.8 -0.5 -1 -0.8 -1 -0.2 -1.5 -0.8 -2.5 -1.2 -0.2 -0.2 -0.8 -0.5 -1 -0.5 -0.2 0 -0.8 -0.2 -0.8 -0.5 -0.2 -0.2 -0.8 -0.5 -1.2 -0.5 -0.2 0 -0.5 -0.2 -0.8 -0.5 0 0 -0.5 -0.5 -0.8 -0.8 -1 -0.2 -1.5 -0.5 -2.5 -1.2 -0.2 -0.2 -0.8 -0.5 -1 -0.5 -0.2 0 -0.5 -0.2 -0.8 -0.5 -0.2 -0.2 -0.5 -0.5 -0.8 -0.5 -0.2 0 -0.8 -0.2 -0.8 -0.5 -0.2 -0.2 -0.8 -0.5 -0.8 -0.5 -0.2 0 -0.8 -0.2 -0.8 -0.5 -0.2 -0.2 -0.8 -0.5 -1.2 -0.5 -0.2 0 -0.5 -0.2 -0.8 -0.5 -0.2 -0.2 -0.5 -0.5 -0.5 -0.5 -0.2 0 -0.8 -0.2 -1 -0.5 -0.5 -0.2 -0.8 -0.5 -1 -0.5 -0.2 0 -0.8 -0.2 -1 -0.5 -0.5 -0.2 -0.8 -0.5 -1 -0.5 -0.2 0 -0.5 -0.2 -0.8 -0.5 -0.2 -0.2 -0.8 -0.5 -1 -0.5 -0.2 0 -0.5 -0.2 -0.8 -0.5 -0.2 -0.2 -0.5 -0.5 -0.8 -0.5 -0.5 0 -0.8 -0.2 -1 -0.5 -0.2 0 -0.8 -0.5 -1 -0.8 -1.2 -0.5 -2 -0.8 -2.5 -1.2 -0.2 -0.2 -0.5 -0.5 -0.8 -0.5 -0.2 0 -0.8 -0.2 -0.8 -0.5 -0.2 -0.2 -0.8 -0.5 -1 -0.5 -0.2 0 -0.8 -0.2 -0.8 -0.5 -0.2 -0.2 -0.8 -0.5 -1 -0.5 -0.2 0 -0.5 -0.2 -0.8 -0.5 -0.2 -0.2 -0.8 -0.5 -1 -0.5 -0.2 0 -0.5 -0.2 -0.8 -0.5 -0.2 -0.2 -0.5 -0.5 -0.8 -0.5 -0.2 0 -0.5 -0.2 -0.8 -0.2 -0.5 -0.5 -1.2 -1 -2.8 -1.5 -0.2 -0.2 -0.8 -0.8 -1 -0.8 -0.2 -0.2 -0.5 -0.5 -1 -0.5 -0.2 0 -0.5 -0.2 -0.8 -0.5 -0.2 -0.2 -0.5 -0.5 -0.8 -0.5 -0.5 0 -0.8 -0.2 -1 -0.5 -0.2 0 -0.8 -0.5 -1 -0.8 -1.2 -0.5 -2 -0.8 -2.5 -1.2 -0.2 -0.2 -0.8 -0.5 -1 -0.5 -0.2 0 -0.5 -0.2 -0.8 -0.5 -0.2 -0.2 -0.5 -0.5 -0.8 -0.5 -0.2 0 -0.8 -0.2 -1 -0.5 -1 -0.5 -1.5 -1 -2.5 -1.2 -0.2 -0.2 -0.8 -0.8 -1 -0.8 -0.2 -0.2 -0.5 -0.5 -0.8 -0.5 -0.2 0 -0.5 -0.2 -0.8 -0.5 -0.2 0 -0.8 -0.5 -1 -0.8 -1 -0.2 -1.5 -0.8 -2.5 -1.2 -0.2 -0.2 -0.8 -0.5 -1 -0.5 -0.2 0 -0.8 -0.2 -0.8 -0.5 -0.2 -0.2 -0.8 -0.5 -1 -0.5 -0.2 0 -0.5 -0.2 -0.8 -0.5 -0.2 0 -0.8 -0.5 -1 -0.8 -1.2 -0.5 -2 -0.8 -2.5 -1.2 -0.2 -0.2 -0.5 -0.5 -0.8 -0.5 -0.2 0 -0.5 -0.2 -0.8 -0.5 -0.5 -0.5 -1.2 -0.8 -2.5 -1.2 -0.2 -0.2 -0.8 -0.8 -1 -0.8 -0.2 -0.2 -0.5 -0.5 -0.8 -0.5 -0.2 0 -0.8 -0.2 -0.8 -0.5 -0.2 -0.2 -0.8 -0.5 -1 -0.5 -0.2 0 -0.5 -0.2 -0.8 -0.2 -0.5 -0.5 -1.2 -1 -2.8 -1.5 -0.2 -0.2 -0.8 -0.8 -0.8 -0.8 -0.2 -0.2 -0.5 -0.5 -0.8 -0.5 -0.5 0 -1 -0.2 -1 -0.5 -0.2 -0.2 -0.8 -0.5 -1 -0.5 -0.2 0 -0.8 -0.2 -0.8 -0.5 -0.2 -0.2 -0.8 -0.5 -0.8 -0.5 -0.2 0 -0.5 -0.2 -1 -0.5 -0.2 -0.2 -0.8 -0.5 -1 -0.5 -0.2 0 -0.5 -0.2 -0.8 -0.5 -0.2 -0.2 -0.5 -0.5 -0.8 -0.5 -0.5 0 -0.8 -0.2 -1 -0.5 -0.2 0 -0.8 -0.5 -1 -0.8 -1.2 -0.5 -2 -0.8 -2.5 -1.2 -0.2 -0.2 -0.5 -0.5 -0.8 -0.5 -0.2 0 -0.5 -0.2 -0.8 -0.5 -0.2 0 -0.8 -0.5 -1 -0.8 -1.2 -0.5 -2 -0.8 -2.5 -1.2 -0.2 -0.2 -0.5 -0.5 -0.8 -0.5 -0.2 0 -0.5 -0.2 -0.8 -0.5 -0.2 0 -0.8 -0.5 -1 -0.8 -1.5 -0.5 -2.2 -1 -2.8 -1.5 -0.2 0 -0.5 -0.2 -0.8 -0.2 -0.2 0 -0.5 -0.2 -0.8 -0.5 -0.2 -0.2 -0.5 -0.5 -0.8 -0.5 -0.5 0 -0.8 -0.2 -1 -0.5 -0.2 0 -0.8 -0.5 -1 -0.8 -1.5 -0.5 -2 -1 -2.2 -1.2 -0.2 -0.2 -0.5 -0.5 -0.8 -0.5 -0.2 0 -2 -1 -2.8 -1.8 -0.2 0 -0.5 -0.2 -0.8 -0.2 -0.2 0 -0.5 -0.2 -0.8 -0.5 -0.2 -0.2 -0.8 -0.5 -1 -0.5 -0.2 0 -0.8 -0.2 -0.8 -0.5 -0.2 -0.2 -0.8 -0.5 -1 -0.5 -0.2 0 -0.8 -0.2 -1 -0.5 -0.5 -0.5 -1.2 -0.8 -2.5 -1.2 -0.2 -0.2 -0.8 -0.8 -0.8 -0.8 -0.2 -0.2 -0.5 -0.5 -0.8 -0.5 -0.2 0 -0.5 -0.2 -0.8 -0.2 -0.5 -0.5 -1.2 -1 -2.8 -1.5 -0.2 -0.2 -0.8 -0.8 -1 -0.8 -0.2 -0.2 -0.5 -0.5 -1 -0.5 -0.2 0 -0.5 -0.2 -0.8 -0.5 -0.2 -0.2 -0.5 -0.5 -0.8 -0.5 -0.2 0 -0.8 -0.2 -0.8 -0.5 -0.2 -0.2 -0.8 -0.5 -1 -0.5 0 0 -0.5 -0.2 -0.8 -0.5 -0.2 -0.2 -0.8 -0.5 -1 -0.5 -0.2 0 -0.5 -0.2 -0.8 -0.5 -0.2 -0.2 -0.5 -0.5 -0.8 -0.5 -0.2 0 -0.5 -0.2 -0.8 -0.2 -0.8 -0.8 -2.5 -1.8 -2.8 -1.8 -0.2 0 -0.5 -0.2 -0.8 -0.5 -0.2 -0.2 -0.5 -0.5 -0.8 -0.5 -0.5 0 -1 -0.2 -1 -0.5 -0.2 -0.2 -0.8 -0.5 -1 -0.5 -0.2 0 -0.8 -0.2 -1 -0.5 -0.2 -0.2 -0.5 -0.5 -0.8 -0.5 0 0 -0.5 -0.2 -0.8 -0.5 -0.2 -0.2 -0.8 -0.5 -1 -0.5 -0.2 0 -0.5 -0.2 -0.8 -0.5 -0.2 -0.2 -0.5 -0.5 -0.8 -0.5 -0.2 0 -0.8 -0.2 -0.8 -0.5 -0.2 -0.2 -0.8 -0.5 -1 -0.5 0 0 -0.5 -0.2 -0.8 -0.5 -0.2 -0.2 -0.8 -0.5 -1 -0.5 -0.2 0 -0.5 -0.2 -0.8 -0.5 -0.2 -0.2 -0.8 -0.5 -1 -0.5 0 0 -0.8 -0.5 -1.5 -1 -0.8 -0.5 -1.5 -1 -1.8 -1 -0.2 0 -4.5 -4 -5 -4.8 0 -0.5 -0.5 -1.2 -1 -2 l-0.8 -1.5 0 -98.5 0 -98.2 0.5 -0.8 c0.2 -0.5 0.5 -1 0.5 -1.2 0 -0.2 0.2 -0.8 0.5 -0.8 0.2 -0.2 0.5 -0.8 0.5 -1 0 -0.2 2.8 -3.2 3 -3.2 0.2 0 0.8 -0.5 1.5 -1 0.8 -0.5 1.2 -1 1.5 -1 0.2 0 0.5 -0.2 2 -1.5 0.5 -0.2 0.8 -0.5 1 -0.5 0.2 0 0.8 -0.5 1.5 -1 0.5 -0.5 1.2 -1 1.5 -1 0.5 0 0.8 -0.2 1 -0.5 0.2 -0.2 0.8 -0.5 0.8 -0.5 0.5 0 0.8 -0.2 2.2 -1.5 0.5 -0.2 0.8 -0.5 1 -0.5 0.2 0 0.5 -0.2 0.8 -0.5 0.5 -0.5 1.2 -0.8 2.5 -1.2 0.2 -0.2 0.8 -0.8 1 -0.8 0.2 -0.2 0.5 -0.5 0.8 -0.5 0 0 0.8 -0.5 1.5 -1 0.8 -0.5 1.5 -1 1.8 -1 0.2 0 0.5 -0.2 0.8 -0.5 0.2 -0.2 0.5 -0.5 0.8 -0.5 0.2 0 0.8 -0.2 1 -0.5 0.2 -0.2 0.8 -0.5 0.8 -0.5 0 0 0.5 -0.2 0.8 -0.5 0.2 -0.2 0.8 -0.5 1 -0.5 0.2 0 0.5 -0.2 0.8 -0.5 0 0 0.5 -0.5 0.8 -0.8 1.2 -0.5 2 -0.8 2.5 -1.2 0.2 -0.2 0.8 -0.5 1 -0.5 0.5 -0.2 0.8 -0.2 0.8 -0.5 0 -0.2 0.2 -0.5 0.8 -0.8 1.2 -0.5 2 -0.8 2.5 -1.2 0.2 -0.2 0.5 -0.5 0.8 -0.5 0.2 0 0.5 -0.2 0.8 -0.5 0.5 -0.5 1.2 -0.8 2.5 -1.2 0.2 -0.2 0.8 -0.8 0.8 -0.8 0.2 -0.2 0.5 -0.5 0.8 -0.5 0.2 0 0.8 -0.2 1.2 -0.5 1.5 -1.2 1.8 -1.5 2.2 -1.5 0.2 0 0.5 -0.2 0.8 -0.5 0.2 -0.2 0.5 -0.5 0.5 -0.5 0.2 0 0.8 -0.2 1 -0.5 0.5 -0.2 0.8 -0.5 1 -0.5 0.2 0 0.8 -0.2 0.8 -0.5 0.2 -0.2 0.8 -0.5 1 -0.5 0.2 0 0.5 -0.2 0.8 -0.5 0.2 -0.2 0.5 -0.5 0.8 -0.5 0.2 0 1 -0.5 1.8 -1 0.8 -0.5 1.2 -1 1.5 -1 0.2 0 0.5 -0.2 0.8 -0.5 0.5 -0.5 1.2 -0.8 2.5 -1.2 0.2 -0.2 0.8 -0.8 0.8 -0.8 0.2 -0.2 0.5 -0.5 0.8 -0.5 0.2 0 0.8 -0.2 1 -0.5 0.5 -0.5 1.2 -0.8 2.5 -1.2 0.2 -0.2 0.8 -0.8 1 -0.8 0.2 -0.2 0.5 -0.5 0.8 -0.5 0.2 0 0.5 -0.2 0.8 -0.5 0.2 0 0.8 -0.5 1 -0.8 1.2 -0.5 2 -0.8 2.5 -1.2 0.2 -0.2 0.5 -0.5 0.8 -0.5 0.2 0 0.8 -0.2 0.8 -0.5 0.2 -0.2 0.8 -0.5 0.8 -0.5 0.2 0 0.5 -0.2 0.8 -0.5 0.2 -0.2 0.8 -0.5 1 -0.5 0.2 0 0.5 -0.2 0.8 -0.5 0.2 -0.2 0.5 -0.5 0.8 -0.5 0.5 0 1 -0.2 1 -0.5 0.2 -0.2 0.8 -0.5 0.8 -0.5 0.2 0 0.8 -0.2 1 -0.5 0 -0.2 0.5 -0.5 0.8 -0.5 0.2 0 0.5 -0.2 0.8 -0.5 0.2 -0.2 0.5 -0.5 0.8 -0.5 0.2 0 0.8 -0.2 1 -0.5 0.2 -0.2 0.8 -0.5 0.8 -0.5 0 0 0.5 -0.2 0.8 -0.5 0.2 -0.2 0.8 -0.5 1 -0.5 0.2 0 0.5 -0.2 0.8 -0.5 0.2 -0.2 0.5 -0.5 0.8 -0.5 0.2 0 0.8 -0.2 0.8 -0.5 0.2 -0.2 0.8 -0.5 1 -0.5 0.2 0 0.5 0 0.8 -0.2 0 -0.2 0.5 -0.5 1 -0.8 0.2 0 0.8 -0.2 0.8 -0.5 0 0 0.5 -0.2 1 -0.5 0.2 -0.2 0.8 -0.5 0.8 -0.5 0 -0.2 0.2 -0.2 0.5 -0.5 0.5 0 1 -0.2 1.2 -0.5 0.2 -0.2 0.5 -0.5 0.8 -0.5 0.2 0 0.5 -0.2 0.8 -0.5 0 0 0.5 -0.5 0.8 -0.8 0.5 0 1.2 -0.5 1.8 -0.8 0.2 -0.2 1 -0.8 1.5 -0.8 0.2 -0.2 0.8 -0.5 1 -0.8 0 -0.2 0.5 -0.5 0.8 -0.8 1.2 -0.5 2 -0.8 2.5 -1.2 0.2 -0.2 0.8 -0.5 1 -0.5 0.2 0 0.5 -0.2 0.8 -0.5 0.2 -0.2 0.5 -0.5 0.8 -0.5 0.2 0 0.8 -0.2 1 -0.5 1 -0.5 1.5 -1 2.5 -1.2 0.2 -0.2 0.8 -0.8 1 -0.8 0.2 -0.2 0.5 -0.5 0.5 -0.5 0.5 0 0.8 -0.2 2.2 -1.5 0.5 -0.2 1 -0.5 1 -0.5 0.2 0 0.8 -0.2 1 -0.5 0.2 -0.2 0.5 -0.5 1 -0.5 0.2 0 0.8 -0.2 0.8 -0.5 0.2 -0.2 0.8 -0.5 0.8 -0.5 0.2 0 0.5 -0.2 0.8 -0.5 0.2 -0.2 0.8 -0.5 1 -0.5 0.2 0 0.5 -0.2 0.8 -0.5 0.2 -0.2 0.5 -0.5 0.8 -0.5 0.2 0 0.8 -0.2 1 -0.5 0.5 -0.5 1.2 -0.8 2.5 -1.2 0.5 -0.2 0.8 -0.5 0.8 -0.8 0 -0.2 0.2 -0.2 0.8 -0.5 0.2 0 0.8 -0.2 1 -0.5 0.5 -0.5 1.2 -0.8 2.5 -1.2 0.2 -0.2 0.8 -0.8 1 -0.8 0.2 -0.2 0.5 -0.5 0.8 -0.5 0.2 0 0.5 -0.2 0.8 -0.5 0.2 0 0.8 -0.5 1 -0.8 1.2 -0.5 1.8 -0.8 2.2 -1.2 0.2 -0.2 0.8 -0.5 1 -0.5 0.2 0 0.8 -0.2 1 -0.5 0.2 -0.2 0.5 -0.5 0.8 -0.5 0.2 0 0.5 -0.2 0.8 -0.2 0.8 -0.8 2.5 -1.8 2.8 -1.8 0.2 0 0.5 -0.2 0.8 -0.5 0.2 -0.2 0.5 -0.5 0.8 -0.5 0.5 0 0.8 -0.2 2.2 -1.5 0.5 -0.2 1 -0.5 1.2 -0.5 0.2 0 0.5 -0.2 0.8 -0.5 0.2 -0.2 0.5 -0.5 0.8 -0.5 0.2 0 0.8 -0.2 1.2 -0.5 1.5 -1.2 1.8 -1.5 2.2 -1.5 0.2 0 0.8 -0.2 1 -0.5 0 -0.2 0.5 -0.5 0.8 -0.5 0.2 0 0.5 -0.2 0.8 -0.5 0.2 0 0.8 -0.5 1 -0.8 0.5 0 1 -0.2 1.2 -0.5 0.2 -0.2 0.8 -0.2 1 -0.5 0.2 -0.2 0.8 -0.5 1.2 -0.5 0.2 -0.2 0.8 -0.8 1 -0.8 0.2 -0.2 0.5 -0.5 0.8 -0.5 0.5 0 1 -0.2 1.2 -0.5 0.2 -0.2 1 -0.5 1.5 -0.5 0.5 0 1.2 -0.2 1.8 -0.5 1.5 -0.5 4 -0.8 5.5 0 1 0.2 2 0.5 2.5 0.5 0.2 0 1 0.2 1.2 0.5 0.5 0.2 1.8 1 3.5 1.8 0.2 0.2 1 0.5 1.8 0.8 0.5 0.5 1 0.8 1.2 1 1 0.2 1.2 0.5 2.8 1.2 0.2 0.2 0.8 0.5 1.2 0.8 0.5 0 1 0.5 1.2 0.8 0.2 0 0.5 0.2 0.8 0.2 0.2 0 0.8 0.2 1 0.5 0 0.2 0.5 0.5 1 0.5 0.2 0 0.8 0.2 1 0.5 0 0.2 0.5 0.5 1 0.5 0.2 0 0.8 0.2 1 0.5 0 0.2 0.5 0.5 0.8 0.5 0.2 0 0.8 0.2 1 0.5 0 0.2 0.8 0.5 1 0.5 0.5 0 0.8 0.2 1 0.5 0.2 0.2 0.5 0.5 0.8 0.5 0.5 0 1 0.2 1.2 0.5 0 0.2 0.5 0.5 1 0.5 0.2 0 0.8 0.2 1 0.5 0 0.2 0.5 0.5 1 0.5 0.2 0 0.5 0.2 0.8 0.5 0.2 0 0.8 0.5 1 0.8 0.5 0 1 0.2 1.2 0.5 0.2 0 0.8 0.2 1 0.5 0.5 0.2 0.8 0.2 2 1 0.2 0.2 0.8 0.5 1.2 0.8 0.5 0 1 0.5 1.2 0.8 0.2 0 0.5 0.2 0.8 0.2 0.2 0 0.5 0.2 1 0.5 0.2 0.2 0.8 0.5 1 0.5 0.2 0 0.5 0.2 0.8 0.2 0 0.2 0.5 0.5 1 0.8 0.5 0.2 1 0.5 1 0.8 0.2 0 0.5 0.2 0.8 0.2 0.5 0 0.8 0.2 1 0.5 0.2 0 0.8 0.5 1 0.8 1.5 0.5 2.2 1 2.8 1.5 0.2 0 0.5 0.2 0.8 0.2 0.2 0 0.5 0.2 1 0.5 0.2 0.2 0.8 0.5 1 0.5 0.2 0 0.8 0.2 1 0.5 0 0.2 0.5 0.5 0.8 0.5 0.2 0 0.8 0.2 1 0.5 0.2 0.2 0.5 0.5 0.8 0.5 0.2 0 0.5 0.2 0.8 0.2 0.2 0.2 0.8 0.8 1.2 0.8 0.5 0.2 1 0.5 1.2 0.8 1.2 0.5 1.5 0.8 2 1 0.2 0.2 1 0.5 1.2 0.8 0.2 0.2 0.8 0.5 1 0.5 0.2 0 0.5 0.2 0.8 0.5 0.2 0.2 0.5 0.5 1 0.5 0.2 0 0.8 0.2 1 0.5 0.2 0.2 0.5 0.5 1 0.5 0.2 0 0.5 0.2 0.8 0.5 0.2 0 0.8 0.5 1 0.8 1.5 0.5 2.2 1 2.8 1.5 0.2 0 0.5 0.2 0.8 0.2 0.2 0 0.8 0.2 1 0.5 0 0.2 0.5 0.5 1 0.5 0.2 0 0.5 0.2 0.8 0.5 0.2 0.2 0.5 0.5 0.8 0.5 0.5 0 1 0.2 1.2 0.5 0 0.2 0.5 0.5 1 0.5 0.2 0 0.8 0.2 1 0.5 0 0.2 0.5 0.5 0.8 0.5 0.2 0 0.8 0.2 1 0.5 0 0.2 0.5 0.5 0.8 0.5 0.2 0 0.5 0.2 1 0.5 0.2 0.2 0.8 0.5 1 0.5 0.2 0 0.5 0.2 1 0.5 0.2 0.2 0.8 0.5 0.8 0.5 0.2 0 0.8 0.2 1 0.5 0.2 0.2 0.8 0.5 1 0.5 0.2 0 0.5 0.2 0.8 0.5 0.2 0.2 0.8 0.5 1 0.5 0.2 0 0.8 0.2 1 0.5 0 0.2 0.5 0.5 0.8 0.5 0.2 0 0.8 0.2 1 0.5 0.5 0.5 1.2 0.8 2.5 1.2 0.2 0.2 0.8 0.8 1 0.8 0.2 0.2 0.5 0.5 0.8 0.5 0.2 0 0.8 0.2 1 0.5 0.2 0.2 0.8 0.5 1 0.5 0.5 0 0.8 0.2 1 0.5 0.2 0.2 0.5 0.5 0.8 0.5 0.2 0 0.8 0.2 1 0.5 0.5 0.2 1.2 0.8 2.2 1.2 0.2 0.2 1 0.5 1.2 0.8 0.2 0.2 0.8 0.5 1 0.5 0.2 0 0.8 0.2 1 0.5 0 0.2 0.5 0.5 1 0.5 0.2 0 0.5 0.2 0.8 0.5 0.2 0.2 0.5 0.5 0.8 0.5 0.5 0 1 0.2 1.2 0.5 0 0.2 0.5 0.5 0.8 0.5 0 0 0.5 0.2 0.8 0.5 0.5 0.2 1 0.5 1.2 0.5 0.2 0 0.8 0.2 1 0.5 0 0.2 0.5 0.5 0.8 0.5 0.2 0 0.5 0.2 1 0.5 0.2 0.2 0.8 0.5 0.8 0.5 0.2 0 0.8 0.2 1 0.5 0 0.2 0.5 0.5 0.8 0.5 0.2 0 0.8 0.2 1 0.5 0.2 0.2 0.8 0.5 1 0.5 0.2 0 0.5 0.2 0.8 0.5 0.2 0 0.8 0.5 1 0.8 0.5 0 1 0.2 1.2 0.5 0.2 0.2 0.8 0.2 1 0.5 0.2 0.2 0.8 0.5 1.2 0.5 0.2 0.2 0.8 0.8 0.8 0.8 0.2 0.2 0.5 0.5 0.8 0.5 0.8 0 3.5 2.5 4.5 4 1 1 1 2.8 0.2 3.5 -0.2 0.5 -0.5 0.8 -0.5 0.8 0 0.5 -1.5 2.5 -2 2.8 -0.8 0.2 -1 0.8 -1.8 1.5 -0.5 0.2 -1 0.5 -1.2 0.5 -0.5 0.2 -0.8 0.2 -0.8 0.5 0 0 -0.2 0.2 -0.8 0.5 -0.5 0.2 -0.8 0.5 -0.8 0.5 0 0 -0.5 0.2 -0.8 0.5 -0.5 0.2 -1 0.5 -1 0.5 0 0.2 -0.8 0.8 -2.2 1.2 -0.2 0.2 -0.8 0.8 -1 0.8 -0.2 0.2 -0.5 0.5 -0.8 0.5 -0.2 0 -0.8 0.2 -1 0.5 -0.2 0.2 -1.2 1 -2.5 1.5 -0.2 0 -0.5 0.5 -0.8 0.5 -0.2 0.2 -0.5 0.5 -1 0.5 -0.2 0 -0.5 0.2 -0.8 0.5 -0.2 0.2 -0.5 0.5 -0.5 0.5 -0.2 0 -0.8 0.2 -1 0.5 0 0.2 -0.5 0.5 -0.8 0.5 0 0 -0.5 0.2 -0.8 0.5 0 0.2 -0.5 0.5 -0.8 0.5 -0.2 0 -1 0.5 -1.8 1 -0.8 0.5 -1.5 1 -1.5 1 -0.2 0 -0.5 0.2 -0.8 0.5 -0.5 0.5 -1.2 0.8 -2.5 1.2 -0.2 0.2 -0.8 0.8 -1 0.8 -0.2 0.2 -0.5 0.5 -0.8 0.5 -0.2 0 -0.5 0.2 -0.8 0.5 -0.5 0.5 -1.2 0.8 -2.5 1.2 -0.2 0.2 -0.8 0.8 -0.8 0.8 -0.2 0.2 -0.5 0.5 -0.8 0.5 -0.2 0 -2 1 -2.8 1.8 -0.2 0 -0.5 0.2 -0.8 0.2 -0.2 0 -0.5 0.2 -0.8 0.5 0 0 -0.5 0.5 -0.8 0.8 -1.2 0.5 -2 0.8 -2.5 1.2 -0.2 0.2 -0.8 0.5 -1 0.8 -0.2 0 -1 0.5 -1.5 0.8 -0.8 0.5 -1.5 0.8 -1.8 1 -0.2 0 -0.5 0.5 -0.5 0.5 0 0.2 -0.2 0.8 -0.5 1 -0.2 0 -0.5 0.5 -0.5 0.8 0 0 -0.2 0.5 -0.5 0.8 -0.8 0.8 -0.8 23 0 24.8 0.2 0.5 0.5 1 0.5 1.2 0 0.5 2.2 3 2.8 3 0 0 0.2 0.2 0.5 0.5 0.2 0.2 0.8 0.5 1 0.5 0.2 0 0.8 0.2 1 0.5 0 0.2 0.5 0.5 0.8 0.5 0.2 0 0.8 0.2 0.8 0.5 0.2 0.2 0.8 0.5 1.2 0.5 0.2 0 0.8 0.2 1 0.5 0 0.2 0.5 0.5 0.8 0.5 0.2 0 0.8 0.2 1 0.5 0 0.2 0.5 0.5 0.8 0.5 0 0 0.5 0.2 0.8 0.5 0 0.2 0.5 0.5 0.8 0.5 0.2 0 0.8 0.2 0.8 0.5 0.2 0.2 0.8 0.5 1 0.5 0.2 0 0.5 0.2 0.8 0.2 0.5 0.5 1.2 1 2.8 1.8 0.5 0 1 0.5 1.2 0.8 0.2 0 0.5 0.2 0.8 0.2 0.2 0 0.8 0.2 1 0.5 0 0.2 0.5 0.5 0.8 0.5 0.2 0 0.8 0.2 1 0.5 0 0.2 0.5 0.5 0.8 0.5 0.2 0 0.8 0.2 1 0.5 1 0.5 1.5 1 2.5 1.2 0.2 0.2 0.8 0.8 1 0.8 0.2 0.2 0.5 0.5 0.8 0.5 0.2 0 0.8 0.2 1 0.5 0.2 0.2 0.5 0.5 1 0.5 0.2 0 0.8 0.2 1 0.5 0 0.2 0.5 0.5 0.8 0.5 0.2 0 0.8 0.2 1 0.5 1 0.5 1.5 1 2.5 1.2 0.2 0.2 0.8 0.8 1 0.8 0.2 0.2 0.5 0.5 1 0.5 0.2 0 0.5 0.2 0.8 0.5 0.2 0.2 0.5 0.5 0.8 0.5 0.2 0 0.8 0.2 1 0.5 0.5 0.5 1.2 0.8 2.5 1.2 0.2 0.2 0.8 0.8 1 0.8 0.2 0.2 0.5 0.5 0.8 0.5 0.2 0 0.8 0.2 1 0.5 0 0.2 0.5 0.5 1 0.5 0.2 0 0.8 0.2 1 0.5 0 0.2 0.5 0.5 0.8 0.5 0 0 0.5 0.2 0.8 0.5 0.5 0.2 0.8 0.5 1 0.5 0.2 0 0.8 0.2 0.8 0.5 0.2 0.2 0.8 0.5 1 0.5 0.2 0 0.5 0.2 0.8 0.5 0.2 0.2 0.5 0.5 0.8 0.5 0.2 0 0.5 0.2 0.8 0.2 0.2 0.5 1 0.8 2.5 1.5 0.2 0.2 1 0.5 1.2 0.8 0.2 0.2 0.8 0.5 1 0.5 0.2 0 0.5 0.2 0.8 0.5 0.2 0.2 0.5 0.5 0.8 0.5 0.2 0 0.8 0.2 1 0.5 0.5 0.2 1.2 0.8 2.2 1.2 0.2 0.2 1 0.5 1.2 0.8 0.2 0.2 0.8 0.5 1 0.5 0.2 0 0.5 0.2 0.8 0.5 0.2 0.2 0.5 0.5 0.8 0.5 0.5 0 0.8 0.2 1 0.5 0.2 0 0.8 0.5 1 0.8 1.2 0.5 2 0.8 2.5 1.2 0.2 0.2 0.8 0.5 1 0.5 0.2 0 0.5 0.2 0.8 0.5 0.2 0.2 0.5 0.5 0.8 0.5 0.2 0 0.8 0.2 1 0.5 0.2 0.2 0.5 0.5 0.8 0.5 0 0 0.5 0.2 0.8 0.5 0.2 0.2 0.8 0.5 1 0.5 0.2 0 0.8 0.2 1 0.5 0 0.2 0.5 0.5 1 0.5 0.2 0 0.5 0.2 0.8 0.5 0.2 0.2 0.5 0.5 0.8 0.5 0.2 0 0.8 0.2 1 0.5 0 0.2 0.5 0.5 0.8 0.5 0.2 0 0.5 0.2 1 0.5 0.2 0.2 0.8 0.5 1 0.5 0 0 0.2 0.2 0.5 0.5 0.2 0.2 0.5 0.5 0.8 0.5 0.5 0 0.8 0.2 1 0.5 0.2 0 0.8 0.5 1 0.8 3 1.2 5.2 4.2 5.2 6.2 0 1.5 -1.8 4.5 -2.8 4.5 0 0 -0.2 0.2 -0.5 0.5 -0.2 0.2 -0.8 0.5 -1 0.5 -0.2 0 -0.5 0.2 -0.8 0.5 0 0 -0.5 0.5 -0.8 0.8 -1.5 0.5 -2 1 -2.2 1.2 -0.2 0.2 -0.5 0.5 -0.8 0.5 -0.2 0 -0.5 0.2 -0.8 0.2 -0.2 0.2 -0.8 0.8 -1.2 0.8 -1.2 0.8 -2 1 -2.5 1.5 -0.2 0.2 -0.5 0.5 -0.8 0.5 -0.2 0 -0.8 0.2 -1 0.5 0 0.2 -0.5 0.5 -0.8 0.5 0 0 -0.2 0.2 -0.5 0.2 0 0.2 -0.2 0.5 -0.5 0.8 -0.5 0 -0.8 0.2 -1 0.5 -0.5 0.5 -1.2 0.8 -2.5 1.2 -0.2 0.2 -0.8 0.8 -1 0.8 -0.2 0.2 -0.5 0.5 -0.8 0.5 -0.2 0 -0.5 0.2 -0.8 0.5 -0.2 0 -0.8 0.5 -1 0.8 -1.2 0.5 -2 0.8 -2.5 1.2 -0.2 0.2 -0.8 0.5 -1 0.5 -0.2 0 -0.5 0.2 -0.8 0.5 -0.2 0.2 -0.5 0.5 -0.8 0.5 -0.2 0 -0.8 0.2 -1 0.5 -1 0.8 -1.5 1 -2.5 1.2 -0.2 0.2 -0.8 0.8 -0.8 0.8 -0.2 0.2 -0.5 0.5 -0.8 0.5 -0.5 0 -0.8 0.2 -1 0.5 -0.2 0 -0.8 0.5 -1 0.8 -1.5 0.5 -2.2 1 -2.2 1.2 0 0.2 -0.2 0.5 -0.8 0.8 -1.2 0.5 -2 0.8 -2.5 1.2 -0.2 0.2 -0.5 0.5 -0.8 0.5 -0.2 0 -0.5 0.2 -0.8 0.5 -0.2 0 -0.8 0.5 -1 0.8 -1.2 0.5 -2 0.8 -2.5 1.2 -0.2 0.2 -0.5 0.5 -0.8 0.5 -0.2 0 -0.8 0.5 -1.5 1 -0.8 0.5 -1.5 1 -1.8 1 -0.2 0 -0.5 0.2 -0.8 0.5 -0.2 0.2 -0.5 0.5 -0.8 0.5 -0.2 0 -0.5 0.2 -0.8 0.2 -0.8 0.8 -2.5 1.8 -2.8 1.8 -0.2 0 -0.5 0.2 -0.8 0.5 -0.2 0.2 -0.8 0.8 -2.2 1.2 -0.5 0.2 -0.8 0.5 -0.8 0.8 0 0.2 -0.2 0.2 -0.8 0.5 -0.2 0 -0.8 0.2 -1 0.5 -0.5 0.5 -1.2 0.8 -2.5 1.2 -0.2 0.2 -0.8 0.8 -0.8 0.8 -0.2 0.2 -0.5 0.5 -0.8 0.5 -0.2 0 -0.8 0.2 -1 0.5 -0.2 0.2 -0.8 0.5 -1 0.5 -0.2 0.2 -0.5 0.2 -0.5 0.5 0 0 -0.5 0.2 -0.8 0.5 -0.5 0.2 -1 0.5 -1 0.8 -0.2 0 -0.5 0.2 -0.8 0.2 -0.2 0 -0.8 0.2 -0.8 0.5 -0.2 0.2 -0.8 0.5 -1 0.5 0 0 -0.5 0.2 -0.8 0.5 0 0.2 -0.5 0.5 -0.8 0.5 -0.2 0 -0.5 0.2 -0.8 0.5 -0.5 0.5 -1.2 0.8 -2.5 1.2 -0.2 0.2 -0.8 0.8 -1 0.8 -0.2 0.2 -0.5 0.5 -0.8 0.5 -0.2 0 -0.8 0.5 -1.5 1 -0.8 0.5 -1.2 1 -1.5 1 -0.2 0 -0.5 0.2 -0.8 0.5 -0.5 0.5 -1.2 0.8 -2.5 1.2 -0.2 0.2 -0.8 0.8 -0.8 0.8 -0.2 0.2 -0.5 0.5 -0.8 0.5 -0.2 0 -0.8 0.2 -1 0.5 -0.5 0.5 -1.2 0.8 -2.5 1.2 -0.2 0.2 -0.8 0.8 -0.8 0.8 -0.2 0.2 -0.2 0.5 -0.5 0.5 -0.2 0 -2.2 1.2 -3 2 -1.5 2 -1.5 1.2 -1.5 14 l0 11.5 0.8 1.2 c0.2 0.5 0.8 1.2 1 1.2 0.5 0 0.8 0.5 1 0.5 0.2 0.2 0.5 0.5 0.5 0.5 0.2 0 0.8 0.2 0.8 0.5 0.2 0.2 0.8 0.5 1 0.5 0.2 0 0.5 0.2 0.8 0.5 0.5 0.5 1.2 0.8 2.5 1.2 0.2 0.2 0.8 0.8 1 0.8 0.2 0.2 0.5 0.5 0.8 0.5 0.2 0 0.8 0.2 1 0.5 0.2 0.2 0.5 0.5 0.8 0.5 0.5 0 0.8 0.2 2.2 1.5 0.5 0.2 1 0.5 1.2 0.5 0.2 0 0.5 0.2 0.8 0.5 0.2 0.2 0.5 0.5 1 0.5 0.5 0 0.8 0.2 1 0.5 0.2 0.2 0.5 0.5 0.8 0.5 0.5 0 0.8 0.2 1 0.5 0.2 0 0.8 0.5 1 0.8 1.2 0.5 2 0.8 2.5 1.2 0.2 0.2 0.5 0.5 0.8 0.5 0.2 0 0.8 0.2 1 0.5 0.2 0.2 0.5 0.5 0.8 0.5 0.2 0 0.8 0.2 1 0.5 0.5 0.5 1.2 0.8 2.5 1.2 0.2 0.2 0.8 0.8 1 0.8 0.2 0.2 0.5 0.5 0.8 0.5 0.5 0 1 0.2 1.2 0.5 0 0.2 0.5 0.5 0.8 0.5 0.2 0 0.5 0.2 0.8 0.5 0.2 0 0.8 0.5 1 0.8 1 0.2 1.5 0.8 2.5 1.2 0.2 0.2 0.8 0.5 1 0.5 0.2 0 0.5 0.2 0.8 0.5 0.2 0.2 0.5 0.5 0.8 0.5 0.2 0 0.5 0.2 0.8 0.2 0.8 0.5 2.2 1.8 3 1.8 0.2 0.2 0.5 0.5 0.5 0.5 0 0.2 0.8 0.8 2.2 1.2 0.2 0.2 0.8 0.8 0.8 0.8 0.2 0.2 0.2 0.5 0.5 0.5 0.5 0 2.5 1.5 3.5 2.8 1.8 2 1.2 6.5 -1 7.2 -0.5 0.2 -0.8 0.5 -1.8 1.2 -0.5 0.5 -1.5 1.2 -2.8 1.8 -0.2 0 -0.5 0.5 -0.8 0.5 -0.2 0.2 -0.5 0.5 -1 0.5 -0.2 0 -0.5 0.2 -0.8 0.5 -0.2 0.2 -0.8 0.8 -2.2 1.2 -0.2 0.2 -0.8 0.5 -0.8 0.8 -0.2 0.2 -0.8 0.5 -1 0.8 -1.2 0.5 -2 0.8 -2.5 1.2 -0.2 0.2 -0.5 0.5 -0.8 0.5 -0.2 0 -0.5 0.2 -0.8 0.5 0 0 -0.5 0.5 -0.8 0.8 -1.2 0.5 -2 0.8 -2.5 1.2 -0.2 0.2 -0.8 0.5 -1 0.5 -0.2 0 -0.5 0.2 -0.8 0.5 0 0 -0.5 0.5 -0.8 0.8 -1.2 0.5 -2 0.8 -2.5 1.2 -0.2 0.2 -0.8 0.5 -1 0.5 -0.2 0 -0.5 0.2 -0.8 0.5 0 0 -0.5 0.5 -0.8 0.8 -1.2 0.5 -2 0.8 -2.5 1.2 -0.2 0.2 -0.8 0.5 -1 0.5 -0.2 0 -0.5 0.2 -0.8 0.5 -0.2 0.2 -0.5 0.5 -0.8 0.5 -0.5 0 -0.8 0.2 -2.2 1.5 -0.5 0.2 -0.8 0.5 -1 0.5 -0.2 0 -0.5 0.2 -0.8 0.5 -0.5 0.5 -1.2 0.8 -2.5 1.2 -0.2 0.2 -0.8 0.8 -0.8 0.8 -0.2 0.2 -0.5 0.5 -0.8 0.5 -0.2 0 -0.8 0.2 -1.2 0.5 -1.5 1.2 -1.8 1.5 -2.2 1.5 -0.2 0 -0.5 0.2 -0.8 0.5 -0.2 0.2 -0.5 0.5 -0.8 0.5 -0.2 0 -0.5 0.2 -0.8 0.2 -0.2 0.2 -0.8 0.8 -1.2 0.8 -1.2 0.8 -2 1 -2.5 1.5 -0.2 0.2 -0.5 0.5 -0.8 0.5 -0.2 0 -0.5 0.2 -0.8 0.5 -0.2 0 -0.8 0.5 -1 0.8 -1.5 0.5 -2 1 -2.2 1.2 -0.2 0.2 -0.5 0.5 -0.8 0.5 -0.2 0 -0.8 0.2 -1 0.5 -0.5 0.2 -0.8 0.5 -1 0.5 0 0 -0.5 0.2 -0.5 0.5 -0.2 0.2 -0.8 0.5 -1 0.5 -0.2 0 -0.5 0.2 -0.8 0.5 -0.2 0.2 -0.5 0.5 -0.8 0.5 -0.2 0 -0.8 0.2 -1 0.5 -0.2 0.2 -1 0.5 -1.2 0.8 -1 0.5 -1.8 1 -2.2 1.2 -0.2 0.2 -0.8 0.5 -1 0.5 -0.2 0 -0.5 0.2 -0.8 0.5 -0.2 0.2 -0.5 0.5 -0.8 0.5 -0.5 0 -0.8 0.2 -2.2 1.5 -0.5 0.2 -1 0.5 -1.2 0.5 -0.2 0 -0.5 0.2 -0.8 0.5 -0.2 0.2 -0.5 0.5 -0.8 0.5 -0.5 0 -0.8 0.2 -2.2 1.5 -0.2 0.2 -1 0.5 -1.2 0.5 -0.5 0.2 -0.8 0.2 -0.8 0.5 0 0.2 -0.2 0.5 -0.8 0.8 -1.2 0.5 -2 0.8 -2.5 1.2 -0.2 0.2 -0.8 0.5 -1 0.5 -0.2 0 -0.5 0.2 -0.8 0.5 -0.2 0.2 -0.5 0.5 -0.8 0.5 -0.2 0 -1 0.5 -1.8 1 -0.8 0.5 -1.5 1 -1.5 1 -0.2 0 -0.5 0.2 -0.8 0.5 -0.2 0 -0.8 0.5 -1 0.8 -1.2 0.5 -2 0.8 -2.5 1.2 -0.2 0.2 -0.5 0.5 -0.8 0.5 -0.2 0 -0.5 0.2 -0.8 0.5 -0.5 0.5 -1.2 0.8 -2.5 1.2 -0.2 0.2 -0.8 0.8 -1 0.8 -0.2 0.2 -0.5 0.5 -1 0.5 -0.2 0 -0.5 0.2 -0.8 0.5 0 0 -0.5 0.5 -0.8 0.8 -1.5 0.5 -2 1 -2.2 1.2 -0.2 0.2 -0.5 0.5 -0.8 0.5 -0.2 0 -2 1 -2.8 1.8 -0.2 0 -0.5 0.2 -0.8 0.2 -0.2 0 -0.5 0.2 -0.8 0.5 0 0 -0.5 0.5 -0.8 0.8 -1.2 0.5 -2 0.8 -2.5 1.2 -0.2 0.2 -0.5 0.5 -0.8 0.5 -0.2 0 -0.8 0.2 -0.8 0.5 -0.2 0.2 -0.8 0.5 -1 0.5 -0.5 0 -0.8 0.2 -2.2 1.5 -0.5 0.2 -0.8 0.5 -1 0.5 -0.2 0 -0.5 0.2 -0.8 0.5 -0.2 0 -0.8 0.5 -1 0.8 -1.2 0.5 -2 0.8 -2.5 1.2 -0.2 0.2 -0.8 0.5 -1 0.5 -0.2 0 -0.5 0.2 -0.8 0.5 -0.2 0.2 -0.5 0.5 -0.8 0.5 -0.2 0 -1 0.5 -1.8 1 -0.8 0.5 -1.5 1 -1.8 1 -0.2 0 -0.5 0.2 -0.8 0.5 0 0 -0.5 0.5 -0.8 0.8 -0.5 0 -1 0.2 -1.2 0.5 -0.2 0.2 -0.8 0.2 -1 0.5 -0.2 0.2 -0.8 0.5 -1.2 0.5 -0.2 0.2 -0.8 0.8 -0.8 0.8 -0.2 0.2 -0.5 0.5 -0.8 0.5 -0.5 0 -1 0.2 -1 0.5 -0.2 0.2 -0.8 0.5 -1 0.5 -0.2 0 -0.8 0.2 -1 0.5 -0.5 0.2 -0.8 0.5 -1 0.5 -0.2 0 -0.8 0.2 -1.2 0.5 -1 0.5 -6.2 0.8 -7.2 0.2z m8.2 -81.2 c0.2 -0.2 0.5 -0.5 1 -0.5 0.5 0 0.8 -0.2 1 -0.5 0.2 -0.2 0.5 -0.5 1 -0.5 0.5 0 0.8 -0.2 1 -0.5 0.2 -0.2 0.5 -0.5 1 -0.5 0.5 0 0.8 -0.2 1 -0.5 0.2 -0.2 0.5 -0.5 1 -0.5 0.5 0 0.8 -0.2 1 -0.5 0 0 0.5 -0.5 0.8 -0.8 1.5 -0.5 2 -1 2.2 -1.2 0.2 -0.2 0.5 -0.5 1 -0.5 0.5 0 0.8 -0.2 1 -0.5 0.2 -0.2 0.5 -0.5 1 -0.5 0.5 0 0.8 -0.2 1 -0.5 0.2 -0.2 0.5 -0.5 1 -0.5 0.5 0 1 -0.2 1.5 -1 0.5 -0.8 1 -1 1.5 -1 0.5 0 0.8 -0.2 1 -0.5 0.2 -0.2 0.5 -0.5 1 -0.5 0.5 0 1 -0.2 1.5 -1 0.5 -0.8 1 -1 1.5 -1 0.5 0 0.8 -0.2 1 -0.5 0.2 -0.2 0.5 -0.5 1 -0.5 0.5 0 0.8 -0.2 1 -0.5 0.2 -0.2 0.5 -0.5 1 -0.5 0.5 0 1 -0.2 1.5 -1 0.5 -0.8 1 -1 1.5 -1 0.5 0 0.8 -0.2 1 -0.5 0.2 -0.2 0.5 -0.5 1 -0.5 0.5 0 0.8 -0.2 1 -0.5 0.2 -0.2 0.5 -0.5 1 -0.5 0.5 0 0.8 -0.2 1 -0.5 0.2 -0.2 0.5 -0.5 0.8 -0.5 0.5 0 1 -0.5 1.8 -1 0.5 -0.5 1.2 -1 1.5 -1 0.5 0 0.8 -0.2 1 -0.5 0.2 -0.2 0.5 -0.5 1 -0.5 0.5 0 0.8 -0.2 1 -0.5 0.2 -0.2 0.5 -0.5 0.8 -0.5 0.5 0 1.2 -0.5 2.2 -1.5 0.2 -0.2 0.8 -0.5 1 -0.5 0.5 0 0.8 -0.2 1 -0.5 0.2 -0.2 0.5 -0.5 1 -0.5 0.5 0 0.8 -0.2 1 -0.5 0.2 -0.2 0.5 -0.5 0.8 -0.5 0.5 0 1 -0.5 1.8 -1 0.5 -0.5 1.2 -1 1.5 -1 0.5 0 0.8 -0.2 1 -0.5 0.2 -0.2 0.5 -0.5 1 -0.5 0.5 0 0.8 -0.2 1 -0.5 0.2 -0.2 0.5 -0.5 0.5 -0.5 0.2 0 0.5 -0.2 0.8 -0.5 0.2 -0.2 0.8 -0.5 1 -0.5 0.2 0 0.5 -0.2 0.8 -0.5 0.2 -0.2 0.5 -0.5 1 -0.5 0.5 0 0.8 -0.2 1 -0.5 0.2 -0.2 0.5 -0.5 1 -0.5 0.5 0 0.8 -0.2 1 -0.5 0.2 -0.2 0.5 -0.5 0.8 -0.5 0.5 0 1 -0.5 1.8 -1 0.5 -0.5 1.2 -1 1.5 -1 0.5 0 0.8 -0.2 1 -0.5 0.2 -0.2 0.5 -0.5 1 -0.5 0.5 0 1.2 -0.5 2.5 -2 l0.5 -0.8 0 -12.8 c0 -12.2 0 -12.8 0.5 -13.2 0.2 -0.8 0.5 -1.2 0.5 -2.2 l0 -1.5 1.8 -1.8 c1.2 -1.2 2 -1.8 2.2 -1.8 0.5 0 0.8 -0.2 1 -0.5 0.2 -0.2 0.5 -0.5 0.5 -0.5 0.2 0 0.8 -0.2 1 -0.5 0 -0.2 0.5 -0.5 0.8 -0.5 0.2 0 0.5 -0.2 0.8 -0.5 0.2 -0.2 0.5 -0.5 1 -0.5 0.5 0 0.8 -0.2 1 -0.5 0.2 -0.2 0.8 -0.8 2.2 -1.2 0.2 -0.2 0.8 -0.8 0.8 -0.8 0.2 -0.2 0.5 -0.5 1 -0.5 0.5 0 1 -0.2 1.5 -1 0.5 -0.8 1 -1 1.5 -1 0.5 0 0.8 -0.2 1 -0.5 0.2 -0.2 0.5 -0.5 1 -0.5 0.2 0 1 -0.5 1.5 -1 0.8 -0.5 1.2 -1 1.8 -1 0.2 0 0.5 -0.2 0.8 -0.5 0.2 -0.2 0.5 -0.5 1 -0.5 0.5 0 1 -0.2 1.5 -1 0.5 -0.8 1 -1 1.5 -1 0.5 0 0.8 -0.2 1 -0.5 0.2 -0.2 0.5 -0.5 0.8 -0.5 0.5 0 1.2 -0.5 2.2 -1.5 0.2 -0.2 0.8 -0.5 1 -0.5 0.2 0 0.8 -0.2 1 -0.5 1 -1 1.8 -1.5 2.2 -1.5 0.2 0 0.5 -0.2 0.8 -0.5 0.2 -0.2 0.5 -0.5 1 -0.5 0.5 0 1 -0.2 1.5 -1 0.5 -0.8 1 -1 1.5 -1 0.5 0 0.8 -0.2 1 -0.5 0.2 -0.2 0.5 -0.5 1 -0.5 0.5 0 1 -0.2 1.5 -1 0.5 -0.8 1 -1 1.5 -1 0.5 0 0.8 -0.2 1 -0.5 0.2 -0.2 0.5 -0.5 1 -0.5 0.5 0 1 -0.2 1.5 -1 0.5 -0.8 1 -1 1.5 -1 0.5 0 0.8 -0.2 1 -0.5 0.2 -0.2 0.5 -0.5 0.8 -0.5 0.5 0 1.2 -0.5 2.2 -1.5 0.2 -0.2 0.8 -0.5 1 -0.5 0.5 0 0.8 -0.2 1 -0.5 0.2 -0.2 0.5 -0.5 1 -0.5 0.5 0 1 -0.2 1.5 -1 0.5 -0.8 1 -1 1.5 -1 0.5 0 0.8 -0.2 1 -0.5 0.2 -0.2 0.5 -0.5 1 -0.5 0.5 0 1 -0.2 1.5 -1 0.5 -0.8 1 -1 1.5 -1 0.5 0 0.8 -0.2 1 -0.5 0.2 -0.2 0.5 -0.5 1 -0.5 0.5 0 1 -0.2 1.5 -1 0.5 -0.8 1 -1 1.5 -1 0.5 0 0.8 -0.2 1 -0.5 0.2 -0.2 0.5 -0.5 1 -0.5 0.8 0 4 -3.2 4 -4 0 -0.5 0.2 -0.8 0.5 -1 0.5 -0.2 0.5 -0.5 0.5 -1.5 0 -1 0 -1.2 -0.5 -1.5 -0.2 -0.2 -0.5 -0.5 -0.5 -1 0 -0.5 -2.2 -3 -2.8 -3 -0.2 0 -0.8 -0.2 -0.8 -0.5 -0.2 -0.2 -0.8 -0.5 -1 -0.5 0 0 -0.2 -0.2 -0.5 -0.5 0 0 -0.5 -0.5 -0.8 -0.8 -1.5 -0.5 -2 -1 -2.2 -1.2 -0.2 -0.2 -0.5 -0.5 -1 -0.5 -0.5 0 -0.8 -0.2 -1 -0.5 -0.2 -0.2 -0.5 -0.5 -0.8 -0.5 -0.2 0 -0.8 -0.2 -1 -0.5 0 -0.2 -0.5 -0.5 -0.8 -0.5 0 0 -0.2 -0.2 -0.5 -0.5 -0.2 -0.2 -0.5 -0.5 -1 -0.5 -0.5 0 -0.8 -0.2 -1 -0.5 -0.2 -0.2 -0.5 -0.5 -1 -0.5 -0.5 0 -1 -0.2 -1.5 -1 -0.5 -0.5 -1 -1 -1.5 -1 -0.2 0 -1 -0.5 -1.5 -1 -0.5 -0.5 -1.2 -0.8 -1.5 -1 -0.5 0 -1 -0.2 -1 -0.5 -0.2 -0.2 -0.5 -0.5 -1 -0.5 -0.5 0 -1 -0.2 -1.5 -1 -0.5 -0.8 -1 -1 -1.5 -1 -0.5 0 -0.8 -0.2 -1 -0.5 -0.2 -0.2 -0.5 -0.5 -1 -0.5 -0.5 0 -0.8 -0.2 -1 -0.5 0 -0.2 -0.5 -0.5 -1 -0.5 -0.2 -0.2 -1 -0.5 -1.5 -1 -0.5 -0.8 -1.2 -1 -1.5 -1 -0.5 0 -0.8 -0.2 -1 -0.5 -0.2 -0.2 -0.5 -0.5 -1 -0.5 -0.5 0 -1 -0.2 -1.5 -1 -0.5 -0.8 -1 -1 -1.5 -1 -0.5 0 -0.8 -0.2 -1 -0.5 -0.2 -0.2 -0.5 -0.5 -1 -0.5 -0.5 0 -1 -0.2 -1.5 -1 -0.5 -0.8 -1 -1 -1.5 -1 -0.5 0 -0.8 -0.2 -1 -0.5 -0.2 -0.2 -0.5 -0.5 -1 -0.5 -0.5 0 -1 -0.2 -1.5 -1 -0.5 -0.8 -1 -1 -1.5 -1 -0.5 0 -0.8 -0.2 -1 -0.5 -0.2 -0.2 -0.5 -0.5 -0.8 -0.5 -0.5 0 -1 -0.5 -1.8 -1 -0.5 -0.5 -1.2 -1 -1.5 -1 -0.5 0 -0.8 -0.2 -1 -0.5 -0.2 -0.2 -0.5 -0.5 -1 -0.5 -0.5 0 -1 -0.2 -1.5 -1 -0.5 -0.8 -1 -1 -1.5 -1 -0.5 0 -0.8 -0.2 -1 -0.5 -0.2 -0.2 -0.5 -0.5 -0.8 -0.5 -0.5 0 -1.2 -0.5 -2.2 -1.5 -0.2 -0.2 -0.8 -0.5 -1 -0.5 -0.5 0 -0.8 -0.2 -1 -0.5 -0.2 -0.2 -0.5 -0.5 -1 -0.5 -0.5 0 -0.8 -0.2 -1 -0.5 -0.2 -0.2 -0.5 -0.5 -0.8 -0.5 -0.2 0 -0.8 -0.2 -1 -0.5 -0.2 -0.2 -0.5 -0.5 -0.8 -0.5 0 0 -0.2 -0.2 -0.5 -0.5 -0.2 -0.2 -0.5 -0.5 -1 -0.5 -0.8 0 -4 -3.2 -4 -4 0 -0.5 -0.2 -0.8 -0.5 -1 -0.5 -0.2 -0.5 -0.8 -0.5 -13.5 -0.2 -12 -0.2 -13.5 -0.5 -14.2 -0.5 -0.5 -0.5 -1.2 -0.5 -3.2 0 -2.5 0 -2.8 -0.5 -3 -0.2 -0.2 -0.5 -0.5 -0.5 -1 0 -0.8 -1.2 -2 -2 -2 -0.5 0 -1 -0.5 -1.5 -1 -0.5 -0.8 -1 -1 -1.5 -1 -0.5 0 -0.8 -0.2 -1 -0.5 0 -0.2 -0.5 -0.5 -1 -0.5 -0.2 -0.2 -1 -0.5 -1.5 -1 -0.5 -0.8 -1.2 -1 -1.5 -1 -0.5 0 -0.8 -0.2 -1 -0.5 -0.2 -0.2 -0.5 -0.5 -1 -0.5 -0.5 0 -1 -0.2 -1.5 -1 -0.5 -0.8 -1 -1 -1.5 -1 -0.5 0 -0.8 -0.2 -1 -0.5 -0.2 -0.2 -0.5 -0.5 -1 -0.5 -0.5 0 -0.8 -0.2 -1 -0.5 -0.2 -0.2 -0.5 -0.5 -1 -0.5 -0.5 0 -1 -0.2 -1.5 -1 -0.5 -0.8 -1 -1 -1.5 -1 -0.5 0 -0.8 -0.2 -1 -0.5 -0.2 -0.2 -0.5 -0.5 -1 -0.5 -0.5 0 -0.8 -0.2 -1 -0.5 -0.2 -0.2 -0.5 -0.5 -0.8 -0.5 -0.5 0 -1 -0.5 -1.8 -1 -0.5 -0.5 -1.2 -1 -1.5 -1 -0.2 0 -1 -0.5 -1.5 -1 -0.5 -0.5 -1.2 -0.8 -1.5 -1 -0.5 0 -1 -0.2 -1 -0.5 -0.2 -0.2 -0.5 -0.5 -1 -0.5 -0.5 0 -0.8 -0.2 -1 -0.5 -0.2 -0.2 -0.5 -0.5 -1 -0.5 -0.5 0 -0.8 -0.2 -1 -0.5 -0.2 -0.2 -0.8 -0.8 -2.2 -1.2 -0.2 -0.2 -0.8 -0.8 -0.8 -0.8 -0.2 -0.2 -0.5 -0.5 -1 -0.5 -0.5 0 -0.8 -0.2 -1 -0.5 -0.2 -0.2 -0.5 -0.5 -1 -0.5 -0.5 0 -0.8 -0.2 -1 -0.5 -0.2 -0.2 -0.5 -0.5 -1 -0.5 -0.5 0 -0.8 -0.2 -1 -0.5 0 0 -0.5 -0.5 -0.8 -0.8 -1.5 -0.5 -2 -1 -2.2 -1.2 -0.2 -0.2 -0.5 -0.5 -1 -0.5 -0.5 0 -0.8 -0.2 -1 -0.5 -0.2 -0.2 -0.5 -0.5 -1 -0.5 -0.5 0 -0.8 -0.2 -1 -0.5 -0.2 -0.2 -0.5 -0.5 -1 -0.5 -0.5 0 -0.8 -0.2 -1 -0.5 -0.2 -0.2 -0.5 -0.5 -1 -0.5 -0.5 0 -0.8 -0.2 -1 -0.5 -0.2 -0.2 -0.5 -0.5 -1 -0.5 -0.5 0 -0.8 -0.2 -1 -0.5 -0.2 -0.5 -0.5 -0.5 -1.5 -0.5 -1 0 -1.2 0 -1.5 -0.5 -0.5 -0.8 -6.5 -0.8 -7 0 -0.2 0.5 -0.5 0.5 -1.5 0.5 -1 0 -1.2 0 -1.5 0.5 -0.2 0.2 -0.5 0.5 -1 0.5 -0.5 0 -0.8 0.2 -1 0.5 -0.2 0.2 -0.5 0.5 -1 0.5 -0.5 0 -0.8 0.2 -1 0.5 -0.2 0.2 -0.5 0.5 -1 0.5 -0.5 0 -1 0.2 -1.5 1 -0.5 0.8 -1 1 -1.5 1 -0.5 0 -0.8 0.2 -1 0.5 -0.2 0.2 -0.5 0.5 -1 0.5 -0.5 0 -0.8 0.2 -1 0.5 -0.2 0.2 -0.5 0.5 -1 0.5 -0.5 0 -1 0.2 -1.5 1 -0.5 0.8 -1 1 -1.5 1 -0.5 0 -0.8 0.2 -1 0.5 -0.2 0.2 -0.5 0.5 -1 0.5 -0.5 0 -0.8 0.2 -1 0.5 -0.2 0.2 -0.5 0.5 -1 0.5 -0.5 0 -0.8 0.2 -1 0.5 -0.2 0.2 -0.5 0.5 -1 0.5 -0.5 0 -0.8 0.2 -1 0.5 -0.2 0.5 -0.5 0.5 -1.5 0.5 -1 0 -1.2 0 -1.5 0.5 -0.2 0.5 -0.5 0.5 -1.5 0.5 -1 0 -1.2 0 -1.5 0.5 -0.2 0.2 -0.5 0.5 -1 0.5 -1.5 0.2 -1 0.8 0.5 1 1 0 1.2 0.2 1.5 0.5 0.2 0.2 0.5 0.5 1 0.5 0.5 0 0.8 0.2 1 0.5 0.2 0.2 0.5 0.5 1 0.5 0.5 0 0.8 0.2 1 0.5 0.2 0.2 0.5 0.5 1 0.5 0.2 0 1 0.2 1.2 0.5 0 0.2 0.5 0.5 1 0.5 0.2 0 0.5 0.2 0.8 0.5 0.2 0.2 0.5 0.5 1 0.5 0.2 0 1 0.2 1.5 1 0.5 0.5 1.2 1 1.5 1 0.5 0.2 1.2 0.8 2 1.5 1 1 1.8 1.5 2 1.5 0.5 0 1 0.5 1.5 1 l1 1 23.5 0 c23.5 0 23.8 0 24 0.5 0.2 0.5 0.5 0.5 2 0.5 1.5 0 1.8 0 2 0.5 0.2 0.2 0.5 0.5 1 0.5 0.5 0 1 0.2 1.5 1 0.5 0.5 1 1 1.5 1 0.8 0 3 2.2 3 3 0 0.5 0.5 1 1 1.5 0.8 0.5 1 1 1 1.5 0 0.5 0.2 0.8 0.5 1 0.5 0.2 0.5 0.5 0.5 1.5 0 0.8 0.2 1.2 0.5 1.8 0.5 0.2 0.5 0.8 0.5 5.5 0 4.8 0 5 -0.5 5.2 -0.2 0.2 -0.5 0.5 -0.5 1 0 0.5 -0.2 0.8 -0.5 1 -0.2 0.2 -0.5 0.5 -0.5 1 0 0.5 -0.2 0.8 -0.5 1 -0.2 0.2 -0.5 0.5 -0.5 1 0 0.8 -4.2 5 -5 5 -0.2 0 -1 0.5 -1.5 1 -0.8 0.5 -1.2 1 -1.8 1 -0.2 0 -0.8 0.2 -1 0.5 -0.5 0.5 -1 0.5 -2 0.5 -1.2 0 -1.5 0 -1.8 0.5 -0.2 0.8 -1.8 0.8 -2.5 0 -1 -0.8 -11 -0.8 -12 0 -0.5 0.5 -1 0.5 -20.8 0.5 -16.8 0 -20.2 0 -20.8 0.2 -0.8 0.5 -1.5 0.5 -4.2 0.2 -1.8 -0.2 -5 -0.2 -7.2 -0.5 -3.2 0 -4 -0.2 -4.5 -0.5 -0.2 -0.2 -0.8 -0.5 -1 -0.5 -0.5 0 -0.8 -0.2 -1 -0.5 -0.2 -0.2 -0.5 -0.5 -1 -0.5 -0.2 0 -1 -0.5 -2 -1.5 -0.8 -0.8 -1.8 -1.5 -2 -1.8 -0.5 0 -0.8 -0.5 -1 -0.8 0 -0.2 -0.5 -1 -1 -1.5 -0.8 -0.8 -1 -1.2 -1 -1.5 0 -0.5 -0.2 -0.8 -0.5 -1 -0.2 -0.2 -0.5 -0.5 -0.5 -1 0 -0.5 -0.2 -0.8 -0.5 -1 -0.5 -0.2 -0.5 -0.5 -0.5 -1.8 0 -1.2 0 -1.8 -0.5 -2 -0.8 -0.8 -0.8 -5 0 -5.8 0.2 -0.5 0.5 -1 0.5 -2 0 -1 0 -1.2 0.5 -1.5 0.2 -0.2 0.5 -0.5 0.5 -1 0 -0.5 0.2 -0.8 0.5 -1 0.2 -0.2 0.5 -0.5 0.5 -1 0 -0.8 5.2 -6 6 -6 0.5 0 0.8 -0.2 1 -0.5 0.2 -0.2 0.5 -0.5 1 -0.5 0.5 0 0.8 -0.2 1 -0.5 0.2 -0.2 0.5 -0.5 1 -0.5 0.5 0 0.8 -0.2 1 -0.5 0.2 -0.5 0.5 -0.5 1.5 -0.5 1 0 1.2 0 1.5 -0.5 0.2 -0.2 0.5 -0.5 1.2 -0.5 0.8 0 1.2 -0.2 1.2 -0.5 0 -0.8 -16.2 -0.8 -16.5 0 -0.2 0.2 -0.5 0.5 -1 0.5 -0.5 0 -1 0.2 -1.5 1 -0.5 0.8 -1 1 -1.5 1 -0.5 0 -0.8 0.2 -1 0.5 -0.2 0.2 -0.5 0.5 -1 0.5 -0.5 0 -1 0.2 -1.5 1 -0.5 0.8 -1 1 -1.5 1 -0.5 0 -1 0.2 -1.5 1 -0.5 0.8 -1 1 -1.5 1 -0.5 0 -0.8 0.2 -1 0.5 -0.2 0.2 -0.5 0.5 -1 0.5 -0.5 0 -1 0.2 -1.5 1 -0.5 0.8 -1 1 -1.5 1 -0.5 0 -1 0.2 -1.5 1 -0.5 0.8 -1 1 -1.5 1 -0.5 0 -1 0.2 -1.5 1 -0.5 0.8 -1 1 -1.5 1 -0.5 0 -0.8 0.2 -1 0.5 -0.2 0.2 -0.5 0.5 -1 0.5 -0.5 0 -1 0.2 -1.5 1 -0.5 0.8 -1 1 -1.5 1 -0.5 0 -0.8 0.2 -1 0.5 -0.2 0.2 -0.5 0.5 -1 0.5 -0.5 0 -1 0.2 -1.5 1 -0.5 0.8 -1 1 -1.5 1 -0.5 0 -0.8 0.2 -1 0.5 -0.2 0.2 -0.8 0.8 -2.2 1.2 -0.2 0.2 -0.8 0.8 -0.8 0.8 -0.2 0.2 -0.5 0.5 -1 0.5 -0.5 0 -1 0.2 -1.5 1 -0.5 0.5 -1 1 -1.5 1 -0.8 0 -7 6.2 -7 7 0 0.5 -0.2 0.8 -0.5 1 -0.2 0.2 -0.5 0.5 -0.5 0.5 0 0.2 -0.5 1 -1 2 -0.8 1.2 -1 1.5 -1 2.8 0 1.2 0 1.5 -0.5 1.8 -0.5 0.2 -0.5 0.5 -0.5 3 0 2.5 0 2.8 -0.5 3 -0.8 0.5 -0.8 95.8 0 97.2 0.5 1 0.5 1.5 0.5 4.8 0 3.5 0 3.8 0.5 4 0.5 0.2 0.5 0.5 0.5 2 0 1.5 0 1.8 0.5 2 0.2 0.2 0.5 0.5 0.5 1 0 0.5 0.2 0.8 0.5 1 0.2 0.2 0.5 0.5 0.5 1 0 0.5 0.2 0.8 0.5 1 0.2 0.2 0.5 0.5 0.5 1 0 0.5 0.2 1 1 1.5 0.5 0.5 1 1 1 1.2 0 0.5 1.5 2.2 2 2.2 0.2 0 1.5 1.2 3 2.5 1.8 1.8 2.8 2.5 3 2.5 0.5 0 1 0.5 1.5 1 0.5 0.8 1 1 1.5 1 0.5 0 0.8 0.2 1 0.5 0.2 0.2 0.5 0.5 1 0.5 0.5 0 1 0.2 1.5 1 0.5 0.8 1 1 1.5 1 0.5 0 0.8 0.2 1 0.5 0.2 0.2 0.5 0.5 0.5 0.5 0.2 0 0.8 0.2 1 0.5 0 0.2 0.5 0.5 0.8 0.5 0.2 0 0.5 0.2 0.8 0.5 0.2 0.2 0.5 0.5 1 0.5 0.5 0 1 0.2 1.5 1 0.5 0.8 1 1 1.5 1 0.5 0 0.8 0.2 1 0.5 0.2 0.2 0.5 0.5 1 0.5 0.5 0 1 0.2 1.5 1 0.5 0.8 1 1 1.5 1 0.5 0 0.8 0.2 1 0.5 0.2 0.2 0.5 0.5 1 0.5 0.5 0 1 0.2 1.5 1 0.5 0.8 1 1 1.5 1 0.5 0 1 0.2 1.5 1 0.5 0.8 1 1 1.5 1 0.5 0 0.8 0.2 1 0.5 0.2 0.2 0.5 0.5 1 0.5 0.5 0 1 0.2 1.5 1 0.5 0.8 1 1 1.5 1 0.5 0 0.8 0.2 1 0.5 0.2 0.2 0.5 0.5 1 0.5 0.2 0 0.8 0.2 1 0.5 1 1 1.8 1.5 2.2 1.5 0.2 0 0.5 0.2 0.8 0.5 0.2 0.2 0.5 0.5 1 0.5 0.5 0 1 0.2 1.5 1 0.5 0.8 1 1 1.5 1 0.5 0 0.8 0.2 1 0.5 0.2 0.2 0.5 0.5 1 0.5 0.5 0 1 0.2 1.5 1 0.5 0.8 1 1 1.5 1 0.5 0 0.8 0.2 1 0.5 0.2 0.2 0.5 0.5 1 0.5 0.5 0 0.8 0.2 1 0.5 0.2 0.2 0.5 0.5 0.8 0.5 0.5 0 1.2 0.5 2.2 1.5 0.2 0.2 0.8 0.5 1 0.5 0.5 0 0.8 0.2 1 0.5 0.2 0.2 0.5 0.5 1 0.5 0.5 0 1 0.2 1.5 1 0.5 0.8 1 1 1.5 1 0.5 0 1 0.2 1.5 1 0.5 0.8 1 1 1.5 1 0.5 0 0.8 0.2 1 0.5 0.2 0.2 0.5 0.5 1 0.5 0.5 0 0.8 0.2 1 0.5 0.2 0.2 0.5 0.5 0.5 0.5 0.2 0 0.5 0.2 0.8 0.5 0.2 0.2 0.8 0.5 1 0.5 0.2 0 0.5 0.2 0.8 0.5 0.2 0.2 0.5 0.5 1 0.5 0.5 0 0.8 0.2 1 0.5 0.2 0.5 0.5 0.5 1.5 0.5 1 0 1.2 0 1.5 0.5 0.2 0.5 0.5 0.5 3.5 0.5 3 0 3.2 0 3.5 -0.5z M153.5 296.5 c-0.2 -0.2 -1 -0.5 -1.5 -0.5 -0.5 0 -0.8 -0.2 -1 -0.5 -0.2 -0.2 -0.5 -0.5 -1 -0.5 -0.5 0 -0.8 -0.2 -1 -0.5 -0.2 -0.2 -0.5 -0.5 -0.8 -0.5 -0.8 0 -3.2 -2.2 -3.2 -3 -0.5 -1.5 0 -2 1.8 -2 1 0 1.5 -0.2 2 -0.5 0.5 -0.5 1 -0.5 2.8 -0.5 1.8 0 2.2 0 2.8 -0.5 0.5 -0.5 1 -0.5 6 -0.5 5.2 0 5.5 0 5.8 -0.5 0.2 -0.5 0.5 -0.5 5.5 -0.5 l5.5 0.2 0 0.5 c0 0.8 -4 5 -5 5.2 -0.5 0.2 -1 0.8 -1.5 1 -0.5 0.8 -1.2 1 -1.5 1 -0.5 0 -0.8 0.2 -1 0.5 -0.2 0.2 -0.5 0.5 -1 0.5 -0.5 0 -0.8 0.2 -1 0.5 -0.2 0.5 -0.5 0.5 -1.5 0.5 -1 0 -1.2 0 -1.5 0.5 -0.5 0.8 -8.5 0.8 -9.5 0z M140 282.5 c-0.2 -0.2 -0.5 -0.5 -1 -0.5 -0.2 0 -1 -0.2 -1 -0.5 -0.2 -0.2 -0.8 -0.5 -1 -0.5 -0.8 0 -4 -3.2 -4 -4 0 -0.5 -0.2 -0.8 -0.5 -1 -0.2 -0.2 -0.5 -0.5 -0.5 -1 0 -0.5 -0.2 -0.8 -0.5 -1 -0.2 -0.2 -0.5 -0.5 -0.5 -1 0 -0.5 -0.2 -0.8 -0.5 -1 -0.5 -0.2 -0.5 -0.5 -0.5 -4.5 0 -4 0 -4.5 0.5 -5 0.2 -0.5 0.5 -1 0.5 -2 0 -1 0 -1.2 1 -2 0.5 -0.5 1 -1 1 -1.5 0 -0.8 4.2 -5 5 -5 0.5 0 0.8 -0.2 1 -0.5 0.2 -0.2 0.5 -0.5 1 -0.5 0.5 0 0.8 -0.2 1 -0.5 0.2 -0.2 0.5 -0.5 1 -0.5 0.5 0 0.8 -0.2 1 -0.5 0.2 -0.5 0.5 -0.5 2 -0.5 1.2 0 1.8 0 2.2 -0.5 0.2 -0.5 0.8 -0.5 8.2 -0.5 7.2 0 7.8 0 8.2 -0.5 0.8 -0.5 1 -0.5 6.8 -0.5 5.8 0 6 0 6.8 -0.5 0.5 -0.5 1 -0.5 6.5 -0.5 5.8 0 6.2 0 6.8 -0.5 0.8 -0.5 1 -0.5 6.8 -0.5 5.8 0 6.2 0 6.8 -0.5 0.2 -0.5 0.8 -0.5 6.5 -0.5 6 0 6.2 0 6.5 0.5 0.2 0.5 0.5 0.5 1.5 0.5 1 0 1.2 0 1.5 0.5 0.2 0.2 0.5 0.5 1 0.5 0.8 0 6 5.2 6 6 0 0.5 0.2 0.8 0.5 1 0.5 0.2 0.5 0.5 0.5 1.5 0 1 0 1.2 0.5 1.5 0.5 0.2 0.5 0.5 0.5 4.5 0 4 0 4.2 -0.5 4.5 -0.5 0.2 -0.5 0.5 -0.5 1.5 0 1 0 1.2 -0.5 1.5 -0.2 0.2 -0.5 0.5 -0.5 1 0 0.5 -0.2 0.8 -0.5 1 -0.2 0.2 -0.5 0.5 -0.5 1 0 0.8 -4.2 5 -5 5 -0.5 0 -0.8 0.2 -1 0.5 -0.2 0.2 -0.5 0.5 -1 0.5 -0.5 0 -0.8 0.2 -1 0.5 -0.2 0.5 -0.5 0.5 -3.5 0.5 -2.8 0 -3.5 0 -4.5 0.5 -1.2 0.5 -2 0.5 -9 0.5 -7.2 0 -7.8 0 -8 0.5 -0.5 0.5 -1 0.5 -8 0.5 -7 0 -7.5 0 -7.8 0.5 -0.5 0.5 -1 0.5 -7 0.5 -5.8 0 -6.2 0 -6.8 0.5 -0.8 0.5 -1 0.5 -6 0.5 -4.8 0 -5.2 0 -5.5 0.5 -0.5 0.5 -1 0.5 -6.2 0.5 -5.2 0 -5.5 0 -5.8 -0.5z M135.8 244.2 c-0.5 -0.2 -1.8 -0.2 -5.5 -0.2 -4.8 0 -5 0 -5.2 -0.5 -0.2 -0.5 -0.5 -0.5 -2 -0.5 -1.5 0 -1.8 0 -2 -0.5 -0.2 -0.2 -0.5 -0.5 -1 -0.5 -0.5 0 -0.8 -0.2 -1 -0.5 -0.2 -0.2 -0.5 -0.5 -1 -0.5 -0.5 0 -0.8 -0.2 -1 -0.5 -0.2 -0.2 -0.5 -0.5 -1 -0.5 -0.5 0 -0.8 -0.2 -1 -0.5 -0.2 -0.2 -0.5 -0.5 -1 -0.5 -0.5 0 -0.8 -0.2 -1 -0.5 -0.2 -0.2 -0.5 -0.5 -1 -0.5 -0.5 0 -1 -0.2 -1.5 -1 -0.5 -0.5 -1 -1 -1.5 -1 -0.8 0 -8 -7.2 -8 -8 0 -0.5 -0.5 -1 -1 -1.5 -0.8 -0.5 -1 -1 -1 -1.5 0 -0.5 -0.2 -0.8 -0.5 -1 -0.2 -0.2 -0.5 -0.5 -0.5 -1.2 0 -0.5 -0.2 -1.2 -0.5 -1.5 -0.8 -1 -0.8 -14.8 0 -15.2 0.2 -0.2 0.5 -0.5 0.5 -0.8 0 -0.2 0.2 -0.5 0.5 -0.5 0.2 0 0.5 0.5 0.5 3 0 2.8 0 3 0.5 3.2 0.5 0.2 0.5 0.5 0.5 1.5 0 1 0 1.2 0.5 1.5 0.2 0.2 0.5 0.5 0.5 1 0 0.5 0.2 0.8 0.5 1 0.2 0.2 0.5 0.5 0.5 1 0 0.5 0.2 0.8 0.5 1 0.2 0.2 0.5 0.5 0.5 1 0 0.5 0.2 1 1 1.5 0.5 0.5 1 1 1 1.5 0 0.8 8.2 9 9 9 0.5 0 1 0.5 1.5 1 0.5 0.5 1 1 1.2 1 0 0 0.2 0.2 0.5 0.5 0.2 0.2 0.8 0.5 1 0.5 0.2 0 0.5 0.2 0.8 0.5 0.2 0.2 0.5 0.5 1 0.5 0.5 0 0.8 0.2 1 0.5 0.2 0.2 0.5 0.5 1 0.5 0.5 0 0.8 0.2 1 0.5 0.2 0.2 0.5 0.5 0.8 0.5 0.2 0 0.8 0.2 1 0.5 0 0.2 0.5 0.5 0.8 0.5 0 0 0.2 0.2 0.5 0.5 0.2 0.2 0.5 0.5 1 0.5 0.5 0 0.8 0.2 1 0.5 0.2 0.2 0.5 0.5 1.2 0.5 0.5 0 1.2 0.2 1.5 0.5 0.5 0.2 0.8 0.5 1 0.5 0.2 0 0.8 0.2 1 0.5 0.2 0.2 1 0.5 1.2 0.5 0.5 0 0.8 0.2 1 0.5 0.2 0.5 0.5 0.5 1.5 0.5 1.5 0 1.8 0.2 0.8 1.2 -0.8 0.5 -0.8 0.5 -1.5 0z M148 240.5 c-0.2 -0.5 -0.5 -0.5 -2 -0.5 -1.5 0 -1.8 0 -2 -0.5 -0.2 -0.2 -0.5 -0.5 -1 -0.5 -0.5 0 -0.8 -0.2 -1 -0.5 -0.2 -0.2 -0.5 -0.5 -1 -0.5 -0.8 0 -5 -4.2 -5 -5 0 -0.2 -0.5 -0.8 -1 -1.5 -0.8 -0.8 -1 -1.2 -1 -2 0 -1 0 -1.2 -0.5 -1.5 -0.5 -0.2 -0.5 -0.5 -0.5 -6 0 -5.5 0 -5.8 0.5 -6 0.2 -0.2 0.5 -0.5 0.5 -1 0 -0.5 0.2 -1.2 0.5 -1.5 0.2 -0.5 0.5 -0.8 0.5 -1 0 0 0.2 -0.2 0.5 -0.5 0.2 -0.2 0.5 -0.5 0.5 -1 0 -0.8 5.2 -6 6 -6 0.5 0 0.8 -0.2 1 -0.5 0.2 -0.2 0.5 -0.5 1 -0.5 0.5 0 0.8 -0.2 1 -0.5 0.2 -0.2 0.5 -0.5 1 -0.5 0.5 0 0.8 -0.2 1 -0.5 0.2 -0.5 0.5 -0.5 3 -0.5 2.5 0 2.8 0 3 -0.5 0.2 -0.5 0.5 -0.5 11.5 -0.5 10.8 0 11 0 11.8 -0.5 0.5 -0.5 1 -0.5 10 -0.5 9.2 0 9.8 0 10.2 -0.5 0.2 -0.5 0.8 -0.5 8.2 -0.5 7.8 0 8 0 8.8 -0.5 0.5 -0.5 1 -0.5 2.5 -0.5 1.5 0 1.8 0 2 0.5 0.2 0.5 0.5 0.5 1.5 0.5 1 0 1.2 0 1.5 0.5 0.2 0.2 0.5 0.5 1 0.5 0.5 0 0.8 0.2 1 0.5 0.2 0.2 0.5 0.5 1 0.5 0.8 0 5 4.2 5 5 0 0.5 0.2 0.8 0.5 1 0.2 0.2 0.5 0.5 0.5 0.8 0 0.5 0.2 1 0.5 1.2 0.2 0 0.5 0.8 0.5 1 0 0.5 0.2 0.8 0.5 1 0.5 0.2 0.5 0.5 0.5 5.5 0 5 0 5.2 -0.5 5.5 -0.5 0.2 -0.5 0.5 -0.5 1.5 0 1 0 1.2 -0.5 1.5 -0.2 0.2 -0.5 0.5 -0.5 1 0 0.5 -0.2 0.8 -0.5 1 0 0 -0.5 0.5 -0.8 0.8 -0.5 1.5 -0.8 1.8 -3 4 -1.8 1.8 -2.5 2.2 -2.8 2.2 -0.5 0 -0.8 0.2 -1 0.5 -0.2 0.2 -0.5 0.5 -1 0.5 -0.5 0 -0.8 0.2 -1 0.5 -0.2 0.5 -0.5 0.5 -1.5 0.5 -1 0 -1.2 0 -1.5 0.5 -0.2 0.5 -0.5 0.5 -5.5 0.5 -4.8 0 -5 0 -5.8 0.5 -0.5 0.5 -1 0.5 -8.8 0.5 -7.8 0 -8 0 -8.8 0.5 -0.5 0.5 -1 0.5 -7.8 0.5 -7 0 -7.2 0 -7.5 0.5 -0.2 0.5 -0.5 0.5 -8.2 0.5 -7.5 0 -8 0 -8.5 0.5 -0.8 0.5 -1 0.5 -4.2 0.5 -3.5 0 -3.8 0 -4 -0.5z M227.2 236.8 c-0.5 -0.5 0 -0.8 0.8 -0.8 0.5 0 0.8 -0.2 1 -0.5 0.2 -0.2 0.5 -0.5 1 -0.5 0.2 0 1.5 -1 4.2 -3.8 2.8 -2.8 3.8 -4 3.8 -4.2 0 -0.5 0.2 -0.8 0.5 -1 0.2 -0.2 0.5 -0.5 0.5 -1 0 -0.5 0.2 -0.8 0.5 -0.8 0.8 0 0.8 3.5 0 3.8 -0.5 0.2 -0.5 0.5 -0.5 1.5 0 1 0 1.2 -0.5 1.5 -0.2 0.2 -0.5 0.5 -0.5 0.5 0 0.5 -1 1.5 -1.5 1.5 0 0 -0.5 0.5 -1 1 -0.5 0.8 -1 1 -1.5 1 -0.5 0 -0.8 0.2 -1 0.5 -0.2 0.5 -0.5 0.5 -1.5 0.5 -1 0 -1.2 0 -1.5 0.5 -0.2 0.5 -2.5 0.8 -2.8 0.2z M146 194.5 c-0.2 -0.5 -0.5 -0.5 -1.5 -0.5 -1 0 -1.2 0 -1.5 -0.5 -0.2 -0.2 -0.5 -0.5 -1 -0.5 -0.5 0 -0.8 -0.2 -1 -0.5 -0.2 -0.2 -0.5 -0.5 -1 -0.5 -0.8 0 -4.8 -4 -5 -5 -0.2 -0.5 -0.8 -1 -1 -1.5 -0.8 -0.8 -1 -1.2 -1 -2 0 -1 0 -1.2 -0.5 -1.5 -0.5 -0.2 -0.5 -0.5 -0.5 -1.5 0 -0.8 -0.2 -1.2 -0.5 -1.5 -0.5 -0.5 -0.5 -1 -0.5 -4.2 0 -3.2 0 -3.5 0.5 -3.8 0.5 -0.2 0.5 -0.5 0.5 -1.5 0 -1 0 -1.2 0.5 -1.5 0.2 -0.2 0.5 -0.5 0.5 -1 0 -0.5 0.2 -0.8 0.5 -1 0.2 -0.2 0.5 -0.5 0.5 -1 0 -0.8 6.2 -7 7 -7 0.5 0 0.8 -0.2 1 -0.5 0.2 -0.2 0.5 -0.5 1 -0.5 0.5 0 1 -0.2 1.5 -0.5 0.2 -0.5 0.8 -0.5 2.2 -0.5 1.2 0 1.8 0 2.2 -0.5 0.2 -0.5 0.8 -0.5 21 -0.5 11.5 0 22.5 0 24.8 -0.2 5 -0.2 5.2 -0.2 9 -0.2 1.8 0.2 5.8 0.2 9 0.5 5.5 0 6 0 6.2 0.5 0.2 0.2 0.5 0.5 1 0.5 0.5 0 0.8 0.2 1 0.5 0.2 0.2 0.5 0.5 1 0.5 0.5 0 0.8 0.2 1 0.5 0.2 0.2 0.5 0.5 1 0.5 0.8 0 6 5.2 6 6 0 0.2 0.2 0.8 0.5 1.2 0.2 0.2 0.5 1 0.5 1.5 0 0.8 0.2 1 0.5 1.2 0.5 0.2 0.5 0.5 0.5 6 0 5.5 0 5.8 -0.5 6 -0.2 0.2 -0.5 0.5 -0.5 1 0 0.5 -0.2 1 -0.5 1.5 -0.2 0.2 -0.5 0.8 -0.5 1.2 0 1 -5.2 6.2 -6 6.2 -0.5 0 -0.8 0.2 -1 0.5 -0.2 0.2 -0.5 0.5 -1 0.5 -0.5 0 -0.8 0.2 -1 0.5 -0.2 0.5 -0.5 0.5 -2.5 0.5 -2 0 -2.2 0 -2.5 0.5 -0.2 0.5 -0.5 0.5 -9.5 0.5 -9 0 -9.5 0 -9.8 0.5 -0.5 0.5 -1 0.5 -11.8 0.5 -10.5 0 -11.5 0 -12 0.5 -1 0.8 -26.5 0.8 -27 0z"/></g></svg>