<svg xmlns="http://www.w3.org/2000/svg" viewBox="0 0 2460 476"><g transform="translate(0.000000,476.000000) scale(1.000000,-1.000000)" fill="currentColor"><path d="M156 458 c-1 -2 -2 -2 -6 -2 -4 0 -5 0 -6 -2 -1 -1 -2 -2 -4 -2 -2 0 -3 -1 -4 -2 -1 -1 -2 -2 -4 -2 -3 0 -16 -13 -16 -16 0 -2 -2 -4 -4 -6 -3 -2 -4 -4 -4 -6 0 -2 -1 -3 -2 -4 -2 -1 -2 -2 -2 -6 0 -4 0 -5 -2 -6 -2 -1 -2 -2 -2 -8 0 -6 0 -7 -2 -8 -2 -1 -2 -2 -2 -8 0 -6 0 -7 -2 -8 -2 -1 -2 -2 -2 -8 0 -6 0 -7 -2 -8 -2 -1 -2 -2 -2 -8 0 -6 0 -7 -2 -8 -2 -1 -2 -2 -2 -8 0 -6 0 -7 -2 -8 -2 -1 -2 -2 -2 -6 0 -4 0 -5 -2 -6 -2 -1 -2 -2 -2 -8 0 -6 0 -7 -2 -8 -2 -1 -2 -2 -2 -8 0 -6 0 -7 -2 -8 -2 -1 -2 -2 -2 -8 0 -6 0 -7 -2 -8 -2 -1 -2 -2 -2 -8 0 -6 0 -7 -2 -8 -2 -1 -2 -2 -2 -8 0 -6 0 -7 -2 -8 -2 -1 -2 -2 -2 -6 0 -4 0 -5 -2 -6 -2 -1 -2 -2 -2 -8 0 -6 0 -7 -2 -8 -2 -1 -2 -2 -2 -6 0 -4 0 -5 -2 -6 -2 -1 -2 -2 -2 -8 0 -6 0 -7 -2 -8 -2 -1 -2 -2 -2 -8 0 -6 0 -7 -2 -8 -2 -1 -2 -2 -2 -8 0 -6 0 -7 -2 -8 -2 -1 -2 -2 -2 -6 0 -4 0 -5 -2 -6 -2 -1 -2 -2 -2 -8 0 -6 0 -7 -2 -8 -2 -1 -2 -2 -2 -8 0 -6 0 -7 -2 -8 -2 -1 -2 -2 -2 -6 0 -4 0 -5 -2 -6 -3 -2 -3 -46 0 -48 1 -1 2 -2 2 -4 0 -3 9 -12 12 -12 2 0 4 -2 6 -4 3 -4 4 -4 8 -4 4 0 5 0 6 -2 2 -3 174 -3 176 0 1 2 2 2 6 2 4 0 5 0 6 2 1 1 2 2 4 2 2 0 3 1 4 2 1 1 2 2 4 2 3 0 24 21 24 24 0 2 1 3 2 4 2 1 2 2 2 6 0 4 0 5 2 6 2 1 2 2 2 6 0 4 0 5 2 6 2 1 2 2 2 8 0 6 0 7 2 8 2 1 2 2 2 8 0 6 0 7 2 8 2 1 2 2 2 8 0 6 0 7 2 8 2 1 2 2 2 8 0 6 0 7 2 8 2 1 2 2 2 8 0 6 0 7 2 8 2 1 2 2 2 6 0 4 0 5 2 6 2 1 2 2 2 6 l0 6 -52 0 -51 0 -1 -4 c0 -2 -1 -3 -2 -4 -2 -1 -2 -2 -2 -6 0 -4 0 -5 -2 -6 -2 -1 -2 -2 -2 -8 0 -6 0 -7 -2 -8 -2 -1 -2 -2 -2 -8 0 -6 0 -7 -2 -8 -2 -1 -2 -2 -2 -8 0 -6 0 -7 -2 -8 -2 -1 -2 -2 -2 -8 0 -6 0 -6 -5 -11 l-5 -5 -23 0 -22 1 -1 7 c0 6 0 7 2 8 2 1 2 2 2 8 0 6 0 7 2 8 2 1 2 2 2 8 0 6 0 7 2 8 2 1 2 2 2 8 0 6 0 7 2 8 2 1 2 2 2 6 0 4 0 5 2 6 2 1 2 2 2 8 0 6 0 7 2 8 2 1 2 2 2 8 0 6 0 7 2 8 2 1 2 2 2 8 0 6 0 7 2 8 2 1 2 2 2 8 0 6 0 7 2 8 2 1 2 2 2 8 0 6 0 7 2 8 2 1 2 2 2 6 0 4 0 5 2 6 2 1 2 2 2 8 0 6 0 7 2 8 2 1 2 2 2 8 0 6 0 7 2 8 2 1 2 2 2 6 0 4 0 5 2 6 2 1 2 2 2 8 0 6 0 7 2 8 2 1 2 2 2 8 0 6 0 7 2 8 2 1 2 2 2 8 0 6 0 7 2 8 2 1 2 2 2 8 0 6 0 7 2 8 2 1 2 2 2 8 0 6 0 6 3 9 l3 3 25 0 25 0 0 -8 c0 -6 0 -7 -2 -8 -2 -1 -2 -2 -2 -8 0 -6 0 -7 -2 -8 -2 -1 -2 -2 -2 -6 0 -4 0 -5 -2 -6 -2 -1 -2 -2 -2 -8 0 -6 0 -7 -2 -8 -2 -1 -2 -2 -2 -8 0 -6 0 -7 -2 -8 -2 -1 -2 -2 -2 -6 l1 -5 51 0 52 0 0 5 c0 4 1 5 2 6 2 1 2 2 2 8 0 6 0 7 2 8 2 1 2 2 2 6 0 4 0 5 2 6 2 1 2 2 2 8 0 6 0 7 2 8 2 1 2 2 2 6 0 4 0 5 2 6 2 1 2 2 2 8 0 6 0 7 2 8 2 1 2 2 2 8 0 6 0 7 2 8 2 1 2 2 2 12 0 10 0 11 -2 12 -2 1 -2 2 -2 6 0 4 0 5 -2 6 -1 1 -2 2 -2 4 0 3 -9 12 -12 12 -2 0 -3 1 -4 2 -1 1 -2 2 -4 2 -2 0 -3 1 -4 2 -1 2 -2 2 -6 2 -4 0 -5 0 -6 2 -2 3 -170 3 -172 0z M449 459 c-1 0 -1 -2 -1 -5 0 -4 0 -5 -2 -6 -2 -1 -2 -2 -2 -8 0 -6 0 -7 -2 -8 -2 -1 -2 -2 -2 -6 0 -4 0 -5 -2 -6 -2 -1 -2 -2 -2 -8 0 -6 0 -7 -2 -8 -2 -1 -2 -2 -2 -8 0 -6 0 -7 -2 -8 -2 -1 -2 -2 -2 -8 0 -6 0 -7 -2 -8 -2 -1 -2 -2 -2 -8 0 -6 0 -7 -2 -8 -2 -1 -2 -2 -2 -6 0 -4 0 -5 -2 -6 -2 -1 -2 -2 -2 -8 0 -6 0 -7 -2 -8 -2 -1 -2 -2 -2 -8 0 -6 0 -7 -2 -8 -2 -1 -2 -2 -2 -8 0 -6 0 -7 -2 -8 -2 -1 -2 -2 -2 -8 0 -6 0 -7 -2 -8 -2 -1 -2 -2 -2 -6 0 -4 0 -5 -2 -6 -2 -1 -2 -2 -2 -8 0 -6 0 -7 -2 -8 -2 -1 -2 -2 -2 -6 0 -4 0 -5 -2 -6 -2 -1 -2 -2 -2 -10 0 -8 0 -9 -2 -10 -2 -1 -2 -2 -2 -6 0 -4 0 -5 -2 -6 -2 -1 -2 -2 -2 -8 0 -6 0 -7 -2 -8 -2 -1 -2 -2 -2 -8 0 -6 0 -7 -2 -8 -2 -1 -2 -2 -2 -8 0 -6 0 -7 -2 -8 -2 -1 -2 -2 -2 -6 0 -4 0 -5 -2 -6 -2 -1 -2 -2 -2 -8 0 -6 0 -7 -2 -8 -2 -1 -2 -2 -2 -8 0 -6 0 -7 -2 -8 -2 -1 -2 -2 -2 -8 0 -6 0 -7 -2 -8 -2 -1 -2 -2 -2 -8 0 -6 0 -7 -2 -8 -2 -1 -2 -2 -2 -6 0 -4 0 -5 -2 -6 -2 -1 -2 -2 -2 -8 0 -6 0 -7 -2 -8 -2 -1 -2 -2 -2 -8 0 -6 0 -7 -2 -8 -2 -1 -2 -2 -2 -8 0 -6 0 -7 -2 -8 -2 -1 -2 -2 -2 -6 l1 -5 52 -1 53 0 3 3 c3 3 3 3 3 9 0 6 0 7 2 8 2 1 2 2 2 8 0 6 0 7 2 8 2 1 2 2 2 8 0 6 0 7 2 8 2 1 2 2 2 8 0 6 0 7 2 8 2 1 2 2 2 6 0 4 0 5 2 6 2 1 2 2 2 8 0 6 0 7 2 8 2 1 2 2 2 8 0 6 0 7 2 8 2 1 2 2 2 6 0 4 0 5 2 6 2 1 2 2 2 10 0 8 0 9 2 10 2 1 2 2 2 8 0 6 0 6 3 9 3 4 5 3 5 -1 0 -2 1 -3 2 -4 2 -1 2 -2 2 -12 0 -10 0 -11 2 -12 2 -1 2 -2 2 -12 0 -10 0 -11 2 -12 2 -1 2 -2 2 -16 0 -14 0 -15 2 -16 2 -1 2 -2 2 -16 0 -14 0 -15 2 -16 2 -1 2 -2 2 -16 0 -14 0 -15 2 -16 1 -1 2 -2 2 -6 l1 -5 55 0 56 0 0 5 c0 4 0 5 -2 6 -2 1 -2 2 -2 10 0 8 0 9 -2 10 -2 1 -2 2 -2 8 0 6 0 7 -2 8 -2 1 -2 2 -2 10 0 8 0 9 -2 10 -2 1 -2 2 -2 10 0 8 0 9 -2 10 -2 1 -2 2 -2 10 0 8 0 9 -2 10 -2 1 -2 2 -2 8 0 6 0 7 -2 8 -2 1 -2 2 -2 12 0 10 0 11 -2 12 -2 1 -2 2 -2 8 0 9 3 12 12 12 6 0 7 0 8 2 1 1 2 2 4 2 2 0 3 1 4 2 1 1 2 2 4 2 2 0 3 1 4 2 1 1 2 2 4 2 3 0 20 17 20 20 0 2 1 3 2 4 1 1 2 2 2 4 0 2 1 3 2 4 1 1 2 2 2 4 0 2 1 3 2 4 2 1 2 2 2 6 0 4 0 5 2 6 2 1 2 2 2 8 0 6 0 7 2 8 2 1 2 2 2 6 0 4 0 5 2 6 2 1 2 2 2 8 0 6 0 7 2 8 2 1 2 2 2 8 0 6 0 7 2 8 2 1 2 2 2 8 0 6 0 7 2 8 2 1 2 2 2 6 0 4 0 5 2 6 2 1 2 2 2 8 0 6 0 7 2 8 2 1 2 2 2 8 0 6 0 7 2 8 2 1 2 2 2 8 0 6 0 7 2 8 2 1 2 2 2 10 0 8 0 9 2 10 2 1 2 2 2 8 0 6 0 7 -2 8 -2 1 -2 2 -2 8 0 6 0 7 -4 10 -2 2 -4 4 -4 6 0 3 -5 8 -8 8 -2 0 -4 2 -6 4 -3 4 -4 4 -8 4 -4 0 -5 0 -6 2 -1 2 -217 3 -219 1z m136 -78 c4 -4 5 -19 1 -21 -2 -1 -2 -2 -2 -8 0 -6 0 -7 -2 -8 -2 -1 -2 -2 -2 -8 0 -6 0 -7 -2 -8 -2 -1 -2 -2 -2 -8 0 -6 0 -7 -2 -8 -2 -1 -2 -2 -2 -6 0 -4 0 -5 -2 -6 -2 -1 -2 -2 -2 -8 0 -6 0 -7 -2 -8 -2 -1 -2 -2 -2 -6 0 -4 0 -5 -2 -6 -2 -1 -2 -2 -2 -8 0 -7 -3 -12 -8 -12 -2 0 -3 -1 -4 -2 -1 -2 -2 -2 -22 -2 l-21 1 -1 7 c0 6 0 7 2 8 2 1 2 2 2 6 0 4 0 5 2 6 2 1 2 2 2 8 0 6 0 7 2 8 2 1 2 2 2 8 0 6 0 7 2 8 2 1 2 2 2 8 0 6 0 7 2 8 2 1 2 2 2 8 0 6 0 7 2 8 2 1 2 2 2 8 0 6 0 7 2 8 2 1 2 2 2 8 0 6 0 7 2 8 2 1 2 2 2 6 0 6 -1 6 24 6 l22 0 3 -3z M787 457 c-3 -3 -3 -4 -3 -9 0 -6 0 -7 -2 -8 -2 -1 -2 -2 -2 -8 0 -6 0 -7 -2 -8 -2 -1 -2 -2 -2 -8 0 -6 0 -7 -2 -8 -2 -1 -2 -2 -2 -6 0 -4 0 -5 -2 -6 -2 -1 -2 -2 -2 -8 0 -6 0 -7 -2 -8 -2 -1 -2 -2 -2 -8 0 -6 0 -7 -2 -8 -2 -1 -2 -2 -2 -8 0 -6 0 -7 -2 -8 -2 -1 -2 -2 -2 -8 0 -6 0 -7 -2 -8 -2 -1 -2 -2 -2 -6 0 -4 0 -5 -2 -6 -2 -1 -2 -2 -2 -8 0 -6 0 -7 -2 -8 -2 -1 -2 -2 -2 -8 0 -6 0 -7 -2 -8 -2 -1 -2 -2 -2 -6 0 -4 0 -5 -2 -6 -2 -1 -2 -2 -2 -8 0 -6 0 -7 -2 -8 -2 -1 -2 -2 -2 -8 0 -6 0 -7 -2 -8 -2 -1 -2 -2 -2 -8 0 -6 0 -7 -2 -8 -2 -1 -2 -2 -2 -6 0 -4 0 -5 -2 -6 -2 -1 -2 -2 -2 -8 0 -6 0 -7 -2 -8 -2 -1 -2 -2 -2 -8 0 -6 0 -7 -2 -8 -2 -1 -2 -2 -2 -6 0 -4 0 -5 -2 -6 -2 -1 -2 -2 -2 -8 0 -6 0 -7 -2 -8 -2 -1 -2 -2 -2 -8 0 -6 0 -7 -2 -8 -2 -1 -2 -2 -2 -8 0 -6 0 -7 -2 -8 -2 -1 -2 -2 -2 -6 0 -4 0 -5 -2 -6 -2 -1 -2 -2 -2 -8 0 -6 0 -7 -2 -8 -2 -1 -2 -2 -2 -8 0 -6 0 -7 -2 -8 -2 -1 -2 -2 -2 -8 0 -6 0 -7 -2 -8 -2 -1 -2 -2 -2 -6 0 -4 0 -5 -2 -6 -2 -1 -2 -2 -2 -8 0 -6 0 -7 -2 -8 -2 -1 -2 -2 -2 -8 0 -6 0 -7 -2 -8 -2 -1 -2 -2 -2 -4 l1 -3 57 0 58 0 0 7 c0 6 0 7 2 8 2 1 2 2 2 8 0 6 0 7 2 8 2 1 2 2 2 6 0 4 0 5 2 6 2 1 2 2 2 8 0 6 0 7 2 8 2 1 2 2 2 8 0 6 0 7 2 8 2 1 2 2 2 8 0 6 0 7 2 8 2 1 2 2 2 8 0 6 0 7 2 8 2 1 2 2 2 6 0 4 0 5 2 6 2 1 2 2 2 8 0 6 0 7 2 8 2 1 2 2 2 8 0 6 0 7 2 8 2 1 2 2 2 8 0 6 0 7 2 8 2 1 2 2 2 8 0 6 0 7 2 8 2 1 2 2 2 8 0 6 0 7 2 8 2 1 2 2 2 6 0 4 0 5 2 6 2 1 2 2 2 8 0 6 0 7 2 8 2 1 2 2 2 8 0 6 0 7 2 8 2 1 2 2 2 8 0 6 0 7 2 8 2 1 2 2 2 8 0 6 0 7 2 8 2 1 2 2 2 6 0 4 0 5 2 6 2 1 2 2 2 8 0 6 0 7 2 8 2 1 2 2 2 8 0 6 0 7 2 8 2 1 2 2 2 6 0 4 0 5 2 6 2 1 2 2 2 8 0 6 0 7 2 8 2 1 2 2 2 8 0 6 0 7 2 8 2 1 2 2 2 8 0 6 0 7 2 8 2 1 2 2 2 6 0 4 0 5 2 6 2 1 2 2 2 8 0 6 0 7 2 8 2 1 2 2 2 8 0 6 0 7 2 8 2 1 2 2 2 6 0 4 0 5 2 6 2 1 2 2 2 6 l0 6 -55 0 -55 0 -3 -3z M965 459 c-1 0 -1 -3 -1 -7 0 -6 0 -7 -2 -8 -2 -1 -2 -2 -2 -8 0 -6 0 -7 -2 -8 -2 -1 -2 -2 -2 -8 0 -6 0 -7 -2 -8 -2 -1 -2 -2 -2 -6 0 -4 0 -5 -2 -6 -2 -1 -2 -2 -2 -8 0 -6 0 -7 -2 -8 -2 -1 -2 -2 -2 -8 0 -6 0 -7 -2 -8 -2 -1 -2 -2 -2 -8 0 -6 0 -7 -2 -8 -2 -1 -2 -2 -2 -6 0 -4 0 -5 -2 -6 -2 -1 -2 -2 -2 -8 0 -6 0 -7 -2 -8 -2 -1 -2 -2 -2 -8 0 -6 0 -7 -2 -8 -2 -1 -2 -2 -2 -8 0 -6 0 -7 -2 -8 -2 -1 -2 -2 -2 -6 0 -4 0 -5 -2 -6 -2 -1 -2 -2 -2 -8 0 -6 0 -7 -2 -8 -2 -1 -2 -2 -2 -8 0 -6 0 -7 -2 -8 -2 -1 -2 -2 -2 -8 0 -6 0 -7 -2 -8 -2 -1 -2 -2 -2 -6 0 -4 0 -5 -2 -6 -2 -1 -2 -2 -2 -8 0 -6 0 -7 -2 -8 -2 -1 -2 -2 -2 -8 0 -6 0 -7 -2 -8 -2 -1 -2 -2 -2 -6 0 -4 0 -5 -2 -6 -2 -1 -2 -2 -2 -8 0 -6 0 -7 -2 -8 -2 -1 -2 -2 -2 -8 0 -6 0 -7 -2 -8 -2 -1 -2 -2 -2 -6 0 -4 0 -5 -2 -6 -2 -1 -2 -2 -2 -8 0 -6 0 -7 -2 -8 -2 -1 -2 -2 -2 -8 0 -6 0 -7 -2 -8 -2 -1 -2 -2 -2 -8 0 -6 0 -7 -2 -8 -2 -1 -2 -2 -2 -8 0 -6 0 -7 -2 -8 -2 -1 -2 -2 -2 -6 0 -4 0 -5 -2 -6 -2 -1 -2 -2 -2 -8 0 -6 0 -7 -2 -8 -2 -1 -2 -2 -2 -8 0 -6 0 -7 -2 -8 -2 -1 -2 -2 -2 -6 l1 -5 51 0 52 0 0 5 c0 4 1 5 2 6 2 1 2 2 2 8 0 6 0 7 2 8 2 1 2 2 2 8 0 6 0 7 2 8 2 1 2 2 2 6 0 4 0 5 2 6 2 1 2 2 2 8 0 6 0 7 2 8 2 1 2 2 2 8 0 6 0 7 2 8 2 1 2 2 2 8 0 6 0 7 2 8 2 1 2 2 2 6 0 4 0 5 2 6 2 1 2 2 2 8 0 6 0 7 2 8 2 1 2 2 2 8 0 6 0 7 2 8 2 1 2 2 2 6 0 4 0 5 2 6 2 1 2 2 2 10 0 8 0 9 2 10 2 1 2 2 2 8 0 6 0 7 2 8 2 1 2 2 2 10 0 8 0 9 2 10 1 1 2 2 2 6 0 4 1 6 2 6 1 0 2 -6 2 -45 l0 -45 2 -2 3 -2 -3 -2 c-3 -2 -3 -7 0 -8 2 -1 2 -2 2 -48 l1 -47 31 0 32 0 0 2 c0 2 2 5 4 7 3 3 4 5 4 6 0 2 1 3 2 4 1 1 2 2 2 4 0 2 1 3 2 4 1 1 2 2 2 4 0 2 1 3 2 4 1 1 2 2 2 4 0 2 1 3 2 4 1 1 2 2 2 4 0 2 1 4 4 6 3 2 4 4 4 6 0 2 1 3 2 4 1 1 2 2 2 4 0 2 1 3 2 4 1 1 2 2 2 4 0 2 1 3 2 4 1 1 2 2 2 4 0 2 1 3 2 4 1 1 2 2 2 4 0 2 1 3 2 4 1 1 2 2 2 4 0 2 1 3 2 4 1 1 2 2 2 4 0 2 1 3 2 4 1 1 2 2 2 4 0 2 1 4 4 6 3 2 4 4 4 6 0 2 1 3 2 4 1 1 2 2 2 4 0 2 1 3 2 4 1 1 2 2 2 4 0 2 1 3 2 4 1 1 2 2 2 4 0 2 1 3 2 4 1 1 2 2 2 4 0 2 1 3 2 4 1 1 2 2 2 4 0 2 1 3 2 4 1 1 2 2 2 4 0 2 1 3 2 4 1 1 2 2 2 4 0 2 1 3 2 4 1 1 2 2 2 4 1 6 3 4 4 -2 0 -4 0 -5 -2 -6 -2 -1 -2 -2 -2 -6 0 -4 0 -5 -2 -6 -2 -1 -2 -2 -2 -8 0 -6 0 -7 -2 -8 -2 -1 -2 -2 -2 -8 0 -6 0 -7 -2 -8 -2 -1 -2 -2 -2 -8 0 -6 0 -7 -2 -8 -2 -1 -2 -2 -2 -8 0 -6 0 -7 -2 -8 -2 -1 -2 -2 -2 -6 0 -4 0 -5 -2 -6 -2 -1 -2 -2 -2 -8 0 -6 0 -7 -2 -8 -2 -1 -2 -2 -2 -6 0 -4 0 -5 -2 -6 -2 -1 -2 -2 -2 -8 0 -6 0 -7 -2 -8 -2 -1 -2 -2 -2 -8 0 -6 0 -7 -2 -8 -2 -1 -2 -2 -2 -6 0 -4 0 -5 -2 -6 -2 -1 -2 -2 -2 -8 0 -6 0 -7 -2 -8 -2 -1 -2 -2 -2 -8 0 -6 0 -7 -2 -8 -2 -1 -2 -2 -2 -6 0 -4 0 -5 -2 -6 -2 -1 -2 -2 -2 -4 l1 -3 53 0 54 0 0 7 c0 6 0 7 2 8 2 1 2 2 2 6 0 4 0 5 2 6 2 1 2 2 2 8 0 6 0 7 2 8 2 1 2 2 2 8 0 6 0 7 2 8 2 1 2 2 2 8 0 6 0 7 2 8 2 1 2 2 2 8 0 6 0 7 2 8 2 1 2 2 2 8 0 6 0 7 2 8 2 1 2 2 2 8 0 6 0 7 2 8 2 1 2 2 2 8 0 6 0 7 2 8 2 1 2 2 2 8 0 6 0 7 2 8 2 1 2 2 2 6 0 4 0 5 2 6 2 1 2 2 2 8 0 6 0 7 2 8 2 1 2 2 2 8 0 6 0 7 2 8 2 1 2 2 2 8 0 6 0 7 2 8 2 1 2 2 2 8 0 6 0 7 2 8 2 1 2 2 2 8 0 6 0 7 2 8 2 1 2 2 2 8 0 6 0 7 2 8 2 1 2 2 2 6 0 4 0 5 2 6 2 1 2 2 2 8 0 6 0 7 2 8 2 1 2 2 2 8 0 6 0 7 2 8 2 1 2 2 2 8 0 6 0 7 2 8 2 1 2 2 2 8 0 6 0 7 2 8 2 1 2 2 2 8 0 6 0 7 2 8 2 1 2 2 2 8 0 6 0 7 2 8 2 1 2 2 2 6 0 4 0 5 2 6 2 1 2 2 2 8 0 6 0 7 2 8 2 1 2 2 2 8 0 6 0 7 2 8 2 1 2 2 2 6 0 4 0 5 2 6 2 1 2 2 2 10 l0 10 -66 0 -65 0 -1 -4 c0 -2 -1 -3 -2 -4 -1 -1 -2 -2 -2 -4 0 -2 -1 -3 -2 -4 -1 -1 -2 -2 -2 -4 0 -2 -1 -3 -2 -4 -1 -1 -2 -2 -2 -4 0 -2 -1 -3 -2 -4 -1 -1 -2 -2 -2 -4 0 -2 -1 -3 -2 -4 -1 -1 -2 -2 -2 -4 0 -2 -1 -3 -2 -4 -1 -1 -2 -2 -2 -4 0 -2 -1 -3 -2 -4 -1 -1 -2 -2 -2 -4 0 -2 -1 -3 -2 -4 -1 -1 -2 -2 -2 -4 0 -2 -1 -3 -2 -4 -1 -1 -2 -2 -2 -4 0 -2 -1 -3 -2 -4 -1 -1 -2 -2 -2 -4 0 -2 -1 -3 -2 -4 -1 -1 -2 -2 -2 -4 0 -2 -1 -3 -2 -4 -1 -1 -2 -2 -2 -4 0 -2 -1 -3 -2 -4 -1 -1 -2 -2 -2 -4 0 -2 -1 -3 -2 -4 -1 -1 -2 -2 -2 -4 0 -2 -1 -3 -2 -4 -1 -1 -2 -2 -2 -4 0 -2 -1 -3 -2 -4 -1 -1 -2 -2 -2 -4 0 -2 -1 -4 -4 -6 -3 -2 -4 -4 -4 -6 0 -2 -1 -3 -2 -4 -1 -1 -2 -2 -2 -4 0 -2 -1 -3 -2 -4 -1 -1 -2 -2 -2 -4 0 -2 -1 -3 -2 -4 -1 -1 -2 -2 -2 -4 0 -2 -1 -3 -2 -4 -1 -1 -2 -2 -2 -4 0 -2 -1 -3 -2 -4 -1 -1 -2 -2 -2 -4 0 -2 -1 -3 -2 -4 -1 -1 -2 -2 -2 -4 0 -2 -1 -3 -2 -4 -1 -1 -2 -2 -2 -4 0 -2 -1 -3 -2 -4 -1 -1 -2 -2 -2 -4 0 -2 -1 -3 -2 -4 -2 -1 -2 -2 -2 -6 0 -4 0 -5 -2 -6 -1 -1 -2 -2 -2 -4 0 -2 -1 -3 -2 -3 -1 0 -2 7 -2 59 0 58 0 59 -2 60 -2 1 -2 2 -2 56 l0 56 -64 0 c-34 0 -63 0 -63 -1z M1409 459 c-1 0 -1 -4 -1 -9 0 -8 0 -9 -2 -10 -2 -1 -2 -2 -2 -8 0 -6 0 -7 -2 -8 -2 -1 -2 -2 -2 -8 0 -6 0 -7 -2 -8 -2 -1 -2 -2 -2 -6 0 -4 0 -5 -2 -6 -2 -1 -2 -2 -2 -8 0 -6 0 -7 -2 -8 -2 -1 -2 -2 -2 -8 0 -6 0 -7 -2 -8 -2 -1 -2 -2 -2 -8 0 -6 0 -7 -2 -8 -2 -1 -2 -2 -2 -8 0 -6 0 -7 -2 -8 -2 -1 -2 -2 -2 -8 0 -6 0 -7 -2 -8 -2 -1 -2 -2 -2 -6 0 -4 0 -5 -2 -6 -2 -1 -2 -2 -2 -8 0 -6 0 -7 -2 -8 -2 -1 -2 -2 -2 -8 0 -6 0 -7 -2 -8 -2 -1 -2 -2 -2 -8 0 -6 0 -7 -2 -8 -2 -1 -2 -2 -2 -6 0 -4 0 -5 -2 -6 -2 -1 -2 -2 -2 -8 0 -6 0 -7 -2 -8 -2 -1 -2 -2 -2 -8 0 -6 0 -7 -2 -8 -2 -1 -2 -2 -2 -6 0 -4 0 -5 -2 -6 -2 -1 -2 -2 -2 -8 0 -6 0 -7 -2 -8 -2 -1 -2 -2 -2 -8 0 -6 0 -7 -2 -8 -2 -1 -2 -2 -2 -8 0 -6 0 -7 -2 -8 -2 -1 -2 -2 -2 -8 0 -6 0 -7 -2 -8 -2 -1 -2 -2 -2 -6 0 -4 0 -5 -2 -6 -2 -1 -2 -2 -2 -8 0 -6 0 -7 -2 -8 -2 -1 -2 -2 -2 -8 0 -6 0 -7 -2 -8 -2 -1 -2 -2 -2 -6 0 -4 0 -5 -2 -6 -2 -1 -2 -2 -2 -8 0 -6 0 -7 -2 -8 -2 -1 -2 -2 -2 -8 0 -6 0 -7 -2 -8 -2 -1 -2 -2 -2 -8 0 -6 0 -7 -2 -8 -2 -1 -2 -2 -2 -6 0 -4 0 -5 -2 -6 -2 -1 -2 -2 -2 -4 l1 -3 55 0 56 0 0 5 c0 4 1 5 2 6 2 1 2 2 2 8 0 6 0 7 2 8 2 1 2 2 2 8 0 6 0 7 2 8 2 1 2 2 2 8 0 6 0 7 2 8 2 1 2 2 2 8 0 6 0 7 2 8 2 1 2 2 2 8 0 6 0 7 2 8 2 1 2 2 2 6 0 4 0 5 2 6 2 1 2 2 2 8 0 6 0 7 2 8 2 1 2 2 2 8 0 6 0 7 2 8 2 1 2 2 2 8 0 7 1 8 4 8 1 0 3 1 4 2 l2 3 2 -3 2 -2 2 2 2 3 2 -3 c2 -3 14 -3 16 0 1 2 2 2 44 2 42 0 43 0 44 2 1 2 2 2 8 2 6 0 7 0 8 2 1 1 2 2 4 2 2 0 4 1 6 4 2 2 4 4 6 4 3 0 16 13 16 16 0 2 1 3 2 4 2 1 2 2 2 6 0 4 0 5 2 6 2 1 2 2 2 6 0 4 0 5 2 6 2 1 2 2 2 6 0 4 0 5 2 6 2 1 2 2 2 8 0 6 0 7 2 8 2 1 2 2 2 8 0 6 0 7 2 8 2 1 2 2 2 6 0 4 0 5 2 6 2 1 2 2 2 8 0 6 0 7 2 8 2 1 2 2 2 8 0 6 0 7 2 8 2 1 2 2 2 8 0 6 0 7 2 8 2 1 2 2 2 8 0 6 0 7 2 8 2 1 2 2 2 6 0 4 0 5 2 6 2 1 2 2 2 8 0 6 0 7 2 8 2 1 2 2 2 10 0 8 0 9 2 10 2 1 2 2 2 10 0 8 0 9 -2 10 -2 1 -2 2 -2 8 0 6 0 7 -4 10 -2 2 -4 4 -4 6 0 3 -5 8 -8 8 -2 0 -3 1 -4 2 -1 1 -2 2 -4 2 -2 0 -3 1 -4 2 -1 2 -2 2 -6 2 -4 0 -5 0 -6 2 -1 2 -213 3 -215 1z m139 -91 c0 -10 0 -11 -2 -12 -2 -1 -2 -2 -2 -8 0 -6 0 -7 -2 -8 -2 -1 -2 -2 -2 -6 0 -4 0 -5 -2 -6 -2 -1 -2 -2 -2 -8 0 -6 0 -7 -2 -8 -2 -1 -2 -2 -2 -8 0 -6 0 -7 -2 -8 -2 -1 -2 -2 -2 -6 0 -4 0 -5 -2 -6 -2 -1 -2 -2 -2 -8 0 -6 0 -7 -2 -8 -2 -1 -2 -2 -2 -8 0 -6 0 -7 -2 -8 -1 -1 -2 -2 -2 -4 l0 -3 -8 -1 c-6 0 -7 0 -8 -2 -1 -2 -2 -2 -16 -2 l-14 0 -3 3 c-4 3 -4 7 -1 9 2 1 2 2 2 8 0 6 0 7 2 8 2 1 2 2 2 8 0 6 0 7 2 8 2 1 2 2 2 6 0 4 0 5 2 6 2 1 2 2 2 8 0 6 0 7 2 8 2 1 2 2 2 8 0 6 0 7 2 8 2 1 2 2 2 8 0 6 0 7 2 8 2 1 2 2 2 8 0 6 0 7 2 8 2 1 2 2 2 8 0 5 0 6 3 9 l3 3 23 0 23 0 0 -12z M1741 459 c-1 0 -1 -3 -1 -7 0 -6 0 -7 -2 -8 -2 -1 -2 -2 -2 -8 0 -6 0 -7 -2 -8 -2 -1 -2 -2 -2 -8 0 -6 0 -7 -2 -8 -2 -1 -2 -2 -2 -8 0 -6 0 -7 -2 -8 -2 -1 -2 -2 -2 -8 0 -6 0 -7 -2 -8 -2 -1 -2 -2 -2 -8 0 -6 0 -7 -2 -8 -2 -1 -2 -2 -2 -8 0 -6 0 -7 -2 -8 -2 -1 -2 -2 -2 -6 0 -4 0 -5 -2 -6 -2 -1 -2 -2 -2 -8 0 -6 0 -7 -2 -8 -2 -1 -2 -2 -2 -8 0 -6 0 -7 -2 -8 -2 -1 -2 -2 -2 -6 0 -4 0 -5 -2 -6 -2 -1 -2 -2 -2 -8 0 -6 0 -7 -2 -8 -2 -1 -2 -2 -2 -8 0 -6 0 -7 -2 -8 -2 -1 -2 -2 -2 -8 0 -6 0 -7 -2 -8 -2 -1 -2 -2 -2 -8 0 -6 0 -7 -2 -8 -2 -1 -2 -2 -2 -6 0 -4 0 -5 -2 -6 -2 -1 -2 -2 -2 -8 0 -6 0 -7 -2 -8 -2 -1 -2 -2 -2 -6 0 -4 0 -5 -2 -6 -2 -1 -2 -2 -2 -8 0 -6 0 -7 -2 -8 -2 -1 -2 -2 -2 -8 0 -6 0 -7 -2 -8 -2 -1 -2 -2 -2 -8 0 -6 0 -7 -2 -8 -2 -1 -2 -2 -2 -6 0 -4 0 -5 -2 -6 -2 -1 -2 -2 -2 -8 0 -6 0 -7 -2 -8 -2 -1 -2 -2 -2 -8 0 -6 0 -7 -2 -8 -2 -1 -2 -2 -2 -8 0 -6 0 -7 -2 -8 -2 -1 -2 -2 -2 -8 0 -6 0 -7 -2 -8 -2 -1 -2 -2 -2 -6 0 -4 0 -5 -2 -6 -2 -1 -2 -2 -2 -8 0 -6 0 -7 -2 -8 -2 -1 -2 -2 -2 -8 0 -6 0 -7 -2 -8 -2 -1 -2 -2 -2 -4 l1 -3 54 -1 55 0 3 3 c3 3 3 3 3 9 0 6 0 7 2 8 2 1 2 2 2 8 0 6 0 7 2 8 2 1 2 2 2 8 0 6 0 7 2 8 2 1 2 2 2 8 0 6 0 7 2 8 2 1 2 2 2 8 0 6 0 7 2 8 2 1 2 2 2 8 0 6 0 7 2 8 2 1 2 2 2 6 0 4 0 5 2 6 2 1 2 2 2 8 0 6 0 7 2 8 2 1 2 2 2 6 0 4 0 5 2 6 2 1 2 2 2 8 0 6 0 7 2 8 2 1 2 2 2 8 0 6 0 7 2 8 2 1 2 2 2 8 0 6 0 7 2 8 2 1 2 2 2 8 0 6 0 7 2 8 2 1 2 2 2 8 0 6 0 7 2 8 2 1 2 2 2 6 0 4 0 5 2 6 2 1 2 2 2 8 0 6 0 7 2 8 2 1 2 2 2 8 0 6 0 7 2 8 2 1 2 2 2 6 0 4 0 5 2 6 2 1 2 2 2 8 0 6 0 7 2 8 2 1 2 2 2 8 0 6 0 7 2 8 2 1 2 2 2 8 0 6 0 7 2 8 2 1 2 2 2 6 0 4 0 5 2 6 2 1 2 2 2 8 0 6 0 7 2 8 2 1 2 2 2 8 0 6 0 7 2 8 2 1 2 2 2 6 0 4 0 5 2 6 2 1 2 2 2 8 0 6 0 7 2 8 2 1 2 2 2 8 0 6 0 7 2 8 2 1 2 2 2 6 0 4 0 5 2 6 2 1 2 2 2 8 0 6 0 7 2 8 2 1 2 2 2 4 l0 4 -58 0 c-31 0 -57 0 -57 -1z M1919 457 c-2 -2 -3 -4 -3 -7 0 -4 0 -5 -2 -6 -2 -1 -2 -2 -2 -8 0 -6 0 -7 -2 -8 -2 -1 -2 -2 -2 -8 0 -6 0 -7 -2 -8 -2 -1 -2 -2 -2 -8 0 -6 0 -7 -2 -8 -2 -1 -2 -2 -2 -6 0 -4 0 -5 -2 -6 -2 -1 -2 -2 -2 -8 0 -6 0 -7 -2 -8 -2 -1 -2 -2 -2 -8 0 -6 0 -7 -2 -8 -2 -1 -2 -2 -2 -8 0 -6 0 -7 -2 -8 -2 -1 -2 -2 -2 -6 0 -4 0 -5 -2 -6 -2 -1 -2 -2 -2 -8 0 -6 0 -7 -2 -8 -2 -1 -2 -2 -2 -8 0 -6 0 -7 -2 -8 -2 -1 -2 -2 -2 -8 0 -6 0 -7 -2 -8 -2 -1 -2 -2 -2 -6 0 -4 0 -5 -2 -6 -2 -1 -2 -2 -2 -8 0 -6 0 -7 -2 -8 -2 -1 -2 -2 -2 -8 0 -6 0 -7 -2 -8 -2 -1 -2 -2 -2 -6 0 -4 0 -5 -2 -6 -2 -1 -2 -2 -2 -8 0 -6 0 -7 -2 -8 -2 -1 -2 -2 -2 -8 0 -6 0 -7 -2 -8 -2 -1 -2 -2 -2 -8 0 -6 0 -7 -2 -8 -2 -1 -2 -2 -2 -6 0 -4 0 -5 -2 -6 -2 -1 -2 -2 -2 -8 0 -6 0 -7 -2 -8 -2 -1 -2 -2 -2 -8 0 -6 0 -7 -2 -8 -2 -1 -2 -2 -2 -8 0 -6 0 -7 -2 -8 -2 -1 -2 -2 -2 -8 0 -6 0 -7 -2 -8 -2 -1 -2 -2 -2 -6 0 -4 0 -5 -2 -6 -2 -1 -2 -2 -2 -8 0 -6 0 -7 -2 -8 -2 -1 -2 -2 -2 -8 0 -6 0 -7 -2 -8 -2 -1 -2 -2 -2 -8 0 -6 0 -7 -2 -8 -2 -1 -2 -2 -2 -6 0 -4 0 -5 -2 -6 -2 -1 -2 -2 -2 -6 l1 -5 53 0 54 0 0 3 c0 2 1 3 2 4 2 1 2 2 2 8 0 6 0 7 2 8 2 1 2 2 2 8 0 6 0 7 2 8 2 1 2 2 2 8 0 6 0 7 2 8 2 1 2 2 2 6 0 4 0 5 2 6 2 1 2 2 2 8 0 6 0 7 2 8 2 1 2 2 2 8 0 6 0 7 2 8 2 1 2 2 2 6 0 4 0 5 2 6 2 1 2 2 2 8 0 6 0 7 2 8 2 1 2 2 2 8 0 6 0 7 2 8 2 1 2 2 2 8 0 6 0 7 2 8 2 1 2 2 2 8 0 6 0 7 2 8 1 1 2 2 2 4 l1 4 49 0 50 1 0 5 c0 4 1 5 2 6 2 1 2 2 2 8 0 6 0 7 2 8 2 1 2 2 2 8 0 6 0 7 2 8 2 1 2 2 2 8 0 6 0 7 2 8 2 1 2 2 2 8 0 6 0 7 2 8 2 1 2 2 2 4 l0 4 -45 0 -45 0 -3 3 c-4 3 -4 7 -1 9 2 1 2 2 2 6 0 4 0 5 2 6 2 1 2 2 2 8 0 6 0 7 2 8 2 1 2 2 2 8 0 6 0 7 2 8 2 1 2 2 2 6 0 4 0 5 2 6 2 1 2 2 2 8 0 6 0 7 2 8 2 1 2 2 2 6 0 3 1 5 3 7 l3 3 55 0 55 1 0 7 c0 6 0 7 2 8 2 1 2 2 2 8 0 6 0 7 2 8 2 1 2 2 2 8 0 6 0 7 2 8 2 1 2 2 2 8 0 6 0 7 2 8 2 1 2 2 2 6 0 4 0 5 2 6 6 4 4 4 -108 4 l-108 0 -3 -3z M2156 459 c0 -1 1 -2 2 -3 2 -1 2 -2 2 -28 0 -26 0 -27 2 -28 2 -1 2 -2 2 -34 0 -32 0 -33 2 -34 2 -1 2 -2 2 -26 0 -24 0 -25 2 -26 2 -1 2 -2 2 -34 0 -32 0 -33 2 -34 2 -1 2 -2 2 -22 0 -20 0 -21 -2 -22 -2 -1 -2 -2 -2 -6 0 -4 0 -5 -2 -6 -2 -1 -2 -2 -2 -8 0 -6 0 -7 -2 -8 -2 -1 -2 -2 -2 -6 0 -4 0 -5 -2 -6 -2 -1 -2 -2 -2 -8 0 -6 0 -7 -2 -8 -2 -1 -2 -2 -2 -8 0 -6 0 -7 -2 -8 -2 -1 -2 -2 -2 -6 0 -4 0 -5 -2 -6 -2 -1 -2 -2 -2 -8 0 -6 0 -7 -2 -8 -2 -1 -2 -2 -2 -8 0 -6 0 -7 -2 -8 -2 -1 -2 -2 -2 -8 0 -6 0 -7 -2 -8 -2 -1 -2 -2 -2 -6 0 -4 0 -5 -2 -6 -2 -1 -2 -2 -2 -6 l1 -5 53 0 54 0 0 5 c0 4 1 5 2 6 2 1 2 2 2 8 0 6 0 7 2 8 2 1 2 2 2 6 0 4 0 5 2 6 2 1 2 2 2 8 0 6 0 7 2 8 2 1 2 2 2 8 0 6 0 7 2 8 2 1 2 2 2 8 0 6 0 7 2 8 2 1 2 2 2 6 0 4 0 5 2 6 2 1 2 2 2 8 0 6 0 7 2 8 2 1 2 2 2 8 0 6 0 7 2 8 2 1 2 2 2 8 0 6 0 7 2 8 2 1 2 2 2 6 0 4 0 5 2 6 1 1 2 2 2 4 0 2 1 3 2 4 1 1 2 2 2 4 0 2 1 3 2 4 1 1 2 2 2 4 0 2 1 4 4 6 3 2 4 4 4 6 0 2 1 3 2 4 1 1 2 2 2 4 0 2 1 4 4 6 3 2 4 4 4 6 0 2 1 3 2 4 1 1 2 2 2 4 0 2 1 3 2 4 1 1 2 2 2 4 0 2 1 4 4 6 3 2 4 4 4 6 0 2 1 3 2 4 1 1 2 2 2 4 0 2 1 3 2 4 1 1 2 2 2 4 0 2 1 4 4 6 3 2 4 4 4 6 0 2 1 3 2 4 1 1 2 2 2 4 0 2 1 4 4 6 3 2 4 4 4 6 0 2 1 3 2 4 1 1 2 2 2 4 0 2 1 3 2 4 1 1 2 2 2 4 0 2 1 4 4 6 3 2 4 4 4 6 0 2 1 3 2 4 1 1 2 2 2 4 0 2 1 3 2 4 1 1 2 2 2 4 0 2 1 4 4 6 3 2 4 4 4 6 0 2 1 3 2 4 1 1 2 2 2 4 0 2 1 4 4 6 3 2 4 4 4 6 0 2 1 3 2 4 1 1 2 2 2 4 0 2 1 3 2 4 1 1 2 2 2 4 0 2 1 4 4 6 3 2 4 4 4 6 0 2 1 3 2 4 1 1 2 2 2 4 0 2 1 3 2 4 1 1 2 2 2 4 0 2 1 4 4 6 3 2 4 4 4 6 0 2 1 3 2 4 1 1 2 2 2 4 0 2 1 3 2 4 1 1 2 2 2 4 0 1 1 4 4 6 7 6 8 6 -51 6 l-52 0 -1 -4 c0 -2 -1 -3 -2 -4 -1 -1 -2 -2 -2 -4 0 -2 -1 -3 -2 -4 -1 -1 -2 -2 -2 -4 0 -2 -1 -3 -2 -4 -1 -1 -2 -2 -2 -4 0 -2 -1 -3 -2 -4 -1 -1 -2 -2 -2 -4 0 -2 -1 -3 -2 -4 -1 -1 -2 -2 -2 -4 0 -2 -1 -3 -2 -4 -1 -1 -2 -2 -2 -4 0 -2 -1 -3 -2 -4 -1 -1 -2 -2 -2 -4 0 -2 -1 -3 -2 -4 -1 -1 -2 -2 -2 -4 0 -2 -1 -3 -2 -4 -1 -1 -2 -2 -2 -4 0 -2 -1 -3 -2 -4 -1 -1 -2 -2 -2 -4 0 -2 -1 -3 -2 -4 -1 -1 -2 -2 -2 -4 0 -2 -1 -3 -2 -4 -1 -1 -2 -2 -2 -4 0 -2 -1 -3 -2 -4 -1 -1 -2 -2 -2 -4 0 -2 -1 -3 -2 -4 -2 -1 -2 -2 -2 -6 0 -4 0 -5 -2 -6 -1 -1 -2 -2 -2 -4 0 -2 -1 -3 -2 -4 -1 -1 -2 -2 -2 -4 0 -2 -1 -3 -2 -4 -1 -1 -2 -2 -2 -4 0 -2 -1 -3 -2 -4 -1 -1 -2 -2 -2 -4 0 -2 -1 -3 -2 -3 -1 0 -2 9 -2 77 l0 78 -54 0 c-40 0 -53 0 -54 -1z"/></g></svg>