<svg xmlns="http://www.w3.org/2000/svg" viewBox="0 0 362 413"><g transform="translate(0,413) scale(1,-1)"><path fill="#E6F557" d="M169.8 406.8 c-0.2 0 -0.8 -0.2 -1.2 -0.5 -0.2 0 -1 -0.2 -1.2 -0.2 -0.5 0 -0.8 -0.2 -1 -0.5 -0.2 0 -0.8 -0.5 -1 -0.8 -1 -0.2 -1.5 -0.8 -2.5 -1.2 -0.2 -0.2 -0.8 -0.5 -1 -0.5 -0.2 0 -0.8 -0.2 -0.8 -0.5 -0.2 -0.2 -0.8 -0.5 -1.2 -0.5 -0.2 0 -0.5 -0.2 -0.8 -0.5 0 0 -0.5 -0.5 -0.8 -0.8 -1 -0.2 -1.5 -0.5 -2.5 -1.2 -0.2 -0.2 -0.8 -0.5 -1 -0.5 -0.2 0 -0.5 -0.2 -0.8 -0.5 -0.2 -0.2 -0.5 -0.5 -0.8 -0.5 -0.2 0 -0.8 -0.2 -0.8 -0.5 -0.2 -0.2 -0.8 -0.5 -0.8 -0.5 -0.2 0 -0.8 -0.2 -0.8 -0.5 -0.2 -0.2 -0.8 -0.5 -1.2 -0.5 -0.2 0 -0.5 -0.2 -0.8 -0.5 -0.2 -0.2 -0.5 -0.5 -0.5 -0.5 -0.2 0 -0.8 -0.2 -1 -0.5 -0.5 -0.2 -0.8 -0.5 -1 -0.5 -0.2 0 -0.8 -0.2 -1 -0.5 -0.5 -0.2 -0.8 -0.5 -1 -0.5 -0.2 0 -0.5 -0.2 -0.8 -0.5 -0.2 -0.2 -0.8 -0.5 -1 -0.5 -0.2 0 -0.5 -0.2 -0.8 -0.5 -0.2 -0.2 -0.5 -0.5 -0.8 -0.5 -0.5 0 -0.8 -0.2 -1 -0.5 -0.2 0 -0.8 -0.5 -1 -0.8 -1.2 -0.5 -2 -0.8 -2.5 -1.2 -0.2 -0.2 -0.5 -0.5 -0.8 -0.5 -0.2 0 -0.8 -0.2 -0.8 -0.5 -0.2 -0.2 -0.8 -0.5 -1 -0.5 -0.2 0 -0.8 -0.2 -0.8 -0.5 -0.2 -0.2 -0.8 -0.5 -1 -0.5 -0.2 0 -0.5 -0.2 -0.8 -0.5 -0.2 -0.2 -0.8 -0.5 -1 -0.5 -0.2 0 -0.5 -0.2 -0.8 -0.5 -0.2 -0.2 -0.5 -0.5 -0.8 -0.5 -0.2 0 -0.5 -0.2 -0.8 -0.2 -0.5 -0.5 -1.2 -1 -2.8 -1.5 -0.2 -0.2 -0.8 -0.8 -1 -0.8 -0.2 -0.2 -0.5 -0.5 -1 -0.5 -0.2 0 -0.5 -0.2 -0.8 -0.5 -0.2 -0.2 -0.5 -0.5 -0.8 -0.5 -0.5 0 -0.8 -0.2 -1 -0.5 -0.2 0 -0.8 -0.5 -1 -0.8 -1.2 -0.5 -2 -0.8 -2.5 -1.2 -0.2 -0.2 -0.8 -0.5 -1 -0.5 -0.2 0 -0.5 -0.2 -0.8 -0.5 -0.2 -0.2 -0.5 -0.5 -0.8 -0.5 -0.2 0 -0.8 -0.2 -1 -0.5 -1 -0.5 -1.5 -1 -2.5 -1.2 -0.2 -0.2 -0.8 -0.8 -1 -0.8 -0.2 -0.2 -0.5 -0.5 -0.8 -0.5 -0.2 0 -0.5 -0.2 -0.8 -0.5 -0.2 0 -0.8 -0.5 -1 -0.8 -1 -0.2 -1.5 -0.8 -2.5 -1.2 -0.2 -0.2 -0.8 -0.5 -1 -0.5 -0.2 0 -0.8 -0.2 -0.8 -0.5 -0.2 -0.2 -0.8 -0.5 -1 -0.5 -0.2 0 -0.5 -0.2 -0.8 -0.5 -0.2 0 -0.8 -0.5 -1 -0.8 -1.2 -0.5 -2 -0.8 -2.5 -1.2 -0.2 -0.2 -0.5 -0.5 -0.8 -0.5 -0.2 0 -0.5 -0.2 -0.8 -0.5 -0.5 -0.5 -1.2 -0.8 -2.5 -1.2 -0.2 -0.2 -0.8 -0.8 -1 -0.8 -0.2 -0.2 -0.5 -0.5 -0.8 -0.5 -0.2 0 -0.8 -0.2 -0.8 -0.5 -0.2 -0.2 -0.8 -0.5 -1 -0.5 -0.2 0 -0.5 -0.2 -0.8 -0.2 -0.5 -0.5 -1.2 -1 -2.8 -1.5 -0.2 -0.2 -0.8 -0.8 -0.8 -0.8 -0.2 -0.2 -0.5 -0.5 -0.8 -0.5 -0.5 0 -1 -0.2 -1 -0.5 -0.2 -0.2 -0.8 -0.5 -1 -0.5 -0.2 0 -0.8 -0.2 -0.8 -0.5 -0.2 -0.2 -0.8 -0.5 -0.8 -0.5 -0.2 0 -0.5 -0.2 -1 -0.5 -0.2 -0.2 -0.8 -0.5 -1 -0.5 -0.2 0 -0.5 -0.2 -0.8 -0.5 -0.2 -0.2 -0.5 -0.5 -0.8 -0.5 -0.5 0 -0.8 -0.2 -1 -0.5 -0.2 0 -0.8 -0.5 -1 -0.8 -1.2 -0.5 -2 -0.8 -2.5 -1.2 -0.2 -0.2 -0.5 -0.5 -0.8 -0.5 -0.2 0 -0.5 -0.2 -0.8 -0.5 -0.2 0 -0.8 -0.5 -1 -0.8 -1.2 -0.5 -2 -0.8 -2.5 -1.2 -0.2 -0.2 -0.5 -0.5 -0.8 -0.5 -0.2 0 -0.5 -0.2 -0.8 -0.5 -0.2 0 -0.8 -0.5 -1 -0.8 -1.5 -0.5 -2.2 -1 -2.8 -1.5 -0.2 0 -0.5 -0.2 -0.8 -0.2 -0.2 0 -0.5 -0.2 -0.8 -0.5 -0.2 -0.2 -0.5 -0.5 -0.8 -0.5 -0.5 0 -0.8 -0.2 -1 -0.5 -0.2 0 -0.8 -0.5 -1 -0.8 -1.5 -0.5 -2 -1 -2.2 -1.2 -0.2 -0.2 -0.5 -0.5 -0.8 -0.5 -0.2 0 -2 -1 -2.8 -1.8 -0.2 0 -0.5 -0.2 -0.8 -0.2 -0.2 0 -0.5 -0.2 -0.8 -0.5 -0.2 -0.2 -0.8 -0.5 -1 -0.5 -0.2 0 -0.8 -0.2 -0.8 -0.5 -0.2 -0.2 -0.8 -0.5 -1 -0.5 -0.2 0 -0.8 -0.2 -1 -0.5 -0.5 -0.5 -1.2 -0.8 -2.5 -1.2 -0.2 -0.2 -0.8 -0.8 -0.8 -0.8 -0.2 -0.2 -0.5 -0.5 -0.8 -0.5 -0.2 0 -0.5 -0.2 -0.8 -0.2 -0.5 -0.5 -1.2 -1 -2.8 -1.5 -0.2 -0.2 -0.8 -0.8 -1 -0.8 -0.2 -0.2 -0.5 -0.5 -1 -0.5 -0.2 0 -0.5 -0.2 -0.8 -0.5 -0.2 -0.2 -0.5 -0.5 -0.8 -0.5 -0.2 0 -0.8 -0.2 -0.8 -0.5 -0.2 -0.2 -0.8 -0.5 -1 -0.5 0 0 -0.5 -0.2 -0.8 -0.5 -0.2 -0.2 -0.8 -0.5 -1 -0.5 -0.2 0 -0.5 -0.2 -0.8 -0.5 -0.2 -0.2 -0.5 -0.5 -0.8 -0.5 -0.2 0 -0.5 -0.2 -0.8 -0.2 -0.8 -0.8 -2.5 -1.8 -2.8 -1.8 -0.2 0 -0.5 -0.2 -0.8 -0.5 -0.2 -0.2 -0.5 -0.5 -0.8 -0.5 -0.5 0 -1 -0.2 -1 -0.5 -0.2 -0.2 -0.8 -0.5 -1 -0.5 -0.2 0 -0.8 -0.2 -1 -0.5 -0.2 -0.2 -0.5 -0.5 -0.8 -0.5 0 0 -0.5 -0.2 -0.8 -0.5 -0.2 -0.2 -0.8 -0.5 -1 -0.5 -0.2 0 -0.5 -0.2 -0.8 -0.5 -0.2 -0.2 -0.5 -0.5 -0.8 -0.5 -0.2 0 -0.8 -0.2 -0.8 -0.5 -0.2 -0.2 -0.8 -0.5 -1 -0.5 0 0 -0.5 -0.2 -0.8 -0.5 -0.2 -0.2 -0.8 -0.5 -1 -0.5 -0.2 0 -0.5 -0.2 -0.8 -0.5 -0.2 -0.2 -0.8 -0.5 -1 -0.5 0 0 -0.8 -0.5 -1.5 -1 -0.8 -0.5 -1.5 -1 -1.8 -1 -0.2 0 -4.5 -4 -5 -4.8 0 -0.5 -0.5 -1.2 -1 -2 l-0.8 -1.5 0 -98.5 0 -98.2 0.5 -0.8 c0.2 -0.5 0.5 -1 0.5 -1.2 0 -0.2 0.2 -0.8 0.5 -0.8 0.2 -0.2 0.5 -0.8 0.5 -1 0 -0.2 2.8 -3.2 3 -3.2 0.2 0 0.8 -0.5 1.5 -1 0.8 -0.5 1.2 -1 1.5 -1 0.2 0 0.5 -0.2 2 -1.5 0.5 -0.2 0.8 -0.5 1 -0.5 0.2 0 0.8 -0.5 1.5 -1 0.5 -0.5 1.2 -1 1.5 -1 0.5 0 0.8 -0.2 1 -0.5 0.2 -0.2 0.8 -0.5 0.8 -0.5 0.5 0 0.8 -0.2 2.2 -1.5 0.5 -0.2 0.8 -0.5 1 -0.5 0.2 0 0.5 -0.2 0.8 -0.5 0.5 -0.5 1.2 -0.8 2.5 -1.2 0.2 -0.2 0.8 -0.8 1 -0.8 0.2 -0.2 0.5 -0.5 0.8 -0.5 0 0 0.8 -0.5 1.5 -1 0.8 -0.5 1.5 -1 1.8 -1 0.2 0 0.5 -0.2 0.8 -0.5 0.2 -0.2 0.5 -0.5 0.8 -0.5 0.2 0 0.8 -0.2 1 -0.5 0.2 -0.2 0.8 -0.5 0.8 -0.5 0 0 0.5 -0.2 0.8 -0.5 0.2 -0.2 0.8 -0.5 1 -0.5 0.2 0 0.5 -0.2 0.8 -0.5 0 0 0.5 -0.5 0.8 -0.8 1.2 -0.5 2 -0.8 2.5 -1.2 0.2 -0.2 0.8 -0.5 1 -0.5 0.5 -0.2 0.8 -0.2 0.8 -0.5 0 -0.2 0.2 -0.5 0.8 -0.8 1.2 -0.5 2 -0.8 2.5 -1.2 0.2 -0.2 0.5 -0.5 0.8 -0.5 0.2 0 0.5 -0.2 0.8 -0.5 0.5 -0.5 1.2 -0.8 2.5 -1.2 0.2 -0.2 0.8 -0.8 0.8 -0.8 0.2 -0.2 0.5 -0.5 0.8 -0.5 0.2 0 0.8 -0.2 1.2 -0.5 1.5 -1.2 1.8 -1.5 2.2 -1.5 0.2 0 0.5 -0.2 0.8 -0.5 0.2 -0.2 0.5 -0.5 0.5 -0.5 0.2 0 0.8 -0.2 1 -0.5 0.5 -0.2 0.8 -0.5 1 -0.5 0.2 0 0.8 -0.2 0.8 -0.5 0.2 -0.2 0.8 -0.5 1 -0.5 0.2 0 0.5 -0.2 0.8 -0.5 0.2 -0.2 0.5 -0.5 0.8 -0.5 0.2 0 1 -0.5 1.8 -1 0.8 -0.5 1.2 -1 1.5 -1 0.2 0 0.5 -0.2 0.8 -0.5 0.5 -0.5 1.2 -0.8 2.5 -1.2 0.2 -0.2 0.8 -0.8 0.8 -0.8 0.2 -0.2 0.5 -0.5 0.8 -0.5 0.2 0 0.8 -0.2 1 -0.5 0.5 -0.5 1.2 -0.8 2.5 -1.2 0.2 -0.2 0.8 -0.8 1 -0.8 0.2 -0.2 0.5 -0.5 0.8 -0.5 0.2 0 0.5 -0.2 0.8 -0.5 0.2 0 0.8 -0.5 1 -0.8 1.2 -0.5 2 -0.8 2.5 -1.2 0.2 -0.2 0.5 -0.5 0.8 -0.5 0.2 0 0.8 -0.2 0.8 -0.5 0.2 -0.2 0.8 -0.5 0.8 -0.5 0.2 0 0.5 -0.2 0.8 -0.5 0.2 -0.2 0.8 -0.5 1 -0.5 0.2 0 0.5 -0.2 0.8 -0.5 0.2 -0.2 0.5 -0.5 0.8 -0.5 0.5 0 1 -0.2 1 -0.5 0.2 -0.2 0.8 -0.5 0.8 -0.5 0.2 0 0.8 -0.2 1 -0.5 0 -0.2 0.5 -0.5 0.8 -0.5 0.2 0 0.5 -0.2 0.8 -0.5 0.2 -0.2 0.5 -0.5 0.8 -0.5 0.2 0 0.8 -0.2 1 -0.5 0.2 -0.2 0.8 -0.5 0.8 -0.5 0 0 0.5 -0.2 0.8 -0.5 0.2 -0.2 0.8 -0.5 1 -0.5 0.2 0 0.5 -0.2 0.8 -0.5 0.2 -0.2 0.5 -0.5 0.8 -0.5 0.2 0 0.8 -0.2 0.8 -0.5 0.2 -0.2 0.8 -0.5 1 -0.5 0.2 0 0.5 0 0.8 -0.2 0 -0.2 0.5 -0.5 1 -0.8 0.2 0 0.8 -0.2 0.8 -0.5 0 0 0.5 -0.2 1 -0.5 0.2 -0.2 0.8 -0.5 0.8 -0.5 0 -0.2 0.2 -0.2 0.5 -0.5 0.5 0 1 -0.2 1.2 -0.5 0.2 -0.2 0.5 -0.5 0.8 -0.5 0.2 0 0.5 -0.2 0.8 -0.5 0 0 0.5 -0.5 0.8 -0.8 0.5 0 1.2 -0.5 1.8 -0.8 0.2 -0.2 1 -0.8 1.5 -0.8 0.2 -0.2 0.8 -0.5 1 -0.8 0 -0.2 0.5 -0.5 0.8 -0.8 1.2 -0.5 2 -0.8 2.5 -1.2 0.2 -0.2 0.8 -0.5 1 -0.5 0.2 0 0.5 -0.2 0.8 -0.5 0.2 -0.2 0.5 -0.5 0.8 -0.5 0.2 0 0.8 -0.2 1 -0.5 1 -0.5 1.5 -1 2.5 -1.2 0.2 -0.2 0.8 -0.8 1 -0.8 0.2 -0.2 0.5 -0.5 0.5 -0.5 0.5 0 0.8 -0.2 2.2 -1.5 0.5 -0.2 1 -0.5 1 -0.5 0.2 0 0.8 -0.2 1 -0.5 0.2 -0.2 0.5 -0.5 1 -0.5 0.2 0 0.8 -0.2 0.8 -0.5 0.2 -0.2 0.8 -0.5 0.8 -0.5 0.2 0 0.5 -0.2 0.8 -0.5 0.2 -0.2 0.8 -0.5 1 -0.5 0.2 0 0.5 -0.2 0.8 -0.5 0.2 -0.2 0.5 -0.5 0.8 -0.5 0.2 0 0.8 -0.2 1 -0.5 0.5 -0.5 1.2 -0.8 2.5 -1.2 0.5 -0.2 0.8 -0.5 0.8 -0.8 0 -0.2 0.2 -0.2 0.8 -0.5 0.2 0 0.8 -0.2 1 -0.5 0.5 -0.5 1.2 -0.8 2.5 -1.2 0.2 -0.2 0.8 -0.8 1 -0.8 0.2 -0.2 0.5 -0.5 0.8 -0.5 0.2 0 0.5 -0.2 0.8 -0.5 0.2 0 0.8 -0.5 1 -0.8 1.2 -0.5 1.8 -0.8 2.2 -1.2 0.2 -0.2 0.8 -0.5 1 -0.5 0.2 0 0.8 -0.2 1 -0.5 0.2 -0.2 0.5 -0.5 0.8 -0.5 0.2 0 0.5 -0.2 0.8 -0.2 0.8 -0.8 2.5 -1.8 2.8 -1.8 0.2 0 0.5 -0.2 0.8 -0.5 0.2 -0.2 0.5 -0.5 0.8 -0.5 0.5 0 0.8 -0.2 2.2 -1.5 0.5 -0.2 1 -0.5 1.2 -0.5 0.2 0 0.5 -0.2 0.8 -0.5 0.2 -0.2 0.5 -0.5 0.8 -0.5 0.2 0 0.8 -0.2 1.2 -0.5 1.5 -1.2 1.8 -1.5 2.2 -1.5 0.2 0 0.8 -0.2 1 -0.5 0 -0.2 0.5 -0.5 0.8 -0.5 0.2 0 0.5 -0.2 0.8 -0.5 0.2 0 0.8 -0.5 1 -0.8 0.5 0 1 -0.2 1.2 -0.5 0.2 -0.2 0.8 -0.2 1 -0.5 0.2 -0.2 0.8 -0.5 1.2 -0.5 0.2 -0.2 0.8 -0.8 1 -0.8 0.2 -0.2 0.5 -0.5 0.8 -0.5 0.5 0 1 -0.2 1.2 -0.5 0.2 -0.2 1 -0.5 1.5 -0.5 0.5 0 1.2 -0.2 1.8 -0.5 1.5 -0.5 4 -0.8 5.5 0 1 0.2 2 0.5 2.5 0.5 0.2 0 1 0.2 1.2 0.5 0.5 0.2 1.8 1 3.5 1.8 0.2 0.2 1 0.5 1.8 0.8 0.5 0.5 1 0.8 1.2 1 1 0.2 1.2 0.5 2.8 1.2 0.2 0.2 0.8 0.5 1.2 0.8 0.5 0 1 0.5 1.2 0.8 0.2 0 0.5 0.2 0.8 0.2 0.2 0 0.8 0.2 1 0.5 0 0.2 0.5 0.5 1 0.5 0.2 0 0.8 0.2 1 0.5 0 0.2 0.5 0.5 1 0.5 0.2 0 0.8 0.2 1 0.5 0 0.2 0.5 0.5 0.8 0.5 0.2 0 0.8 0.2 1 0.5 0 0.2 0.8 0.5 1 0.5 0.5 0 0.8 0.2 1 0.5 0.2 0.2 0.5 0.5 0.8 0.5 0.5 0 1 0.2 1.2 0.5 0 0.2 0.5 0.5 1 0.5 0.2 0 0.8 0.2 1 0.5 0 0.2 0.5 0.5 1 0.5 0.2 0 0.5 0.2 0.8 0.5 0.2 0 0.8 0.5 1 0.8 0.5 0 1 0.2 1.2 0.5 0.2 0 0.8 0.2 1 0.5 0.5 0.2 0.8 0.2 2 1 0.2 0.2 0.8 0.5 1.2 0.8 0.5 0 1 0.5 1.2 0.8 0.2 0 0.5 0.2 0.8 0.2 0.2 0 0.5 0.2 1 0.5 0.2 0.2 0.8 0.5 1 0.5 0.2 0 0.5 0.2 0.8 0.2 0 0.2 0.5 0.5 1 0.8 0.5 0.2 1 0.5 1 0.8 0.2 0 0.5 0.2 0.8 0.2 0.5 0 0.8 0.2 1 0.5 0.2 0 0.8 0.5 1 0.8 1.5 0.5 2.2 1 2.8 1.5 0.2 0 0.5 0.2 0.8 0.2 0.2 0 0.5 0.2 1 0.5 0.2 0.2 0.8 0.5 1 0.5 0.2 0 0.8 0.2 1 0.5 0 0.2 0.5 0.5 0.8 0.5 0.2 0 0.8 0.2 1 0.5 0.2 0.2 0.5 0.5 0.8 0.5 0.2 0 0.5 0.2 0.8 0.2 0.2 0.2 0.8 0.8 1.2 0.8 0.5 0.2 1 0.5 1.2 0.8 1.2 0.5 1.5 0.8 2 1 0.2 0.2 1 0.5 1.2 0.8 0.2 0.2 0.8 0.5 1 0.5 0.2 0 0.5 0.2 0.8 0.5 0.2 0.2 0.5 0.5 1 0.5 0.2 0 0.8 0.2 1 0.5 0.2 0.2 0.5 0.5 1 0.5 0.2 0 0.5 0.2 0.8 0.5 0.2 0 0.8 0.5 1 0.8 1.5 0.5 2.2 1 2.8 1.5 0.2 0 0.5 0.2 0.8 0.2 0.2 0 0.8 0.2 1 0.5 0 0.2 0.5 0.5 1 0.5 0.2 0 0.5 0.2 0.8 0.5 0.2 0.2 0.5 0.5 0.8 0.5 0.5 0 1 0.2 1.2 0.5 0 0.2 0.5 0.5 1 0.5 0.2 0 0.8 0.2 1 0.5 0 0.2 0.5 0.5 0.8 0.5 0.2 0 0.8 0.2 1 0.5 0 0.2 0.5 0.5 0.8 0.5 0.2 0 0.5 0.2 1 0.5 0.2 0.2 0.8 0.5 1 0.5 0.2 0 0.5 0.2 1 0.5 0.2 0.2 0.8 0.5 0.8 0.5 0.2 0 0.8 0.2 1 0.5 0.2 0.2 0.8 0.5 1 0.5 0.2 0 0.5 0.2 0.8 0.5 0.2 0.2 0.8 0.5 1 0.5 0.2 0 0.8 0.2 1 0.5 0 0.2 0.5 0.5 0.8 0.5 0.2 0 0.8 0.2 1 0.5 0.5 0.5 1.2 0.8 2.5 1.2 0.2 0.2 0.8 0.8 1 0.8 0.2 0.2 0.5 0.5 0.8 0.5 0.2 0 0.8 0.2 1 0.5 0.2 0.2 0.8 0.5 1 0.5 0.5 0 0.8 0.2 1 0.5 0.2 0.2 0.5 0.5 0.8 0.5 0.2 0 0.8 0.2 1 0.5 0.5 0.2 1.2 0.8 2.2 1.2 0.2 0.2 1 0.5 1.2 0.8 0.2 0.2 0.8 0.5 1 0.5 0.2 0 0.8 0.2 1 0.5 0 0.2 0.5 0.5 1 0.5 0.2 0 0.5 0.2 0.8 0.5 0.2 0.2 0.5 0.5 0.8 0.5 0.5 0 1 0.2 1.2 0.5 0 0.2 0.5 0.5 0.8 0.5 0 0 0.5 0.2 0.8 0.5 0.5 0.2 1 0.5 1.2 0.5 0.2 0 0.8 0.2 1 0.5 0 0.2 0.5 0.5 0.8 0.5 0.2 0 0.5 0.2 1 0.5 0.2 0.2 0.8 0.5 0.8 0.5 0.2 0 0.8 0.2 1 0.5 0 0.2 0.5 0.5 0.8 0.5 0.2 0 0.8 0.2 1 0.5 0.2 0.2 0.8 0.5 1 0.5 0.2 0 0.5 0.2 0.8 0.5 0.2 0 0.8 0.5 1 0.8 0.5 0 1 0.2 1.2 0.5 0.2 0.2 0.8 0.2 1 0.5 0.2 0.2 0.8 0.5 1.2 0.5 0.2 0.2 0.8 0.8 0.8 0.8 0.2 0.2 0.5 0.5 0.8 0.5 0.8 0 3.5 2.5 4.5 4 1 1 1 2.8 0.2 3.5 -0.2 0.5 -0.5 0.8 -0.5 0.8 0 0.5 -1.5 2.5 -2 2.8 -0.8 0.2 -1 0.8 -1.8 1.5 -0.5 0.2 -1 0.5 -1.2 0.5 -0.5 0.2 -0.8 0.2 -0.8 0.5 0 0 -0.2 0.2 -0.8 0.5 -0.5 0.2 -0.8 0.5 -0.8 0.5 0 0 -0.5 0.2 -0.8 0.5 -0.5 0.2 -1 0.5 -1 0.5 0 0.2 -0.8 0.8 -2.2 1.2 -0.2 0.2 -0.8 0.8 -1 0.8 -0.2 0.2 -0.5 0.5 -0.8 0.5 -0.2 0 -0.8 0.2 -1 0.5 -0.2 0.2 -1.2 1 -2.5 1.5 -0.2 0 -0.5 0.5 -0.8 0.5 -0.2 0.2 -0.5 0.5 -1 0.5 -0.2 0 -0.5 0.2 -0.8 0.5 -0.2 0.2 -0.5 0.5 -0.5 0.5 -0.2 0 -0.8 0.2 -1 0.5 0 0.2 -0.5 0.5 -0.8 0.5 0 0 -0.5 0.2 -0.8 0.5 0 0.2 -0.5 0.5 -0.8 0.5 -0.2 0 -1 0.5 -1.8 1 -0.8 0.5 -1.5 1 -1.5 1 -0.2 0 -0.5 0.2 -0.8 0.5 -0.5 0.5 -1.2 0.8 -2.5 1.2 -0.2 0.2 -0.8 0.8 -1 0.8 -0.2 0.2 -0.5 0.5 -0.8 0.5 -0.2 0 -0.5 0.2 -0.8 0.5 -0.5 0.5 -1.2 0.8 -2.5 1.2 -0.2 0.2 -0.8 0.8 -0.8 0.8 -0.2 0.2 -0.5 0.5 -0.8 0.5 -0.2 0 -2 1 -2.8 1.8 -0.2 0 -0.5 0.2 -0.8 0.2 -0.2 0 -0.5 0.2 -0.8 0.5 0 0 -0.5 0.5 -0.8 0.8 -1.2 0.5 -2 0.8 -2.5 1.2 -0.2 0.2 -0.8 0.5 -1 0.8 -0.2 0 -1 0.5 -1.5 0.8 -0.8 0.5 -1.5 0.8 -1.8 1 -0.2 0 -0.5 0.5 -0.5 0.5 0 0.2 -0.2 0.8 -0.5 1 -0.2 0 -0.5 0.5 -0.5 0.8 0 0 -0.2 0.5 -0.5 0.8 -0.8 0.8 -0.8 23 0 24.8 0.2 0.5 0.5 1 0.5 1.2 0 0.5 2.2 3 2.8 3 0 0 0.2 0.2 0.5 0.5 0.2 0.2 0.8 0.5 1 0.5 0.2 0 0.8 0.2 1 0.5 0 0.2 0.5 0.5 0.8 0.5 0.2 0 0.8 0.2 0.8 0.5 0.2 0.2 0.8 0.5 1.2 0.5 0.2 0 0.8 0.2 1 0.5 0 0.2 0.5 0.5 0.8 0.5 0.2 0 0.8 0.2 1 0.5 0 0.2 0.5 0.5 0.8 0.5 0 0 0.5 0.2 0.8 0.5 0 0.2 0.5 0.5 0.8 0.5 0.2 0 0.8 0.2 0.8 0.5 0.2 0.2 0.8 0.5 1 0.5 0.2 0 0.5 0.2 0.8 0.2 0.5 0.5 1.2 1 2.8 1.8 0.5 0 1 0.5 1.2 0.8 0.2 0 0.5 0.2 0.8 0.2 0.2 0 0.8 0.2 1 0.5 0 0.2 0.5 0.5 0.8 0.5 0.2 0 0.8 0.2 1 0.5 0 0.2 0.5 0.5 0.8 0.5 0.2 0 0.8 0.2 1 0.5 1 0.5 1.5 1 2.5 1.2 0.2 0.2 0.8 0.8 1 0.8 0.2 0.2 0.5 0.5 0.8 0.5 0.2 0 0.8 0.2 1 0.5 0.2 0.2 0.5 0.5 1 0.5 0.2 0 0.8 0.2 1 0.5 0 0.2 0.5 0.5 0.8 0.5 0.2 0 0.8 0.2 1 0.5 1 0.5 1.5 1 2.5 1.2 0.2 0.2 0.8 0.8 1 0.8 0.2 0.2 0.5 0.5 1 0.5 0.2 0 0.5 0.2 0.8 0.5 0.2 0.2 0.5 0.5 0.8 0.5 0.2 0 0.8 0.2 1 0.5 0.5 0.5 1.2 0.8 2.5 1.2 0.2 0.2 0.8 0.8 1 0.8 0.2 0.2 0.5 0.5 0.8 0.5 0.2 0 0.8 0.2 1 0.5 0 0.2 0.5 0.5 1 0.5 0.2 0 0.8 0.2 1 0.5 0 0.2 0.5 0.5 0.8 0.5 0 0 0.5 0.2 0.8 0.5 0.5 0.2 0.8 0.5 1 0.5 0.2 0 0.8 0.2 0.8 0.5 0.2 0.2 0.8 0.5 1 0.5 0.2 0 0.5 0.2 0.8 0.5 0.2 0.2 0.5 0.5 0.8 0.5 0.2 0 0.5 0.2 0.8 0.2 0.2 0.5 1 0.8 2.5 1.5 0.2 0.2 1 0.5 1.2 0.8 0.2 0.2 0.8 0.5 1 0.5 0.2 0 0.5 0.2 0.8 0.5 0.2 0.2 0.5 0.5 0.8 0.5 0.2 0 0.8 0.2 1 0.5 0.5 0.2 1.2 0.8 2.2 1.2 0.2 0.2 1 0.5 1.2 0.8 0.2 0.2 0.8 0.5 1 0.5 0.2 0 0.5 0.2 0.8 0.5 0.2 0.2 0.5 0.5 0.8 0.5 0.5 0 0.8 0.2 1 0.5 0.2 0 0.8 0.5 1 0.8 1.2 0.5 2 0.8 2.5 1.2 0.2 0.2 0.8 0.5 1 0.5 0.2 0 0.5 0.2 0.8 0.5 0.2 0.2 0.5 0.5 0.8 0.5 0.2 0 0.8 0.2 1 0.5 0.2 0.2 0.5 0.5 0.8 0.5 0 0 0.5 0.2 0.8 0.5 0.2 0.2 0.8 0.5 1 0.5 0.2 0 0.8 0.2 1 0.5 0 0.2 0.5 0.5 1 0.5 0.2 0 0.5 0.2 0.8 0.5 0.2 0.2 0.5 0.5 0.8 0.5 0.2 0 0.8 0.2 1 0.5 0 0.2 0.5 0.5 0.8 0.5 0.2 0 0.5 0.2 1 0.5 0.2 0.2 0.8 0.5 1 0.5 0 0 0.2 0.2 0.5 0.5 0.2 0.2 0.5 0.5 0.8 0.5 0.5 0 0.8 0.2 1 0.5 0.2 0 0.8 0.5 1 0.8 3 1.2 5.2 4.2 5.2 6.2 0 1.5 -1.8 4.5 -2.8 4.5 0 0 -0.2 0.2 -0.5 0.5 -0.2 0.2 -0.8 0.5 -1 0.5 -0.2 0 -0.5 0.2 -0.8 0.5 0 0 -0.5 0.5 -0.8 0.8 -1.5 0.5 -2 1 -2.2 1.2 -0.2 0.2 -0.5 0.5 -0.8 0.5 -0.2 0 -0.5 0.2 -0.8 0.2 -0.2 0.2 -0.8 0.8 -1.2 0.8 -1.2 0.8 -2 1 -2.5 1.5 -0.2 0.2 -0.5 0.5 -0.8 0.5 -0.2 0 -0.8 0.2 -1 0.5 0 0.2 -0.5 0.5 -0.8 0.5 0 0 -0.2 0.2 -0.5 0.2 0 0.2 -0.2 0.5 -0.5 0.8 -0.5 0 -0.8 0.2 -1 0.5 -0.5 0.5 -1.2 0.8 -2.5 1.2 -0.2 0.2 -0.8 0.8 -1 0.8 -0.2 0.2 -0.5 0.5 -0.8 0.5 -0.2 0 -0.5 0.2 -0.8 0.5 -0.2 0 -0.8 0.5 -1 0.8 -1.2 0.5 -2 0.8 -2.5 1.2 -0.2 0.2 -0.8 0.5 -1 0.5 -0.2 0 -0.5 0.2 -0.8 0.5 -0.2 0.2 -0.5 0.5 -0.8 0.5 -0.2 0 -0.8 0.2 -1 0.5 -1 0.8 -1.5 1 -2.5 1.2 -0.2 0.2 -0.8 0.8 -0.8 0.8 -0.2 0.2 -0.5 0.5 -0.8 0.5 -0.5 0 -0.8 0.2 -1 0.5 -0.2 0 -0.8 0.5 -1 0.8 -1.5 0.5 -2.2 1 -2.2 1.2 0 0.2 -0.2 0.5 -0.8 0.8 -1.2 0.5 -2 0.8 -2.5 1.2 -0.2 0.2 -0.5 0.5 -0.8 0.5 -0.2 0 -0.5 0.2 -0.8 0.5 -0.2 0 -0.8 0.5 -1 0.8 -1.2 0.5 -2 0.8 -2.5 1.2 -0.2 0.2 -0.5 0.5 -0.8 0.5 -0.2 0 -0.8 0.5 -1.5 1 -0.8 0.5 -1.5 1 -1.8 1 -0.2 0 -0.5 0.2 -0.8 0.5 -0.2 0.2 -0.5 0.5 -0.8 0.5 -0.2 0 -0.5 0.2 -0.8 0.2 -0.8 0.8 -2.5 1.8 -2.8 1.8 -0.2 0 -0.5 0.2 -0.8 0.5 -0.2 0.2 -0.8 0.8 -2.2 1.2 -0.5 0.2 -0.8 0.5 -0.8 0.8 0 0.2 -0.2 0.2 -0.8 0.5 -0.2 0 -0.8 0.2 -1 0.5 -0.5 0.5 -1.2 0.8 -2.5 1.2 -0.2 0.2 -0.8 0.8 -0.8 0.8 -0.2 0.2 -0.5 0.5 -0.8 0.5 -0.2 0 -0.8 0.2 -1 0.5 -0.2 0.2 -0.8 0.5 -1 0.5 -0.2 0.2 -0.5 0.2 -0.5 0.5 0 0 -0.5 0.2 -0.8 0.5 -0.5 0.2 -1 0.5 -1 0.8 -0.2 0 -0.5 0.2 -0.8 0.2 -0.2 0 -0.8 0.2 -0.8 0.5 -0.2 0.2 -0.8 0.5 -1 0.5 0 0 -0.5 0.2 -0.8 0.5 0 0.2 -0.5 0.5 -0.8 0.5 -0.2 0 -0.5 0.2 -0.8 0.5 -0.5 0.5 -1.2 0.8 -2.5 1.2 -0.2 0.2 -0.8 0.8 -1 0.8 -0.2 0.2 -0.5 0.5 -0.8 0.5 -0.2 0 -0.8 0.5 -1.5 1 -0.8 0.5 -1.2 1 -1.5 1 -0.2 0 -0.5 0.2 -0.8 0.5 -0.5 0.5 -1.2 0.8 -2.5 1.2 -0.2 0.2 -0.8 0.8 -0.8 0.8 -0.2 0.2 -0.5 0.5 -0.8 0.5 -0.2 0 -0.8 0.2 -1 0.5 -0.5 0.5 -1.2 0.8 -2.5 1.2 -0.2 0.2 -0.8 0.8 -0.8 0.8 -0.2 0.2 -0.2 0.5 -0.5 0.5 -0.2 0 -2.2 1.2 -3 2 -1.5 2 -1.5 1.2 -1.5 14 l0 11.5 0.8 1.2 c0.2 0.5 0.8 1.2 1 1.2 0.5 0 0.8 0.5 1 0.5 0.2 0.2 0.5 0.5 0.5 0.5 0.2 0 0.8 0.2 0.8 0.5 0.2 0.2 0.8 0.5 1 0.5 0.2 0 0.5 0.2 0.8 0.5 0.5 0.5 1.2 0.8 2.5 1.2 0.2 0.2 0.8 0.8 1 0.8 0.2 0.2 0.5 0.5 0.8 0.5 0.2 0 0.8 0.2 1 0.5 0.2 0.2 0.5 0.5 0.8 0.5 0.5 0 0.8 0.2 2.2 1.5 0.5 0.2 1 0.5 1.2 0.5 0.2 0 0.5 0.2 0.8 0.5 0.2 0.2 0.5 0.5 1 0.5 0.5 0 0.8 0.2 1 0.5 0.2 0.2 0.5 0.5 0.8 0.5 0.5 0 0.8 0.2 1 0.5 0.2 0 0.8 0.5 1 0.8 1.2 0.5 2 0.8 2.5 1.2 0.2 0.2 0.5 0.5 0.8 0.5 0.2 0 0.8 0.2 1 0.5 0.2 0.2 0.5 0.5 0.8 0.5 0.2 0 0.8 0.2 1 0.5 0.5 0.5 1.2 0.8 2.5 1.2 0.2 0.2 0.8 0.8 1 0.8 0.2 0.2 0.5 0.5 0.8 0.5 0.5 0 1 0.2 1.2 0.5 0 0.2 0.5 0.5 0.8 0.5 0.2 0 0.5 0.2 0.8 0.5 0.2 0 0.8 0.5 1 0.8 1 0.2 1.5 0.8 2.5 1.2 0.2 0.2 0.8 0.5 1 0.5 0.2 0 0.5 0.2 0.8 0.5 0.2 0.2 0.5 0.5 0.8 0.5 0.2 0 0.5 0.2 0.8 0.2 0.8 0.5 2.2 1.8 3 1.8 0.2 0.2 0.5 0.5 0.5 0.5 0 0.2 0.8 0.8 2.2 1.2 0.2 0.2 0.8 0.8 0.8 0.8 0.2 0.2 0.2 0.5 0.5 0.5 0.5 0 2.5 1.5 3.5 2.8 1.8 2 1.2 6.5 -1 7.2 -0.5 0.2 -0.8 0.5 -1.8 1.2 -0.5 0.5 -1.5 1.2 -2.8 1.8 -0.2 0 -0.5 0.5 -0.8 0.5 -0.2 0.2 -0.5 0.5 -1 0.5 -0.2 0 -0.5 0.2 -0.8 0.5 -0.2 0.2 -0.8 0.8 -2.2 1.2 -0.2 0.2 -0.8 0.5 -0.8 0.8 -0.2 0.2 -0.8 0.5 -1 0.8 -1.2 0.5 -2 0.8 -2.5 1.2 -0.2 0.2 -0.5 0.5 -0.8 0.5 -0.2 0 -0.5 0.2 -0.8 0.5 0 0 -0.5 0.5 -0.8 0.8 -1.2 0.5 -2 0.8 -2.5 1.2 -0.2 0.2 -0.8 0.5 -1 0.5 -0.2 0 -0.5 0.2 -0.8 0.5 0 0 -0.5 0.5 -0.8 0.8 -1.2 0.5 -2 0.8 -2.5 1.2 -0.2 0.2 -0.8 0.5 -1 0.5 -0.2 0 -0.5 0.2 -0.8 0.5 0 0 -0.5 0.5 -0.8 0.8 -1.2 0.5 -2 0.8 -2.5 1.2 -0.2 0.2 -0.8 0.5 -1 0.5 -0.2 0 -0.5 0.2 -0.8 0.5 -0.2 0.2 -0.5 0.5 -0.8 0.5 -0.5 0 -0.8 0.2 -2.2 1.5 -0.5 0.2 -0.8 0.5 -1 0.5 -0.2 0 -0.5 0.2 -0.8 0.5 -0.5 0.5 -1.2 0.8 -2.5 1.2 -0.2 0.2 -0.8 0.8 -0.8 0.8 -0.2 0.2 -0.5 0.5 -0.8 0.5 -0.2 0 -0.8 0.2 -1.2 0.5 -1.5 1.2 -1.8 1.5 -2.2 1.5 -0.2 0 -0.5 0.2 -0.8 0.5 -0.2 0.2 -0.5 0.5 -0.8 0.5 -0.2 0 -0.5 0.2 -0.8 0.2 -0.2 0.2 -0.8 0.8 -1.2 0.8 -1.2 0.8 -2 1 -2.5 1.5 -0.2 0.2 -0.5 0.5 -0.8 0.5 -0.2 0 -0.5 0.2 -0.8 0.5 -0.2 0 -0.8 0.5 -1 0.8 -1.5 0.5 -2 1 -2.2 1.2 -0.2 0.2 -0.5 0.5 -0.8 0.5 -0.2 0 -0.8 0.2 -1 0.5 -0.5 0.2 -0.8 0.5 -1 0.5 0 0 -0.5 0.2 -0.5 0.5 -0.2 0.2 -0.8 0.5 -1 0.5 -0.2 0 -0.5 0.2 -0.8 0.5 -0.2 0.2 -0.5 0.5 -0.8 0.5 -0.2 0 -0.8 0.2 -1 0.5 -0.2 0.2 -1 0.5 -1.2 0.8 -1 0.5 -1.8 1 -2.2 1.2 -0.2 0.2 -0.8 0.5 -1 0.5 -0.2 0 -0.5 0.2 -0.8 0.5 -0.2 0.2 -0.5 0.5 -0.8 0.5 -0.5 0 -0.8 0.2 -2.2 1.5 -0.5 0.2 -1 0.5 -1.2 0.5 -0.2 0 -0.5 0.2 -0.8 0.5 -0.2 0.2 -0.5 0.5 -0.8 0.5 -0.5 0 -0.8 0.2 -2.2 1.5 -0.2 0.2 -1 0.5 -1.2 0.5 -0.5 0.2 -0.8 0.2 -0.8 0.5 0 0.2 -0.2 0.5 -0.8 0.8 -1.2 0.5 -2 0.8 -2.5 1.2 -0.2 0.2 -0.8 0.5 -1 0.5 -0.2 0 -0.5 0.2 -0.8 0.5 -0.2 0.2 -0.5 0.5 -0.8 0.5 -0.2 0 -1 0.5 -1.8 1 -0.8 0.5 -1.5 1 -1.5 1 -0.2 0 -0.5 0.2 -0.8 0.5 -0.2 0 -0.8 0.5 -1 0.8 -1.2 0.5 -2 0.8 -2.5 1.2 -0.2 0.2 -0.5 0.5 -0.8 0.5 -0.2 0 -0.5 0.2 -0.8 0.5 -0.5 0.5 -1.2 0.8 -2.5 1.2 -0.2 0.2 -0.8 0.8 -1 0.8 -0.2 0.2 -0.5 0.5 -1 0.5 -0.2 0 -0.5 0.2 -0.8 0.5 0 0 -0.5 0.5 -0.8 0.8 -1.5 0.5 -2 1 -2.2 1.2 -0.2 0.2 -0.5 0.5 -0.8 0.5 -0.2 0 -2 1 -2.8 1.8 -0.2 0 -0.5 0.2 -0.8 0.2 -0.2 0 -0.5 0.2 -0.8 0.5 0 0 -0.5 0.5 -0.8 0.8 -1.2 0.5 -2 0.8 -2.5 1.2 -0.2 0.2 -0.5 0.5 -0.8 0.5 -0.2 0 -0.8 0.2 -0.8 0.5 -0.2 0.2 -0.8 0.5 -1 0.5 -0.5 0 -0.8 0.2 -2.2 1.5 -0.5 0.2 -0.8 0.5 -1 0.5 -0.2 0 -0.5 0.2 -0.8 0.5 -0.2 0 -0.8 0.5 -1 0.8 -1.2 0.5 -2 0.8 -2.5 1.2 -0.2 0.2 -0.8 0.5 -1 0.5 -0.2 0 -0.5 0.2 -0.8 0.5 -0.2 0.2 -0.5 0.5 -0.8 0.5 -0.2 0 -1 0.5 -1.8 1 -0.8 0.5 -1.5 1 -1.8 1 -0.2 0 -0.5 0.2 -0.8 0.5 0 0 -0.5 0.5 -0.8 0.8 -0.5 0 -1 0.2 -1.2 0.5 -0.2 0.2 -0.8 0.2 -1 0.5 -0.2 0.2 -0.8 0.5 -1.2 0.5 -0.2 0.2 -0.8 0.8 -0.8 0.8 -0.2 0.2 -0.5 0.5 -0.8 0.5 -0.5 0 -1 0.2 -1 0.5 -0.2 0.2 -0.8 0.5 -1 0.5 -0.2 0 -0.8 0.2 -1 0.5 -0.5 0.2 -0.8 0.5 -1 0.5 -0.2 0 -0.8 0.2 -1.2 0.5 -1 0.5 -6.2 0.8 -7.2 0.2z"/><path fill="#101208" d="M171.5 325.5 c-0.5 -0.2 -1 -0.5 -2 -0.5 -1 0 -1.2 0 -1.5 -0.5 -0.2 -0.2 -0.5 -0.5 -1 -0.5 -0.5 0 -1 -0.2 -1.5 -1 -0.5 -0.8 -1 -1 -1.5 -1 -0.5 0 -0.8 -0.2 -1 -0.5 -0.2 -0.2 -0.5 -0.5 -1 -0.5 -0.5 0 -1 -0.2 -1.5 -1 -0.5 -0.8 -1 -1 -1.5 -1 -0.5 0 -0.8 -0.2 -1 -0.5 -0.2 -0.2 -0.5 -0.5 -1 -0.5 -0.5 0 -1 -0.2 -1.5 -1 -0.5 -0.8 -1 -1 -1.5 -1 -0.5 0 -0.8 -0.2 -1 -0.5 -0.2 -0.2 -0.5 -0.5 -0.8 -0.5 -0.5 0 -1 -0.5 -1.8 -1 -0.5 -0.5 -1.2 -1 -1.5 -1 -0.5 0 -0.8 -0.2 -1 -0.5 -0.2 -0.2 -0.5 -0.5 -1 -0.5 -0.2 0 -1 -0.5 -1.5 -1 -0.8 -0.5 -1.2 -1 -1.8 -1 -0.2 0 -0.5 -0.2 -0.8 -0.5 -0.2 -0.2 -0.5 -0.5 -1 -0.5 -0.2 0 -1 -0.5 -1.5 -1 -0.8 -0.5 -1.2 -1 -1.8 -1 -0.2 0 -0.5 -0.2 -0.8 -0.5 -0.2 -0.2 -0.5 -0.5 -1 -0.5 -0.5 0 -1 -0.2 -1.5 -1 -0.5 -0.8 -1 -1 -1.5 -1 -0.5 0 -0.8 -0.2 -1 -0.5 -0.2 -0.2 -0.5 -0.5 -1 -0.5 -0.5 0 -0.8 -0.2 -1 -0.5 0 0 -0.5 -0.5 -0.8 -0.8 -1.5 -0.5 -2 -1 -2.2 -1.2 -0.2 -0.2 -0.5 -0.5 -1 -0.5 -0.5 0 -1 -0.2 -1.5 -1 -0.5 -0.8 -1 -1 -1.5 -1 -0.5 0 -0.8 -0.2 -1 -0.5 -0.2 -0.2 -0.5 -0.5 -1 -0.5 -0.5 0 -1 -0.2 -1.5 -1 -0.5 -0.8 -1 -1 -1.5 -1 -0.5 0 -1 -0.2 -1.5 -1 -0.5 -0.8 -1 -1 -1.5 -1 -0.5 0 -0.8 -0.2 -1 -0.5 -0.2 -0.2 -0.5 -0.5 -1 -0.5 -0.5 0 -0.8 -0.2 -1 -0.5 -0.2 -0.2 -0.5 -0.5 -0.8 -0.5 -0.5 0 -1 -0.5 -1.8 -1 -0.5 -0.5 -1.2 -1 -1.5 -1 -0.5 0 -1 -0.5 -1.5 -1 -0.5 -0.8 -1 -1 -1.5 -1 -0.5 0 -0.8 -0.2 -1 -0.5 -0.2 -0.2 -0.5 -0.5 -1 -0.5 -0.5 0 -1 -0.2 -1.5 -1 -0.5 -0.8 -1 -1 -1.5 -1 -0.5 0 -0.8 -0.2 -1 -0.5 -0.2 -0.2 -0.5 -0.5 -0.5 -0.5 -0.2 0 -0.8 -0.2 -0.8 -0.5 -0.2 -0.2 -0.8 -0.5 -1 -0.5 0 0 -0.8 -0.5 -1.2 -1 -0.8 -0.5 -1.2 -1 -1.5 -1 -0.8 0 -9 -8.2 -9 -9 0 -0.5 -0.2 -0.8 -0.5 -1 -0.2 -0.2 -0.5 -0.5 -0.5 -1 0 -0.5 -0.2 -0.8 -0.5 -1 -0.5 -0.2 -0.5 -0.5 -0.5 -1.2 0 -0.8 -0.2 -1.2 -0.5 -1.5 -0.2 -0.5 -0.5 -1 -0.5 -1.8 0 -1 0 -1.2 -0.5 -1.5 -0.5 -0.2 -0.5 -0.5 -0.5 -49.8 0 -39.5 -0.2 -49.5 -0.5 -50 -0.2 -0.5 -0.2 -1 0 -2.5 0.2 -1 0.2 -3.5 0.5 -5.8 0 -3.2 0 -3.8 0.5 -4 0.5 -0.2 0.5 -0.5 0.5 -1.5 0 -1 0 -1.2 0.5 -1.5 0.2 -0.2 0.5 -0.5 0.5 -1 0 -0.5 0.2 -0.8 0.5 -1 0.2 -0.2 0.5 -0.5 0.5 -1 0 -0.5 0.2 -0.8 0.5 -1 0.2 -0.2 0.5 -0.5 0.5 -0.8 0 -1 5.2 -6.2 6 -6.2 0.2 0 1 -0.5 2 -1.5 1 -1 1.8 -1.5 2 -1.5 0.5 0 0.8 -0.2 1 -0.5 0.2 -0.2 0.5 -0.5 1 -0.5 0.5 0 1 -0.2 1.5 -1 0.5 -0.5 1 -1 1.5 -1 0.2 0 1 -0.5 1.5 -1 0.5 -0.5 1.2 -0.8 1.5 -1 0.5 0 1 -0.2 1 -0.5 0.2 -0.2 0.5 -0.5 1 -0.5 0.5 0 0.8 -0.2 1 -0.5 0.2 -0.2 0.5 -0.5 0.5 -0.5 0.2 0 0.8 -0.2 0.8 -0.5 0.2 -0.2 0.8 -0.5 1 -0.5 0.2 0 0.5 -0.2 0.8 -0.5 0.2 -0.2 0.5 -0.5 1 -0.5 0.5 0 1 -0.2 1.5 -1 0.5 -0.5 1 -1 1.5 -1 0.2 0 1 -0.5 1.5 -1 0.8 -0.5 1.2 -1 1.8 -1 0.2 0 0.5 -0.2 0.8 -0.5 0.2 -0.2 0.5 -0.5 1 -0.5 0.5 0 1 -0.2 1.5 -1 0.5 -0.8 1 -1 1.5 -1 0.5 0 1 -0.2 1.5 -1 0.5 -0.8 1 -1 1.5 -1 0.5 0 0.8 -0.2 1 -0.5 0.2 -0.2 0.8 -0.8 2.2 -1.2 0.2 -0.2 0.8 -0.8 0.8 -0.8 0.2 -0.2 0.5 -0.5 1 -0.5 0.5 0 0.8 -0.2 1 -0.5 0.2 -0.2 0.8 -0.8 2.2 -1.2 0.2 -0.2 0.8 -0.8 0.8 -0.8 0.2 -0.8 16 -0.5 16 0 0 0.2 -0.5 0.5 -1 0.5 -0.5 0 -0.8 0.2 -1 0.5 -0.2 0.5 -0.5 0.5 -1.5 0.5 -1 0 -1.5 0.2 -2 0.5 -0.2 0.2 -0.8 0.5 -1 0.5 0 0 -0.2 0.2 -0.5 0.5 -0.2 0.2 -0.5 0.5 -1 0.5 -0.5 0 -0.8 0.2 -1 0.5 -0.2 0.2 -0.5 0.5 -1 0.5 -0.8 0 -6 5.2 -6 6 0 0.5 -0.2 0.8 -0.5 1 -0.2 0.2 -0.5 0.5 -0.5 1 0 0.5 -0.2 0.8 -0.5 1 -0.5 0.2 -0.5 0.5 -0.5 1.5 0 1 0 1.2 -0.5 1.5 -0.5 0.2 -0.5 0.5 -0.5 3.5 0 3 0 3.2 0.5 3.5 0.5 0.2 0.5 0.5 0.5 1.5 0 1 0 1.2 0.5 1.5 0.2 0.2 0.5 0.5 0.5 1 0 0.5 0.2 1 0.5 1.5 0.2 0.2 0.5 0.8 0.5 1 0 0 0.2 0.2 0.5 0.5 0.2 0 0.8 0.8 1 1.5 0.8 1.5 1.8 2.5 2.5 2.5 0.5 0 1 0.5 1.5 1 0.5 0.8 1 1 1.5 1 0.5 0 0.8 0.2 1 0.5 0.2 0.2 0.5 0.5 1 0.5 0.5 0 0.8 0.2 1 0.5 0.2 0.5 0.5 0.5 2.8 0.5 2 0 2.8 0 3.5 0.5 1.2 0.8 13.2 0.8 14.5 0 0.5 -0.2 3.2 -0.5 19.2 -0.5 16.8 0 18.8 0 19.5 -0.5 0.8 -0.2 1 -0.2 5.5 0 6.2 0.8 6.8 0.5 7.5 0 0.5 -0.2 1 -0.5 2 -0.5 1 0 1.2 0 1.5 -0.5 0.2 -0.2 0.5 -0.5 1 -0.5 0.5 0 0.8 -0.2 1 -0.5 0.2 -0.2 0.5 -0.5 0.8 -0.5 0.8 0 6 -5 6.2 -6 0.2 -0.2 0.8 -1 1 -1.5 0.8 -0.8 1 -1.2 1 -2 0 -1 0 -1.2 0.5 -1.5 0.5 -0.2 0.5 -0.5 0.5 -5.5 0 -5 0 -5.2 -0.5 -5.5 -0.5 -0.2 -0.5 -0.5 -0.5 -1.5 0 -1 0 -1.2 -0.5 -1.5 -0.2 -0.2 -0.5 -0.5 -0.5 -1 0 -0.5 -0.2 -0.8 -0.5 -1 -0.2 -0.2 -0.5 -0.5 -0.5 -1 0 -0.8 -4.2 -5 -5 -5 -0.5 0 -0.8 -0.2 -1 -0.5 -0.2 -0.2 -0.5 -0.5 -1 -0.5 -0.5 0 -0.8 -0.2 -1 -0.5 -0.2 -0.5 -0.5 -0.5 -1.5 -0.5 -0.8 0 -1.2 -0.2 -1.5 -0.5 -0.5 -0.5 -1 -0.5 -24.5 -0.5 l-24 0 -1.5 -1.5 c-1 -0.8 -1.8 -1.5 -2 -1.5 -0.5 0 -1 -0.5 -1.5 -1 -0.5 -0.8 -1 -1 -1.5 -1 -0.5 0 -1 -0.2 -1.5 -1 -0.5 -0.8 -1 -1 -1.5 -1 -0.5 0 -1 -0.2 -1.5 -1 -0.5 -0.8 -1 -1 -1.5 -1 -0.5 0 -0.8 -0.2 -1 -0.5 -0.2 -0.5 -0.5 -0.5 -1.5 -0.5 -1 0 -1.2 0 -1.5 -0.5 -0.2 -0.2 -0.5 -0.5 -1 -0.5 -0.5 0 -0.8 -0.2 -1 -0.5 -0.2 -0.2 -0.5 -0.5 -1.5 -0.5 -1.5 -0.2 -2 -0.8 -0.5 -1 0.5 0 0.8 -0.2 1 -0.5 0.2 -0.5 0.5 -0.5 1.5 -0.5 1 0 1.2 0 1.5 -0.5 0.2 -0.5 0.5 -0.5 1.5 -0.5 1 0 1.2 0 1.5 -0.5 0.2 -0.2 0.5 -0.5 1 -0.5 0.5 0 0.8 -0.2 1 -0.5 0.2 -0.2 0.5 -0.5 1 -0.5 0.5 0 0.8 -0.2 1 -0.5 0.2 -0.2 0.5 -0.5 1 -0.5 0.5 0 0.8 -0.2 1 -0.5 0.2 -0.2 0.5 -0.5 1 -0.5 0.2 0 1 -0.2 1.5 -1 0.5 -0.5 1.2 -0.8 1.5 -1 0.5 0 1 -0.2 1 -0.5 0.2 -0.2 0.5 -0.5 1 -0.5 0.5 0 0.8 -0.2 1 -0.5 0.2 -0.2 0.5 -0.5 1 -0.5 0.5 0 0.8 -0.2 1 -0.5 0.2 -0.2 0.8 -0.8 2.2 -1.2 0.2 -0.2 0.8 -0.8 0.8 -0.8 0.2 -0.2 0.5 -0.5 1 -0.5 0.5 0 0.8 -0.2 1 -0.5 0.2 -0.2 0.5 -0.5 1 -0.5 0.5 0 1.2 -0.2 1.5 -0.5 0.5 -0.2 1 -0.5 2 -0.5 1 0 1.2 0 1.5 -0.5 0.5 -0.8 4.5 -0.8 5.5 0 0.5 0.2 1 0.5 2 0.5 1 0 1.2 0 1.5 0.5 0.2 0.2 0.5 0.5 1 0.5 0.5 0 0.8 0.2 1 0.5 0.2 0.2 0.5 0.5 1 0.5 0.5 0 0.8 0.2 1 0.5 0.2 0.2 0.5 0.5 1 0.5 0.5 0 0.8 0.2 1 0.5 0.2 0.2 0.5 0.5 1 0.5 0.5 0 0.8 0.2 1 0.5 0.2 0.2 0.8 0.8 2.2 1.2 0.2 0.2 0.8 0.8 0.8 0.8 0.2 0.2 0.5 0.5 1 0.5 0.5 0 0.8 0.2 1 0.5 0.2 0.2 0.5 0.5 1 0.5 0.5 0 0.8 0.2 1 0.5 0.2 0.2 0.5 0.5 1 0.5 0.5 0 0.8 0.2 1 0.5 0.2 0.2 0.5 0.5 0.8 0.5 0.5 0 1 0.5 1.8 1 0.5 0.5 1.2 1 1.5 1 0.5 0 0.8 0.2 1 0.5 0.2 0.2 0.5 0.5 1 0.5 0.5 0 0.8 0.2 1 0.5 0.2 0.2 0.5 0.5 0.8 0.5 0.5 0 1 0.5 1.8 1 0.5 0.5 1.2 1 1.5 1 0.5 0 0.8 0.2 1 0.5 0.2 0.2 0.5 0.5 1 0.5 0.5 0 1 0.2 1.5 1 0.5 0.8 1 1 1.5 1 0.5 0 0.8 0.2 1 0.5 0.2 0.2 0.5 0.5 1 0.5 0.2 0 1 0.2 1.5 1 0.8 0.8 1.2 1 1.5 1 0.5 0 0.8 0.2 1 0.5 0.2 0.2 0.5 0.5 1 0.5 0.5 0 0.8 0.2 1 0.5 0.2 0.2 0.5 0.5 1 0.5 0.2 0 1 0.2 1.5 1 0.5 0.5 1.2 0.8 1.5 1 0.5 0 1 0.2 1 0.5 0.2 0.2 0.5 0.5 1 0.5 0.5 0 0.8 0.2 1 0.5 0.2 0.2 0.5 0.5 0.8 0.5 0.2 0 0.8 0.2 1 0.5 0 0.2 0.5 0.5 0.8 0.5 0 0 0.2 0.2 0.5 0.5 0.2 0.2 0.5 0.5 1 0.5 0.5 0 0.8 0.2 1 0.5 0.2 0.2 0.5 0.5 1 0.5 0.5 0 1 0.2 1.5 1 0.5 0.8 1 1 1.5 1 0.8 0 2 1.5 2 2.2 0 0.2 0.2 0.5 0.5 0.8 0.5 0.2 0.5 1 0.5 11.8 0.2 11 0.2 13 0.8 13.8 0 0.2 0 2 0.2 4.2 0 3.5 0 4 0.5 4.2 0.2 0.2 0.5 0.5 0.5 1 0 0.5 3.2 4 3.8 4 0 0 0.5 0.2 0.8 0.5 0 0.2 0.5 0.5 0.8 0.5 0.2 0 0.5 0.2 0.8 0.5 0.2 0.2 0.5 0.5 1 0.5 0.5 0 0.8 0.2 1 0.5 0.2 0.2 0.5 0.5 1 0.5 0.2 0 1 0.5 1.5 1 0.8 0.5 1.2 1 1.8 1 0.2 0 0.5 0.2 0.8 0.5 0.2 0.2 0.5 0.5 1 0.5 0.5 0 0.8 0.2 1 0.5 0.2 0.2 0.5 0.5 1 0.5 0.2 0 0.8 0.2 1.5 1 0.5 0.8 1.2 1 1.5 1 0.5 0 0.8 0.2 1 0.5 0 0 0.5 0.5 0.8 0.8 1.5 0.5 2 1 2.2 1.2 0.2 0.2 0.5 0.5 1 0.5 0.5 0 0.8 0.2 1 0.5 0.2 0.2 0.5 0.5 1 0.5 0.5 0 1 0.2 1.5 1 0.5 0.8 1 1 1.5 1 0.5 0 1 0.2 1.5 1 0.5 0.8 1 1 1.5 1 0.5 0 0.8 0.2 1 0.5 0.2 0.2 0.5 0.5 1 0.5 0.5 0 0.8 0.2 1 0.5 0.2 0.2 0.5 0.5 0.8 0.5 0.5 0 1 0.5 1.8 1 0.5 0.8 1.2 1 1.5 1 0.5 0 0.8 0.2 1 0.5 0 0 0.5 0.5 0.8 0.8 1.5 0.5 2 1 2.2 1.2 0.2 0.2 0.5 0.5 1 0.5 0.5 0 0.8 0.2 1 0.5 0.2 0.2 0.5 0.5 1 0.5 0.5 0 1 0.2 1.5 1 0.5 0.8 1 1 1.5 1 0.5 0 0.8 0.2 1 0.5 0.2 0.2 0.5 0.5 1 0.5 0.5 0 1 0.2 1.5 1 0.5 0.8 1 1 1.5 1 0.5 0 0.8 0.2 1 0.5 0.2 0.2 0.5 0.5 1 0.5 0.5 0 1 0.2 1.5 1 0.5 0.8 1 1 1.5 1 0.5 0 0.8 0.2 1 0.5 0.2 0.2 0.5 0.5 1 0.5 0.5 0 1 0.2 1.5 1 0.5 0.8 1 1 1.5 1 0.5 0 0.8 0.2 1 0.5 0.2 0.2 0.5 0.5 1 0.5 0.5 0 1 0.2 1.5 1 0.5 0.8 1 1 1.5 1 0.5 0 1 0.2 1.5 1 0.5 0.5 1 1 1.5 1 0.8 0 3 2.2 3 3 0 0.5 0.2 0.8 0.5 1 0.5 0.5 0.5 0.5 0.2 1 -0.2 0.2 -0.5 0.8 -0.5 1 0 2.2 -1.8 5 -3.2 5 -0.5 0 -1 0.5 -1.5 1 -0.5 0.8 -1 1 -1.5 1 -0.5 0 -0.8 0.2 -1 0.5 -0.2 0.2 -0.5 0.5 -1 0.5 -0.5 0 -1 0.2 -1.5 1 -0.5 0.8 -1 1 -1.5 1 -0.5 0 -0.8 0.2 -1 0.5 0 0.2 -0.5 0.5 -1 0.5 -0.2 0.2 -1 0.5 -1.5 1 -0.5 0.8 -1.2 1 -1.5 1 -0.5 0 -0.8 0.2 -1 0.5 -0.2 0.2 -0.5 0.5 -1 0.5 -0.5 0 -1 0.2 -1.5 1 -0.5 0.8 -1 1 -1.5 1 -0.5 0 -0.8 0.2 -1 0.5 -0.2 0.2 -0.5 0.5 -1 0.5 -0.5 0 -1 0.2 -1.5 1 -0.5 0.8 -1 1 -1.5 1 -0.5 0 -0.8 0.2 -1 0.5 -0.2 0.2 -0.8 0.8 -2.2 1.2 -0.2 0.2 -0.8 0.8 -0.8 0.8 -0.2 0.2 -0.5 0.5 -1 0.5 -0.5 0 -0.8 0.2 -1 0.5 -0.2 0.2 -0.8 0.8 -2.2 1.2 -0.2 0.2 -0.8 0.8 -0.8 0.8 -0.2 0.2 -0.5 0.5 -1 0.5 -0.5 0 -0.8 0.2 -1 0.5 -0.2 0.2 -0.5 0.5 -0.8 0.5 -0.5 0 -1 0.5 -1.8 1 -0.5 0.5 -1.2 1 -1.5 1 -0.5 0 -1 0.5 -1.5 1 -0.5 0.8 -1 1 -1.5 1 -0.5 0 -0.8 0.2 -1 0.5 -0.2 0.2 -0.5 0.5 -1 0.5 -0.5 0 -1 0.2 -1.5 1 -0.5 0.8 -1 1 -1.5 1 -0.5 0 -0.8 0.2 -1 0.5 -0.2 0.2 -0.5 0.5 -0.5 0.5 -0.2 0 -0.8 0.2 -0.8 0.5 -0.2 0.2 -0.8 0.5 -1 0.5 -0.2 0 -0.5 0.2 -0.8 0.5 -0.2 0.2 -0.5 0.5 -1 0.5 -0.5 0 -0.8 0.2 -1 0.5 -0.2 0.2 -0.8 0.8 -2.2 1.2 -0.2 0.2 -0.8 0.8 -0.8 0.8 -0.2 0.2 -0.5 0.5 -1 0.5 -0.5 0 -0.8 0.2 -1 0.5 -0.2 0.2 -0.5 0.5 -1 0.5 -0.5 0 -1 0.2 -1.5 1 -0.5 0.8 -1 1 -1.5 1 -0.5 0 -1 0.2 -1.5 1 -0.5 0.8 -1 1 -1.5 1 -0.5 0 -0.8 0.2 -1 0.5 -0.2 0.2 -0.5 0.5 -1 0.5 -0.5 0 -1 0.2 -1.5 1 -0.5 0.5 -1 1 -1.5 1 -1 0 -4 3.2 -4 4.5 0 1 0 1.2 -0.5 1.5 -0.5 0.2 -0.5 0.5 -0.5 13.5 0 13 0 13.2 -0.5 13.5 -0.2 0.2 -0.5 0.5 -0.5 1 0 0.5 -0.2 0.8 -0.8 1.2 -1.5 0.5 -2 1 -2.2 1.2 -0.2 0.2 -0.5 0.5 -1 0.5 -0.5 0 -0.8 0.2 -1 0.5 -0.2 0.2 -0.5 0.5 -1 0.5 -0.5 0 -1 0.2 -1.5 1 -0.5 0.8 -1 1 -1.5 1 -0.5 0 -0.8 0.2 -1 0.5 -0.2 0.2 -0.5 0.5 -1 0.5 -0.5 0 -0.8 0.2 -1 0.5 -0.2 0.2 -0.5 0.5 -1 0.5 -0.5 0 -1 0.2 -1.5 1 -0.5 0.8 -1 1 -1.5 1 -0.5 0 -0.8 0.2 -1 0.5 -0.2 0.2 -0.5 0.5 -1 0.5 -0.5 0 -0.8 0.2 -1 0.5 -0.2 0.2 -0.5 0.5 -1 0.5 -0.5 0 -1 0.2 -1.5 1 -0.5 0.8 -1 1 -1.5 1 -0.5 0 -0.8 0.2 -1 0.5 -0.2 0.2 -0.5 0.5 -1 0.5 -0.5 0 -0.8 0.2 -1 0.5 -0.2 0.2 -0.5 0.5 -1 0.5 -0.5 0 -1 0.2 -1.5 1 -0.5 0.8 -1 1 -1.5 1 -0.5 0 -0.8 0.2 -1 0.5 -0.2 0.2 -0.5 0.5 -1 0.5 -0.5 0 -0.8 0.2 -1 0.5 -0.2 0.2 -0.5 0.5 -1 0.5 -0.2 0 -1 0.5 -1.5 1 -0.8 0.5 -1.2 1 -1.8 1 -0.2 0 -0.5 0.2 -0.8 0.5 -0.2 0.2 -0.5 0.5 -1 0.5 -0.5 0 -0.8 0.2 -1 0.5 -0.2 0.2 -0.5 0.5 -1 0.5 -0.5 0 -0.8 0.2 -1 0.5 -0.2 0.2 -0.5 0.5 -0.8 0.5 -0.5 0 -1 0.5 -1.8 1 -0.5 0.5 -1.2 1 -1.5 1 -0.5 0 -0.8 0.2 -1 0.5 -0.2 0.2 -0.5 0.5 -1 0.5 -0.5 0 -0.8 0.2 -1 0.5 0 0.2 -0.5 0.5 -1 0.5 -0.2 0.2 -1 0.5 -1.5 1 -0.5 0.8 -1.2 1 -1.5 1 -0.5 0 -0.8 0.2 -1 0.5 -0.2 0.2 -0.5 0.5 -1 0.5 -0.2 0 -1 0.2 -1.5 1 -0.8 0.8 -1.2 1 -1.5 1 -0.5 0 -0.8 0.2 -1 0.5 -0.2 0.2 -0.5 0.5 -1 0.5 -0.5 0 -0.8 0.2 -1 0.5 -0.2 0.2 -0.5 0.5 -1 0.5 -0.2 0 -1 0.5 -1.5 1 -0.8 0.5 -1.2 1 -1.8 1 -0.2 0 -0.5 0.2 -0.8 0.5 -0.2 0.2 -0.5 0.5 -1 0.5 -0.5 0 -0.8 0.2 -1 0.5 -0.2 0.2 -0.5 0.5 -1 0.5 -0.5 0 -0.8 0.2 -1 0.5 -0.2 0.5 -0.5 0.5 -1.5 0.5 -1 0 -1.2 0 -1.5 0.5 -0.2 0.5 -0.5 0.5 -2.5 0.5 -2 0 -2.5 0 -3 -0.5z m-8.5 -29 c0.2 -0.5 0.5 -0.5 1.5 -0.5 1 0 1.2 0 1.5 -0.5 0.2 -0.2 0.5 -0.5 1 -0.5 0.5 0 0.8 -0.2 1 -0.5 0.2 -0.2 0.5 -0.5 1 -0.5 0.5 0 0.8 -0.2 1 -0.5 0.2 -0.2 0.5 -0.5 1 -0.5 1 0 6 -5.2 6 -6.2 l0 -0.5 -6 -0.2 c-5.5 0 -5.8 0 -6 0.5 -0.5 0.5 -1 0.5 -6.2 0.5 -5.2 0 -5.5 0 -5.8 0.5 -0.2 0.5 -0.5 0.5 -2.5 0.5 -2 0 -2.2 0 -2.5 0.5 -0.2 0.5 -0.5 0.5 -1.5 0.5 -0.8 0 -1.2 0.2 -1.8 0.8 l-0.8 0.8 1.8 1.8 c1.2 1.2 2 1.8 2.2 1.8 0.5 0 0.8 0.2 1 0.5 0.2 0.2 0.5 0.5 1 0.5 0.5 0 0.8 0.2 1 0.5 0.2 0.2 0.5 0.5 1 0.5 0.5 0 0.8 0.2 1 0.5 0.2 0.5 0.5 0.5 5 0.5 4.5 0 4.8 0 5 -0.5z m-11 -14 c0.2 -0.5 0.5 -0.5 6 -0.5 5.2 0 5.8 0 6.2 -0.5 0.2 -0.5 0.8 -0.5 7 -0.5 6.2 0 6.5 0 6.8 -0.5 0.2 -0.5 0.5 -0.5 7.8 -0.5 7.2 0 7.8 0 8.2 -0.5 0.5 -0.5 1 -0.5 9.2 -0.5 8.2 0 8.5 0 8.8 -0.5 0.2 -0.5 0.5 -0.5 3 -0.5 2.5 0 2.8 0 3 -0.5 0.2 -0.5 0.5 -0.5 1.2 -0.5 1.5 0 6.8 -4.8 6.8 -6 0 -0.5 0.2 -0.8 0.5 -1 0.2 -0.2 0.5 -0.5 0.5 -0.8 0 -0.5 0.2 -1 0.5 -1 0.2 -0.5 0.5 -1 0.5 -1.5 0 -0.2 0.2 -1 0.5 -1.2 0.5 -0.8 0.5 -1 0.5 -5 0 -4 0 -4.2 -0.5 -4.5 -0.5 -0.2 -0.5 -0.5 -0.5 -1.5 0 -1 0 -1.2 -0.5 -1.5 -0.2 -0.2 -0.5 -0.5 -0.5 -1 0 -0.8 -5.2 -6 -6 -6 -0.5 0 -0.8 -0.2 -1 -0.5 -0.2 -0.5 -0.5 -0.5 -1.5 -0.5 -1 0 -1.2 0 -1.5 -0.5 -0.2 -0.5 -0.5 -0.5 -7 -0.5 -6.5 0 -7 0 -7.2 0.5 -0.5 0.5 -0.8 0.5 -6.5 0.5 -5.8 0 -6.2 0 -6.8 0.5 -0.8 0.5 -1 0.5 -6.8 0.5 -5.8 0 -6.2 0 -6.5 0.5 -0.5 0.5 -1 0.5 -7 0.5 -6 0 -6.5 0 -7.2 0.5 -1 0.5 -1.5 0.5 -7.8 0.5 -6.8 0 -7 0 -7.2 0.5 -0.2 0.5 -0.5 0.5 -2 0.5 -1.5 0 -1.8 0 -2 0.5 -0.2 0.2 -0.5 0.5 -1.2 0.5 -0.8 0 -1.2 0.2 -1.8 0.5 -1.5 1.2 -1.8 1.5 -2.2 1.5 -0.5 0 -5.8 5.5 -5.8 6.2 0 0.2 -0.2 0.5 -0.5 0.8 -0.5 0.2 -0.5 0.5 -0.5 1.5 0 1 0 1.2 -0.5 1.5 -0.5 0.2 -0.5 0.5 -0.5 5 0 4.5 0 4.8 0.5 5 0.5 0.2 0.5 0.5 0.5 1.2 0 0.8 0.2 1.2 0.5 1.8 0.2 0 0.5 0.5 0.5 1 0 1 5.2 6 6.5 6 0.5 0 1 0.2 1.5 0.5 0.2 0.5 0.8 0.5 6 0.5 5.5 0 5.8 0 6 -0.5z m-14 -38.5 l0 -0.8 -1.5 -0.2 c-1 0 -1.2 -0.2 -1.5 -0.5 -0.2 -0.2 -0.5 -0.5 -1 -0.5 -0.5 0 -0.8 -0.2 -1 -0.5 -0.2 -0.2 -0.5 -0.5 -1 -0.5 -0.5 0 -0.8 -0.2 -1 -0.5 -0.2 -0.2 -0.5 -0.5 -1 -0.5 -0.2 0 -1 -0.2 -1.2 -0.5 -0.2 -0.2 -0.8 -0.5 -1 -0.5 -0.2 0 -0.5 -0.2 -0.8 -0.5 -0.2 -0.2 -0.5 -0.5 -1 -0.5 -0.5 0 -0.8 -0.2 -1 -0.5 -0.2 -0.2 -0.5 -0.5 -1 -0.5 -0.5 0 -0.8 -0.2 -1 -0.5 -0.2 -0.2 -0.5 -0.5 -1 -0.5 -0.5 0 -0.8 -0.2 -1 -0.5 -0.2 -0.2 -0.5 -0.5 -1 -0.5 -0.5 0 -1 -0.2 -1.5 -1 -0.5 -0.5 -1 -1 -1.5 -1 -0.2 0 -1 -0.5 -1.5 -1 -1.5 -1.5 -2.2 -2 -2.8 -2 -0.5 0 -7.8 -7.5 -7.8 -8 0 -0.5 -0.2 -0.8 -0.5 -1 -0.2 -0.2 -0.5 -0.5 -0.5 -1 0 -0.5 -0.2 -1 -1 -1.5 -0.8 -0.5 -1 -1 -1 -1.5 0 -0.5 -0.2 -0.8 -0.5 -1 -0.2 -0.2 -0.5 -0.5 -0.5 -1 0 -0.2 -0.2 -1 -0.5 -1.2 -0.2 -0.5 -0.5 -1 -0.5 -1.8 0 -1 0 -1.5 -0.5 -1.8 -0.5 -0.5 -0.5 -1 -0.5 -3.2 -0.2 -3 -0.8 -4.2 -1 -2 0 0.5 -0.2 0.8 -0.5 1 -0.5 0.2 -0.5 0.5 -0.5 3 0 2 0 2.8 -0.2 3 -0.8 0.5 -0.8 3.5 0 4 0.2 0.2 0.2 1 0.2 3 0 2.5 0 2.8 0.5 3 0.2 0.2 0.5 0.5 0.5 1 0 0.5 0.2 0.8 0.5 1 0.2 0.2 0.5 0.5 0.5 1 0 0.5 0.2 0.8 0.5 1 0.2 0.2 0.5 0.5 0.5 1 0 0.8 8.2 9 9 9 0.5 0 1 0.5 1.5 1 0.5 0.8 1 1 1.5 1 0.5 0 0.8 0.2 1 0.5 0.2 0.2 0.5 0.5 0.8 0.5 0.2 0 0.8 0.2 1 0.5 0.2 0.2 0.5 0.5 0.8 0.5 0.2 0 0.8 0.2 1 0.5 0 0.2 0.8 0.5 1 0.5 0.5 0 1 0.2 1.2 0.5 0.5 0.2 1 0.5 1.2 0.5 0.5 0 0.8 0.2 1 0.5 0.2 0.5 0.5 0.5 1.8 0.5 1.2 0 1.8 0 2.2 0.5 0.2 0.5 0.8 0.5 4.5 0.5 3.5 0 4 0 4.5 0.5 0.5 0.5 1 0.5 2.2 0.5 l1.8 0 0 -1z m19.8 -3.5 c0.2 -0.5 0.8 -0.5 8.2 -0.5 7.2 0 7.8 0 8.2 -0.5 0.5 -0.5 1 -0.5 8 -0.5 7 0 7.5 0 8 -0.5 0.2 -0.5 0.8 -0.5 8.5 -0.5 7.2 0 8.2 0 8.5 -0.5 0.5 -0.2 1.2 -0.5 5 -0.5 4.2 0 4.5 0 4.8 -0.5 0.2 -0.5 0.5 -0.5 1.5 -0.5 0.8 0 1.2 -0.2 1.8 -0.5 0.2 -0.2 0.8 -0.5 1.2 -0.5 1.2 0 7.5 -6 7.5 -7 0 -0.5 0.2 -0.8 0.5 -1 0.2 -0.2 0.5 -0.5 0.5 -1 0 -0.5 0.2 -0.8 0.5 -1 0.2 -0.2 0.5 -0.5 0.5 -1.2 0 -0.8 0.2 -1.2 0.5 -1.5 0.5 -0.2 0.5 -0.8 0.5 -5.8 0 -5 0 -5.2 -0.5 -5.5 -0.5 -0.2 -0.5 -0.5 -0.5 -1.5 0 -1 0 -1.2 -0.5 -1.5 -0.2 -0.2 -0.5 -0.5 -0.5 -0.8 0 -0.8 -5.2 -6.2 -6 -6.2 -0.2 0 -0.8 -0.2 -0.8 -0.5 -0.2 -0.2 -0.8 -0.5 -0.8 -0.5 -0.2 0 -0.5 -0.2 -1 -0.5 -0.2 -0.2 -1 -0.5 -1.5 -0.5 -0.5 0 -0.8 -0.2 -1 -0.5 -0.2 -0.5 -0.5 -0.5 -3 -0.5 -2.5 0 -3 0 -3.5 0.5 -0.5 0.5 -1 0.5 -8.5 0.5 -7.8 0 -8.2 0 -8.8 0.5 -0.8 0.5 -1 0.5 -10.2 0.5 -9.2 0 -9.8 0 -10.2 0.5 -0.5 0.5 -1 0.5 -11 0.5 -10 0 -10.5 0 -10.8 0.5 -0.5 0.5 -1 0.5 -3.2 0.5 -2.2 0 -2.5 0 -2.8 0.5 -0.2 0.2 -0.5 0.5 -1 0.5 -0.5 0 -0.8 0.2 -1 0.5 -0.2 0.2 -0.5 0.5 -1 0.5 -0.5 0 -0.8 0.2 -1 0.5 -0.2 0.2 -0.5 0.5 -1 0.5 -0.8 0 -5.5 5 -6.5 6.5 -0.2 0.8 -0.8 1.5 -1 1.5 -0.5 0.2 -0.5 0.5 -0.5 1.5 0 1 0 1.2 -0.5 1.5 -0.5 0.2 -0.5 0.5 -0.5 6 0 5.2 0 5.5 0.5 6.2 0.2 0.2 0.5 1 0.5 1.5 0 0.8 0.2 1 0.5 1.2 0.2 0.2 0.5 0.5 0.5 1 0 0.5 5.2 6 5.8 6 0.2 0 0.8 0.2 1 0.5 0.2 0.2 0.8 0.5 1.2 0.5 0.5 0 0.8 0.2 1 0.5 0.2 0.5 0.5 0.5 1.5 0.5 0.8 0 1.2 0.2 1.8 0.5 0.2 0.5 0.8 0.5 5.2 0.5 4.5 0 4.8 0 5.2 -0.5z m73.2 -4 c0 -0.2 0.8 -0.5 1 -0.5 0.5 0 0.8 -0.2 1 -0.5 0.2 -0.2 0.5 -0.5 1 -0.5 0.5 0 0.8 -0.2 1 -0.5 0.2 -0.2 0.5 -0.5 1 -0.5 0.2 0 0.8 -0.2 1.2 -0.8 0.5 -0.5 0.8 -1 0.8 -1.2 0 -0.5 0.2 -0.8 0.5 -1 0.2 -0.2 0.5 -0.5 0.5 -1 0 -0.5 0.2 -1 0.5 -1.5 0.8 -0.5 0.8 -4.2 0 -4.2 -0.2 0 -0.5 0.2 -0.5 0.8 0 0.5 -0.2 0.8 -0.5 1 -0.2 0.2 -0.5 0.5 -0.5 1 0 0.8 -7.2 8 -8.2 8 -0.2 0 -0.8 0.2 -1.2 0.5 -0.2 0.2 -0.8 0.5 -1.2 0.5 -0.5 0 -0.8 0.2 -0.5 0.8 0.2 0.5 3.8 0.2 4.2 -0.2z m-55.5 -42 c0.8 -0.5 1 -0.5 11.5 -0.5 10.2 0 10.8 0 11.2 -0.5 0.2 -0.5 0.8 -0.5 9.2 -0.5 8.5 0 9 0 9.5 -0.5 0.2 -0.5 0.8 -0.5 2 -0.5 1.5 0 1.8 0 2 -0.5 0.2 -0.2 0.5 -0.5 1 -0.5 0.5 0 0.8 -0.2 1 -0.5 0.2 -0.2 0.5 -0.5 1 -0.5 0.8 0 6 -5.2 6 -6 0 -0.5 0.2 -0.8 0.5 -1 0.5 -0.2 0.5 -0.5 0.5 -1.5 0 -1 0 -1.2 0.5 -1.5 0.5 -0.2 0.5 -0.5 0.5 -6 0 -5.5 0 -5.8 -0.5 -6 -0.5 -0.2 -0.5 -0.5 -0.5 -1.5 0 -1 0 -1.2 -0.5 -1.5 -0.2 -0.2 -0.5 -0.5 -0.5 -1 0 -0.8 -5.2 -6 -6 -6 -0.5 0 -0.8 -0.2 -1 -0.5 -0.2 -0.2 -0.5 -0.5 -0.5 -0.5 -0.2 0 -0.5 -0.2 -1 -0.5 -0.2 -0.2 -1 -0.5 -1.5 -0.5 -0.5 0 -0.8 -0.2 -1 -0.5 -0.2 -0.5 -0.5 -0.5 -3.2 -0.5 -2.5 0 -3.2 0 -4.2 -0.5 -1.8 -0.8 -32.2 -0.8 -33.2 0 -0.5 0.5 -1.8 0.5 -15.2 0.5 -14.5 0 -14.8 0 -15 0.5 -0.2 0.5 -0.5 0.5 -2 0.5 -1.5 0 -1.8 0 -2 0.5 -0.2 0.2 -0.5 0.5 -1 0.5 -0.5 0 -0.8 0.2 -1 0.5 -0.2 0.2 -0.5 0.5 -1 0.5 -0.8 0 -7 6.2 -7 7 0 0.5 -0.2 0.8 -0.5 1 -0.2 0.2 -0.5 0.5 -0.5 1 0 0.5 -0.2 0.8 -0.5 1 -0.2 0.2 -0.5 0.5 -0.5 1.2 0 0.5 -0.2 1.2 -0.5 1.5 -0.5 0.5 -0.5 1 -0.5 4.2 0 3.5 0 3.8 0.5 4 0.5 0.2 0.5 0.5 0.5 1.8 0 1.2 0 1.8 0.5 2.2 0.2 0 0.5 0.8 0.5 1 0 0.5 0.2 0.8 0.5 1 0.2 0.2 0.5 0.5 0.5 1 0 0.2 0.8 1.2 2.8 3.2 2 2 3 2.8 3.2 2.8 0.5 0 0.8 0.2 1 0.5 0.2 0.2 0.5 0.5 1 0.5 0.5 0 0.8 0.2 1 0.5 0.2 0.2 0.5 0.5 1 0.5 0.5 0 1 0.2 1.5 0.5 0.5 0.5 1 0.5 15 0.5 14 0 14.5 0 15 -0.5z"/></g></svg>